<mxfile host="app.diagrams.net" modified="2024-02-06T00:53:55.580Z" agent="Mozilla/5.0 (Windows NT 10.0; Win64; x64) AppleWebKit/537.36 (KHTML, like Gecko) Chrome/121.0.0.0 Safari/537.36" etag="nlgdzudiJKpWPM4fVPP2" version="23.1.1" type="device">
  <diagram name="Pagina-1" id="bsCfIDEgioWC9dEukl5g">
    <mxGraphModel dx="2442" dy="-207" grid="1" gridSize="10" guides="1" tooltips="1" connect="1" arrows="1" fold="1" page="1" pageScale="1" pageWidth="827" pageHeight="1169" math="0" shadow="0">
      <root>
        <mxCell id="0" />
        <mxCell id="1" parent="0" />
        <mxCell id="nRvZe3EaVZyrfNKoyUzO-48" value="" style="rounded=1;whiteSpace=wrap;html=1;fillColor=#FEFFEB;strokeColor=#82b366;" parent="1" vertex="1">
          <mxGeometry x="-130" y="1520" width="740" height="340" as="geometry" />
        </mxCell>
        <mxCell id="nRvZe3EaVZyrfNKoyUzO-1" value="" style="rounded=1;whiteSpace=wrap;html=1;fillColor=none;" parent="1" vertex="1">
          <mxGeometry x="-110" y="1590" width="240" height="200" as="geometry" />
        </mxCell>
        <mxCell id="nRvZe3EaVZyrfNKoyUzO-2" value="User node" style="text;html=1;strokeColor=none;fillColor=none;align=center;verticalAlign=middle;whiteSpace=wrap;rounded=0;fontSize=22;fontColor=#030003;fontStyle=1" parent="1" vertex="1">
          <mxGeometry x="-48.489999999999995" y="1800" width="110" height="30" as="geometry" />
        </mxCell>
        <mxCell id="nRvZe3EaVZyrfNKoyUzO-3" value="" style="shape=image;verticalLabelPosition=bottom;labelBackgroundColor=default;verticalAlign=top;aspect=fixed;imageAspect=0;image=data:image/jpeg,/9j/4AAQSkZJRgABAQEAeAB4AAD/4QLuRXhpZgAATU0AKgAAAAgABAE7AAIAAAAMAAABSodpAAQAAAABAAABVpydAAEAAAAYAAACzuocAAcAAAEMAAAAPgAAAAAc6gAAAAEAAAAAAAAAAAAAAAAAAAAAAAAAAAAAAAAAAAAAAAAAAAAAAAAAAAAAAAAAAAAAAAAAAAAAAAAAAAAAAAAAAAAAAAAAAAAAAAAAAAAAAAAAAAAAAAAAAAAAAAAAAAAAAAAAAAAAAAAAAAAAAAAAAAAAAAAAAAAAAAAAAAAAAAAAAAAAAAAAAAAAAAAAAAAAAAAAAAAAAAAAAAAAAAAAAAAAAAAAAAAAAAAAAAAAAAAAAAAAAAAAAAAAAAAAAAAAAAAAAAAAAAAAAAAAAAAAAAAAAAAAAAAAAAAAAAAAAAAAAAAAAAAAAAAAAAAAAAAAAAAAAAAAAAAAAAAAAAAAAAAAAAAAAAAATWF0dGVvIEdpcmkAAAWQAwACAAAAFAAAAqSQBAACAAAAFAAAAriSkQACAAAAAzIxAACSkgACAAAAAzIxAADqHAAHAAABDAAAAZgAAAAAHOoAAAABAAAAAAAAAAAAAAAAAAAAAAAAAAAAAAAAAAAAAAAAAAAAAAAAAAAAAAAAAAAAAAAAAAAAAAAAAAAAAAAAAAAAAAAAAAAAAAAAAAAAAAAAAAAAAAAAAAAAAAAAAAAAAAAAAAAAAAAAAAAAAAAAAAAAAAAAAAAAAAAAAAAAAAAAAAAAAAAAAAAAAAAAAAAAAAAAAAAAAAAAAAAAAAAAAAAAAAAAAAAAAAAAAAAAAAAAAAAAAAAAAAAAAAAAAAAAAAAAAAAAAAAAAAAAAAAAAAAAAAAAAAAAAAAAAAAAAAAAAAAAAAAAAAAAAAAAAAAAAAAAAAAAAAAAAAAAAAAAAAAAAAAAAAAAADIwMjQ6MDI6MDUgMTk6Mzc6MzcAMjAyNDowMjowNSAxOTozNzozNwAAAE0AYQB0AHQAZQBvACAARwBpAHIAaQAAAP/hBB5odHRwOi8vbnMuYWRvYmUuY29tL3hhcC8xLjAvADw/eHBhY2tldCBiZWdpbj0n77u/JyBpZD0nVzVNME1wQ2VoaUh6cmVTek5UY3prYzlkJz8+DQo8eDp4bXBtZXRhIHhtbG5zOng9ImFkb2JlOm5zOm1ldGEvIj48cmRmOlJERiB4bWxuczpyZGY9Imh0dHA6Ly93d3cudzMub3JnLzE5OTkvMDIvMjItcmRmLXN5bnRheC1ucyMiPjxyZGY6RGVzY3JpcHRpb24gcmRmOmFib3V0PSJ1dWlkOmZhZjViZGQ1LWJhM2QtMTFkYS1hZDMxLWQzM2Q3NTE4MmYxYiIgeG1sbnM6ZGM9Imh0dHA6Ly9wdXJsLm9yZy9kYy9lbGVtZW50cy8xLjEvIi8+PHJkZjpEZXNjcmlwdGlvbiByZGY6YWJvdXQ9InV1aWQ6ZmFmNWJkZDUtYmEzZC0xMWRhLWFkMzEtZDMzZDc1MTgyZjFiIiB4bWxuczp4bXA9Imh0dHA6Ly9ucy5hZG9iZS5jb20veGFwLzEuMC8iPjx4bXA6Q3JlYXRlRGF0ZT4yMDI0LTAyLTA1VDE5OjM3OjM3LjIxMzwveG1wOkNyZWF0ZURhdGU+PC9yZGY6RGVzY3JpcHRpb24+PHJkZjpEZXNjcmlwdGlvbiByZGY6YWJvdXQ9InV1aWQ6ZmFmNWJkZDUtYmEzZC0xMWRhLWFkMzEtZDMzZDc1MTgyZjFiIiB4bWxuczpkYz0iaHR0cDovL3B1cmwub3JnL2RjL2VsZW1lbnRzLzEuMS8iPjxkYzpjcmVhdG9yPjxyZGY6U2VxIHhtbG5zOnJkZj0iaHR0cDovL3d3dy53My5vcmcvMTk5OS8wMi8yMi1yZGYtc3ludGF4LW5zIyI+PHJkZjpsaT5NYXR0ZW8gR2lyaTwvcmRmOmxpPjwvcmRmOlNlcT4NCgkJCTwvZGM6Y3JlYXRvcj48L3JkZjpEZXNjcmlwdGlvbj48L3JkZjpSREY+PC94OnhtcG1ldGE+DQogICAgICAgICAgICAgICAgICAgICAgICAgICAgICAgICAgICAgICAgICAgICAgICAgICAgICAgICAgICAgICAgICAgICAgICAgICAgICAgICAgICAgICAgICAgICAgICAgICAgCiAgICAgICAgICAgICAgICAgICAgICAgICAgICAgICAgICAgICAgICAgICAgICAgICAgICAgICAgICAgICAgICAgICAgICAgICAgICAgICAgICAgICAgICAgICAgICAgICAgICAKICAgICAgICAgICAgICAgICAgICAgICAgICAgICAgICAgICAgICAgICAgICAgICAgICAgICAgPD94cGFja2V0IGVuZD0ndyc/Pv/bAEMABwUFBgUEBwYFBggHBwgKEQsKCQkKFQ8QDBEYFRoZGBUYFxseJyEbHSUdFxgiLiIlKCkrLCsaIC8zLyoyJyorKv/bAEMBBwgICgkKFAsLFCocGBwqKioqKioqKioqKioqKioqKioqKioqKioqKioqKioqKioqKioqKioqKioqKioqKioqKv/AABEIA0kFZwMBIgACEQEDEQH/xAAfAAABBQEBAQEBAQAAAAAAAAAAAQIDBAUGBwgJCgv/xAC1EAACAQMDAgQDBQUEBAAAAX0BAgMABBEFEiExQQYTUWEHInEUMoGRoQgjQrHBFVLR8CQzYnKCCQoWFxgZGiUmJygpKjQ1Njc4OTpDREVGR0hJSlNUVVZXWFlaY2RlZmdoaWpzdHV2d3h5eoOEhYaHiImKkpOUlZaXmJmaoqOkpaanqKmqsrO0tba3uLm6wsPExcbHyMnK0tPU1dbX2Nna4eLj5OXm5+jp6vHy8/T19vf4+fr/xAAfAQADAQEBAQEBAQEBAAAAAAAAAQIDBAUGBwgJCgv/xAC1EQACAQIEBAMEBwUEBAABAncAAQIDEQQFITEGEkFRB2FxEyIygQgUQpGhscEJIzNS8BVictEKFiQ04SXxFxgZGiYnKCkqNTY3ODk6Q0RFRkdISUpTVFVWV1hZWmNkZWZnaGlqc3R1dnd4eXqCg4SFhoeIiYqSk5SVlpeYmZqio6Slpqeoqaqys7S1tre4ubrCw8TFxsfIycrS09TV1tfY2dri4+Tl5ufo6ery8/T19vf4+fr/2gAMAwEAAhEDEQA/APpGiiigAooooAKKKKACiiigAooooAKKKKACiiigAooooAKKKKACiiigAooooAKKKKACiiigAooooAKKKKACiiigAooooAKKKKACiiigAooooAKKKKACiiigAooooAKKKKACiiigAooooAKKKKACiiigAooooAKKKKACiiigAooooAKKKKACiiigAooooAKKKKACiiigAooooAKKKKACiiigAooooAKKKKACiiigAooooAKKKKACiiigAooooAKKKKACiiigAooooAKKKKACiiigAooooAKKKKACiiigAooooAKKKKACiiigAooooAKKKKACiiigAooooAKKKKACiiigAooooAKKKKACiiigAooooAKKKKACiiigAooooAKKKKACiiigAooooAKKKKACiiigAooooAKKKKACiiigAooooAKKKKACiiigAooooAKKKKACiiigAooooAKKKKACiiigAooooAKKKKACiiigAooooAKKKKACiiigAooooAKKKKACiiigAooooAKKKKACiiigAooooAKKKKACiiigAooooAKKKKACiiigAooooAKKKKACiiigAooooAKKKKACiiigAooooAKKKKACiiigAooooAKKKKACiiigAooooAKKKKACiiigAooooAKKKKACiiigAooooAKKKKACiiigAooooAKKKKACiiigAooooAKKKKACiiigAooooAKKKKACiiigAooooAKKKKACiiigAooooAKKKKACiiigAooooAKKKKACiiigAooooAKKKKACiiigAooooAKKKKACiiigAooooAKKKKACiiigAooooAKKKKACiiigAooooAKKKKACiiigAooooAKKKKACiiigAooooAKKKKACiiigAooooAKKKKACiiigAooooAKKKKACiiigAooooAKKKKACiiigAooooAKKKKACiiigAooooAKKKKACiiigAooooAKKKKACiiigAooooAKKKKACiiigAooooAKKKKACiiigAooooAKKKKACiiigAooooAKKKKACiiigAooooAKKKKACiiigAooooAKKKKACiiigAooooAKKKKACiiigAooooAKKKKACiiigAooooAKKKKACiiigAooooAKKKKACiiigAooooAKKKKACiiigAooooAKKKKACiiigAooooAKKKKACiiigAooooAKKKKACiiigAooooAKKKKACiiigAooooAKKKKACiiigAooooAKKKKACiiigAooooAKKKKACiiigAooooAKKKKACiiigAooooAKKKKACiiigAooooAKKKKACiiigAooooAKKKKACiiigAooooAKKKKACiiigAooooAKKKKACiiigAooooAKKKKACiiigAooooAKKKKACiiigAooooAKpavqtvo2my3l2wWOMZ5NXa8r+NN/JHDp9irEJLukYDvj/APWPyrswOG+tYmFG+/8Aw7OXGV/q9CVXsYOt/FfWby5caUwtIAflOPmPv6fzrG/4WH4r/wCgzN/3yv8AhXNUV+kU8twdOPKqS+aT/M+Enj8VOXM6j+Tt+R0v/Cw/Ff8A0GZv++V/wo/4WH4r/wCgzN/3yv8AhXNUVf1DCf8APqP/AICv8iPrmJ/5+S+9nS/8LD8V/wDQZm/75X/Cj/hYfiv/AKDM3/fK/wCFc1RR9Qwn/PqP/gK/yD65if8An5L72dL/AMLD8V/9Bmb/AL5X/Cj/AIWH4r/6DM3/AHyv+Fc1RR9Qwn/PqP8A4Cv8g+uYn/n5L72dL/wsPxX/ANBmb/vlf8KP+Fh+K/8AoMzf98r/AIVzVFH1DCf8+o/+Ar/IPrmJ/wCfkvvZ0v8AwsPxX/0GZv8Avlf8KP8AhYfiv/oMzf8AfK/4VzVFH1DCf8+o/wDgK/yD65if+fkvvZ0v/Cw/Ff8A0GZv++V/wo/4WH4r/wCgzN/3yv8AhXNUUfUMJ/z6j/4Cv8g+uYn/AJ+S+9nS/wDCw/Ff/QZm/wC+V/wo/wCFh+K/+gzN/wB8r/hXNUUfUMJ/z6j/AOAr/IPrmJ/5+S+9nS/8LD8V/wDQZm/75X/Cj/hYfiv/AKDM3/fK/wCFc1RR9Qwn/PqP/gK/yD65if8An5L72dL/AMLD8V/9Bmb/AL5X/Cj/AIWH4r/6DM3/AHyv+Fc1RR9Qwn/PqP8A4Cv8g+uYn/n5L72dL/wsPxX/ANBmb/vlf8KP+Fh+K/8AoMzf98r/AIVzVFH1DCf8+o/+Ar/IPrmJ/wCfkvvZ0v8AwsPxX/0GZv8Avlf8KP8AhYfiv/oMzf8AfK/4VzVFH1DCf8+o/wDgK/yD65if+fkvvZ0v/Cw/Ff8A0GZv++V/wo/4WH4r/wCgzN/3yv8AhXNUUfUMJ/z6j/4Cv8g+uYn/AJ+S+9nS/wDCw/Ff/QZm/wC+V/wo/wCFh+K/+gzN/wB8r/hXNUUfUMJ/z6j/AOAr/IPrmJ/5+S+9nS/8LD8V/wDQZm/75X/Cj/hYfiv/AKDM3/fK/wCFc1RR9Qwn/PqP/gK/yD65if8An5L72dL/AMLD8V/9Bmb/AL5X/Cj/AIWH4r/6DM3/AHyv+Fc1RR9Qwn/PqP8A4Cv8g+uYn/n5L72dL/wsPxX/ANBmb/vlf8KP+Fh+K/8AoMzf98r/AIVzVFH1DCf8+o/+Ar/IPrmJ/wCfkvvZ0v8AwsPxX/0GZv8Avlf8KP8AhYfiv/oMzf8AfK/4VzVFH1DCf8+o/wDgK/yD65if+fkvvZ0v/Cw/Ff8A0GZv++V/wo/4WH4r/wCgzN/3yv8AhXNUUfUMJ/z6j/4Cv8g+uYn/AJ+S+9nS/wDCw/Ff/QZm/wC+V/wo/wCFh+K/+gzN/wB8r/hXNUUfUMJ/z6j/AOAr/IPrmJ/5+S+9nS/8LD8V/wDQZm/75X/Cj/hYfiv/AKDM3/fK/wCFc1RR9Qwn/PqP/gK/yD65if8An5L72dL/AMLD8V/9Bmb/AL5X/Cj/AIWH4r/6DM3/AHyv+Fc1RR9Qwn/PqP8A4Cv8g+uYn/n5L72dL/wsPxX/ANBmb/vlf8KP+Fh+K/8AoMzf98r/AIVzVFH1DCf8+o/+Ar/IPrmJ/wCfkvvZ0v8AwsPxX/0GZv8Avlf8KP8AhYfiv/oMzf8AfK/4VzVFH1DCf8+o/wDgK/yD65if+fkvvZ0v/Cw/Ff8A0GZv++V/wo/4WH4r/wCgzN/3yv8AhXNUUfUMJ/z6j/4Cv8g+uYn/AJ+S+9nS/wDCw/Ff/QZm/wC+V/wo/wCFh+K/+gzN/wB8r/hXNUUfUMJ/z6j/AOAr/IPrmJ/5+S+9nS/8LD8V/wDQZm/75X/Cj/hYfiv/AKDM3/fK/wCFc1RR9Qwn/PqP/gK/yD65if8An5L72dL/AMLD8V/9Bmb/AL5X/Cj/AIWH4r/6DM3/AHyv+Fc1RR9Qwn/PqP8A4Cv8g+uYn/n5L72dL/wsPxX/ANBmb/vlf8KP+Fh+K/8AoMzf98r/AIVzVFH1DCf8+o/+Ar/IPrmJ/wCfkvvZ0v8AwsPxX/0GZv8Avlf8KP8AhYfiv/oMzf8AfK/4VzVFH1DCf8+o/wDgK/yD65if+fkvvZ0v/Cw/Ff8A0GZv++V/wo/4WH4r/wCgzN/3yv8AhXNUUfUMJ/z6j/4Cv8g+uYn/AJ+S+9nS/wDCw/Ff/QZm/wC+V/wo/wCFh+K/+gzN/wB8r/hXNUUfUMJ/z6j/AOAr/IPrmJ/5+S+9nS/8LD8V/wDQZm/75X/Cj/hYfiv/AKDM3/fK/wCFc1RR9Qwn/PqP/gK/yD65if8An5L72dL/AMLD8V/9Bmb/AL5X/Cj/AIWH4r/6DM3/AHyv+Fc1RR9Qwn/PqP8A4Cv8g+uYn/n5L72dL/wsPxX/ANBmb/vlf8KP+Fh+K/8AoMzf98r/AIVzVFH1DCf8+o/+Ar/IPrmJ/wCfkvvZ0v8AwsPxX/0GZv8Avlf8KP8AhYfiv/oMzf8AfK/4VzVFH1DCf8+o/wDgK/yD65if+fkvvZ0v/Cw/Ff8A0GZv++V/wo/4WH4r/wCgzN/3yv8AhXNUUfUMJ/z6j/4Cv8g+uYn/AJ+S+9nS/wDCw/Ff/QZm/wC+V/wo/wCFh+K/+gzN/wB8r/hXNUUfUMJ/z6j/AOAr/IPrmJ/5+S+9nS/8LD8V/wDQZm/75X/Cj/hYfiv/AKDM3/fK/wCFc1RR9Qwn/PqP/gK/yD65if8An5L72dL/AMLD8V/9Bmb/AL5X/Cj/AIWH4r/6DM3/AHyv+Fc1RR9Qwn/PqP8A4Cv8g+uYn/n5L72dL/wsPxX/ANBmb/vlf8KP+Fh+K/8AoMzf98r/AIVzVFH1DCf8+o/+Ar/IPrmJ/wCfkvvZ0v8AwsPxX/0GZv8Avlf8KP8AhYfiv/oMzf8AfK/4VzVFH1DCf8+o/wDgK/yD65if+fkvvZ0v/Cw/Ff8A0GZv++V/wo/4WH4r/wCgzN/3yv8AhXNUUfUMJ/z6j/4Cv8g+uYn/AJ+S+9nS/wDCw/Ff/QZm/wC+V/wo/wCFh+K/+gzN/wB8r/hXNUUfUMJ/z6j/AOAr/IPrmJ/5+S+9nS/8LD8V/wDQZm/75X/Cj/hYfiv/AKDM3/fK/wCFc1RR9Qwn/PqP/gK/yD65if8An5L72dL/AMLD8V/9Bmb/AL5X/Cj/AIWH4r/6DM3/AHyv+Fc1RR9Qwn/PqP8A4Cv8g+uYn/n5L72dL/wsPxX/ANBmb/vlf8KP+Fh+K/8AoMzf98r/AIVzVFH1DCf8+o/+Ar/IPrmJ/wCfkvvZ0v8AwsPxX/0GZv8Avlf8KP8AhYfiv/oMzf8AfK/4VzVFH1DCf8+o/wDgK/yD65if+fkvvZ0v/Cw/Ff8A0GZv++V/wo/4WH4r/wCgzN/3yv8AhXNUUfUMJ/z6j/4Cv8g+uYn/AJ+S+9nS/wDCw/Ff/QZm/wC+V/wo/wCFh+K/+gzN/wB8r/hXNUUfUMJ/z6j/AOAr/IPrmJ/5+S+9nS/8LD8V/wDQZm/75X/Cj/hYfiv/AKDM3/fK/wCFc1RR9Qwn/PqP/gK/yD65if8An5L72dL/AMLD8V/9Bmb/AL5X/Cj/AIWH4r/6DM3/AHyv+Fc1RR9Qwn/PqP8A4Cv8g+uYn/n5L72dL/wsPxX/ANBmb/vlf8KP+Fh+K/8AoMzf98r/AIVzVFH1DCf8+o/+Ar/IPrmJ/wCfkvvZ0v8AwsPxX/0GZv8Avlf8KP8AhYfiv/oMzf8AfK/4VzVFH1DCf8+o/wDgK/yD65if+fkvvZ0v/Cw/Ff8A0GZv++V/wo/4WH4r/wCgzN/3yv8AhXNUUfUMJ/z6j/4Cv8g+uYn/AJ+S+9nS/wDCw/Ff/QZm/wC+V/wo/wCFh+K/+gzN/wB8r/hXNUUfUMJ/z6j/AOAr/IPrmJ/5+S+9nS/8LD8V/wDQZm/75X/Cj/hYfiv/AKDM3/fK/wCFc1RR9Qwn/PqP/gK/yD65if8An5L72dL/AMLD8V/9Bmb/AL5X/Cj/AIWH4r/6DM3/AHyv+Fc1RR9Qwn/PqP8A4Cv8g+uYn/n5L72dL/wsPxX/ANBmb/vlf8KP+Fh+K/8AoMzf98r/AIVzVFH1DCf8+o/+Ar/IPrmJ/wCfkvvZ0v8AwsPxX/0GZv8Avlf8KP8AhYfiv/oMzf8AfK/4VzVFH1DCf8+o/wDgK/yD65if+fkvvZ0v/Cw/Ff8A0GZv++V/wo/4WH4r/wCgzN/3yv8AhXNUUfUMJ/z6j/4Cv8g+uYn/AJ+S+9nS/wDCw/Ff/QZm/wC+V/wo/wCFh+K/+gzN/wB8r/hXNUUfUMJ/z6j/AOAr/IPrmJ/5+S+9nS/8LD8V/wDQZm/75X/Cj/hYfiv/AKDM3/fK/wCFc1RR9Qwn/PqP/gK/yD65if8An5L72dL/AMLD8V/9Bmb/AL5X/Cj/AIWH4r/6DM3/AHyv+Fc1RR9Qwn/PqP8A4Cv8g+uYn/n5L72dL/wsPxX/ANBmb/vlf8KP+Fh+K/8AoMzf98r/AIVzVFH1DCf8+o/+Ar/IPrmJ/wCfkvvZ0v8AwsPxX/0GZv8Avlf8KP8AhYfiv/oMzf8AfK/4VzVFH1DCf8+o/wDgK/yD65if+fkvvZ0v/Cw/Ff8A0GZv++V/wo/4WH4r/wCgzN/3yv8AhXNUUfUMJ/z6j/4Cv8g+uYn/AJ+S+9nS/wDCw/Ff/QZm/wC+V/wo/wCFh+K/+gzN/wB8r/hXNUUfUMJ/z6j/AOAr/IPrmJ/5+S+9nS/8LD8V/wDQZm/75X/Cj/hYfiv/AKDM3/fK/wCFc1RR9Qwn/PqP/gK/yD65if8An5L72dL/AMLD8V/9Bmb/AL5X/Cj/AIWH4r/6DM3/AHyv+Fc1RR9Qwn/PqP8A4Cv8g+uYn/n5L72dL/wsPxX/ANBmb/vlf8KP+Fh+K/8AoMzf98r/AIVzVFH1DCf8+o/+Ar/IPrmJ/wCfkvvZ0v8AwsPxX/0GZv8Avlf8KP8AhYfiv/oMzf8AfK/4VzVFH1DCf8+o/wDgK/yD65if+fkvvZ0v/Cw/Ff8A0GZv++V/wo/4WH4r/wCgzN/3yv8AhXNUUfUMJ/z6j/4Cv8g+uYn/AJ+S+9nS/wDCw/Ff/QZm/wC+V/wo/wCFh+K/+gzN/wB8r/hXNUUfUMJ/z6j/AOAr/IPrmJ/5+S+9nS/8LD8V/wDQZm/75X/Cj/hYfiv/AKDM3/fK/wCFc1RR9Qwn/PqP/gK/yD65if8An5L72dL/AMLD8V/9Bmb/AL5X/Cj/AIWH4r/6DM3/AHyv+Fc1RR9Qwn/PqP8A4Cv8g+uYn/n5L72dL/wsPxX/ANBmb/vlf8KP+Fh+K/8AoMzf98r/AIVzVFH1DCf8+o/+Ar/IPrmJ/wCfkvvZ0v8AwsPxX/0GZv8Avlf8KP8AhYfiv/oMzf8AfK/4VzVFH1DCf8+o/wDgK/yD65if+fkvvZ0v/Cw/Ff8A0GZv++V/wo/4WH4r/wCgzN/3yv8AhXNUUfUMJ/z6j/4Cv8g+uYn/AJ+S+9nS/wDCw/Ff/QZm/wC+V/wpV+InioMCdYmb2Kr/AIVzNFH1DCf8+o/+Ar/IPruK/wCfkvvZ6p4T+K9w93Haa8FYOQqzLxz7/wCcV61HIssavGcqwyDXyjX0R8Ob+TUfBFnNMxZlzGSe+04r5HPstpYZRr0VZN2aPpsmx9Su3Squ7SumdRRRRXyx9EFFFFABRRRQAUUUUAFFFFABXkHxt/5COk/9cpP5rXr9eQfG3/kI6T/1yk/mtezkf/Iwp/P/ANJZ5Wb/AO5T+X5o8uooor9KPggooooAKKKKACiiigAooooAKKKKACiiigAooooAKKKKACiiigAooooAKKKKACiiigAooooAKKKKACiiigAooooAKKKKACiiigAooooAKKKKACiiigAooooAKKKKACiiigAooooAKKKKACiiigAooooAKKKKACiiigApQCSABknoBSV6dp1hB4D+HqeIpIY5dav9otWkXPkBhkEA99uT+lcmKxKw6ikryk7Jd3/l3OjD4d15NXskrt9kcJ/wjWuiLzf7F1Hy8Z3/AGR8Y9c4qh5Ewt/PMT+Tv2eZtO3djOM9M47Vdl8QaxNeG6l1S8M+c+Z57Aj6c8fhW9rXiZde8B20N4YhqVvfZkKgK06lD+8IHU8AE/T1pOpiIOPNFNN62vp/mUoUJJ8rasuvX/I5CirVlpd/qTMunWNzdlPvCCFn2/XApl3Y3enzeTf2s1rLjOyaMo2PXBrq5483LfU5+WXLzW0L1r4Y1q80ubUoNOmNnBGZHncBF2gZJBON34ZrKr0vwRdTz/DXxXHNM8iRWxEas2do8thgeg4FebRxvLIscSs7scKqjJJ9AK5MPiJ1KlWE7e67fhc6KtKEaVOpG/vX/B2Luk6HqeuXHk6TZS3TjqUHyr9WPA/E1VubeW0upba4XZNC5jkXIOGBwRke9ehfDKy17SvF9vFe2moWllMkmUmidI2bbnOCMZ4H5VH4SsLPUPjFfrfqriK4uJYkfozhzjjvjJP4VzTzB06lS9nGMebTfr/kbQwinTg1dScuXXbZf5nHp4b1ySETR6NqDRMMh1tXKkeucVRlt54FQzwyRh87S6kbsHBxnryCPwrqPEureLdH8VXD6hfXttceYWj2ysIyueNo6Ffb8+c0njDXJPFn9iXCgS3rWvlSxRDJ8wSMPujpng4963p160nByScZdU9tL/0xVKFGKnFNqUejW+qX67HJ0V3GqfDzUNN8H2M4064uNUuJy0qQI0hhj28KQuR15z74rjbe0ubu5Fva28s05OBFGhZj+A5rejiqVeLlB3S/T9Dnq4erSaU1uQ0VdvdH1PTUV9R067tFY4Vp4GQE+2RUNpY3d/KY7G1muZAMlIYy5A9cCtlODjzJ6GThJPla1IKKtPpl/HYLfPZXK2jHC3BiYRk+zYxU9v4e1q7t1ntdIv54WGVkjtnZSPYgYpOrTSu5IapzbskZ1FOkjeKRo5UZHU4ZWGCD6EVdtND1bUIPOsNLvbmLOPMht3dfzApynGKvJ2QlGUnZLUoUU+WGSCZop42jkQ4ZHUgqfcGrFlpWoalu/s6wurvZ97yIWfb9cCm5RS5m9BKMm+VLUqVbstJ1HUt39nWF1d7PveRCz7frgVFdWdzY3BgvbeW2mHJjmQow/A16d49s9U0bwzpCeGmmi0SKAGWS1Ygs553uRyQeuemfwrixGK9nOnTha872b20/rQ66GG9opyle0Vqlv/Xc83uNI1K0Zlu9PuoGRN7CWFlKrkDJyOmSBn3qnXZ6d4zvbvwfrOi6xeNOrW4e2knfL7g65TJ5OQc49jXHxRSTyrFBG0kjnCoi5LH0AFa0KlWXMqqSs+mzVtzOtTpqMZU3e/foMoq9eaJq2nw+df6ZeWsWcb57d0XP1IqC3sbu6jlktbWaZIV3ytHGWEa+rEdB7mtlUg1zJ6GLhJOzWpBRWlH4d1uZI2h0e/kWVd0ZW1chx6jjkc1Fe6LqmmxLLqOm3lpGzbVeeBkBPpkjrxSVWm3ZSV/Ufs52vZ2KVacvh3VYNBi1qWzZdPlbak+5eTkjpnI5B5IqOTQtXhsvtkulXsdrtD+e1u4Taeh3YxjmlkOrtocYlN8dKWT93u3+QH56fw56/rUSqOVvZyW+v+S8y4wtfnT20/z9DPoqa1s7m+nEFjbzXMpGRHChdj+AqW90vUNMKDUrG5tC/wB0TwtHu+mRzWvPHm5b6mfLJrmtoVKKsWen3moymLT7Se6kAyUgiLkD6AUt7p17psix6jZ3Fo7DIWeJkJHrgijnjzct9Q5ZW5raFaiiiqJCiiigAooooAKKKKACiiigAooooAKKKKACiiigAooooAKKKKACiiigAooooAKKKKACiiigAooooAKKKKACiiigAooooAKKKKACiiigAooooAKKKKACiiigAooooAKKKKACiiigAooooAKKKKACiiigAooooAKKKKACvffhR/yT+1/66y/+hGvAq99+FH/JP7X/AK6y/wDoRr5riT/dI/4l+TPfyH/eZf4X+aOzooor4E+zCiiigAooooAKKKKACiiigAryD42/8hHSf+uUn81r1+vIPjb/AMhHSf8ArlJ/Na9nI/8AkYU/n/6Szys3/wByn8vzR5dRRRX6UfBBRRRQAUUUUAFFFFABRRRQAUUUUAFFFFABRRRQAUUUUAFFFFABRRRQAUUUUAFFFFABRRRQAUUUUAFFFFABRRRQAUUUUAFFFFABRRRQAUUUUAFFFFABRRRQAUUUUAFFFFABRRRQAUUUUAFFFFABRRRQAUUUUAFFFFABXr3xYIm8D6LNAQYTImCOmDGcV5DXoXhzxZpWqeFG8KeLnaGAAC2vAM+Xg5UH0weh6Y4OK8nMaU/aUsRFX5HqlvZ9fkelgakEqlGTtzqyfn0PPadHGZZUjX7zsFGfU11Fz4ISKZvs/ifQJoOqyG+CnHuvJz7DNZupSabY2qWOkut3KHEk1+Y9u5h0SMHkKM8k4LH0AFdscTCpZU9fk9PX/Lc5J4epBPn0Ov8AiQZPDNvpPh/SZJLa1jt/Nl8ptpmcnG5sdTxn8at6VJ/wmfwn1KPVm8+90nc8Fw5y+Au4ZJ9cFfp9Kg1+/wBM+IXhyxuRqVnp+s2SlZYbyURLID12seOoyPqc1mf2pa+E/A17otte297qWqN++a1bfHDFjGN44YkZ6dM/n4EKcpYaFO1q0Za6a76u/Zr79j25TjHEOon+6ce/Tl2t3v8A5l3wH/yTrxf/ANe5/wDRb0zwdZLpHgDWvFMSg3yA29q5/wCWOcAsPf5v09zVnwTHaWvgPXLa81bTLa41OErBFLexgj5CAW+b5eT0PIqLwRrelwaPqfhHxLcRwQ3LN5dwsitGCQARvGR1AIOcU67k3X5Fdc0W0usUle3fzM8MoxjQ9pppLfo221/miH4T6vff8JqbZ7mWSK7jdpVdydzAZ3c9+OvvXN6nLe23jbVLvTPNWe1vZphJECTGBIfmPt9eOa6/whpOk+FfGcV1eeKNKniCSCIwTZyNp5c/dT6ZJJqtpM/h6Hx9rMt3q0U2m3ltc+ZLsZAN7/dXPLHHoPpW3toLE1KtOLacF0eur8uxlGlN4eNKpJJ8/daKy8+/+ZraT8SNH8R2a6X44sohu4FxtzGT0ye6H3H6Vznj3wUnhWa3v9JuGl0+5b92xbLRtjIG4dQRyD7fjVWfwVbtc/8AEv8AFGhy2rH5JJrwROB/tIeQau+OPEFjLoOleGtKuftsWnKDLdAYV3C7QF9uT+lFGlCliYfU2+WV+aOtlpvrs79C6lSdShJYpK6Xuy0vftpuavjO4mT4W+F5EmkV2VdzBiCfk7moWgk8LfB+C/sC0V9q86ia4Th1jO4hQw5Awo/M1YvptF8RfDXRIJdbtLJ9OA+0QyP+9IAKkKnUn07c1W0PXNJ1/wADT+FNWvEsZYWLWNzckBSASVDN0BHIPseK5oKUaKXK7RqNyVntd/fbRmzcXVUuZa07Rd/tW/DsSfC/VJNZnvvDess15Y3NuXVJmLbCCAcZ6dc+xGa0PhjNc2PiLXNDedpbOyWRUjOACVkxnjueawvDTWfgS5u9XvtSsL258lobW1spxMXYkfMxXhV4788mr/wxuYLfUdS1bWdV0+2+2xsoE13GrsxfJJUnIHHejG01KFecF7rUbecurXy3aFhZyi6MJP3lJ/KOm/kc5dfEDWL7T2069FvNYNMkn2fygoCKwIjBH8PA9/et6W71rxF4s0zxE0S6HZI0aW4ubnaHAIyqDALbv9lcVyFrb2+i+K7NdUktrq1huEeV7eVZo3TdzypOeO3X2ruPFlvot34uh8Qv4ps5LNTEVt4W82VSuPlCg8KcE5OMZPFdmIjQpzjGlCyaeqTe9tLLS77s5aUq1SE3Ule1tLpbXe76Ly7mf8Tra0HxMgFxiOCdIWuGHHG4gn8hUvxUnvNL8UacunySWtpb2qNaCI7UQgkErjjOMfhik+J8miajrsF9baxDctIkcWy2IkEagnczEHryMDr1rp9R05RJaWWl+MNMs4bSNBb2l9BFLLGdud2ZMsCc56DA+lcVOqqVPDzn0i1Zp26eT9NtjtqU3Uq14x6tO6a/zX59jM+KetX/APZ+j2CXPlf2hb7ru2wOuVK54yOd3T0qh43Sx0G8sNFj1TUtPgtbZHSKztVZXYk5kLeahLEj04rM8Y+E9XtoZNfuNYg1mPeqy3EUmWjJOBx0AzxwfwrpLy58L/EbQ7SbUtVg0fV7ZAjvMyr9RhiAy55GDkZopKnQpUZQd4Jy5nFbN7XTV9Ntr2FUc6tWpGekmly8z3S31Ttrv6nO+L/F2keIvDNhaIt7PqdmVBvLiFE8xcYbOHY8nB/CpPC3xE1LwqBpWs2slzZR/L5Mg2ywg9hnqOeh/MVk+I7bQdGsRpej3i6tdtIJLi+CAIoAOETr1zkkE9B+HQeLdG0PxDqX27RfEWmxXXlotzDczeWrMFAyrng8YHpx1rscML7KNGcH7OV3dp6ba/3U7u234nNzYj2jqRmlOKS0a13083t/SNTWfCHh3xlos+teDXWK6jBZ7dBtViOSpT+FvTHB/WsTwraQad8OdW11p5rW4kmW1W5t4hJJCny52gsuMlsE59KsaBeWPw+0bUriXVrLUNRvYxHBa2MvmquM4Z2HA6//AK81X+H3iPSItLvvDfiUhLG9O5JXPyqxABBP8PQEHsRXNy140Jxi3OnGUbd2vtLXexvzUZVqcppRm1K/ZO3ut9v6ZJ4a8aaJotje2Op3eravZ3a7fJmtUATrnGZm65/StP4f6xOfBPiTzz9qtbG3LQQTAbduxvlOPXAzWTd+G/CHhyRtRk8RQ6ykZLQafDsYyN/CHZWI2+vAz+lXfAyWsHg/XoL/AFbS7OXVYCkCSXkYK5Rhllz8v3hx19qWJjh50J1Kab5nHdW2etlZbLdpBQdeFenTm1pzbO+jT3d3o3ayZzN78QvEV/Z20FxeDNtOJ0mRAr7hnAJHGBk8Yro/iPH/AMJF4b0bxXZ5KPH5M6A5EbZ/o24flXnd1bNaXUkEjxOyHBaGRZFP0ZSQa7z4e+KNPsdD1PStfMbWsa/a4EkP33Ug7BnuSFIH1rvxWHjQUMRhoaxey6p7/wCZx4avOrKVCvLSStd9GtUZHia5m0bTtL8OwysGs0FzdLnjz3+bBHQ7Rgfia6PxBqFzqfwQ0u6vpDLM13tZz1OGkA/QCvOb27n1PUpru5bdNcSF3JOBkn36CvRdRt7ZvhDY6NFq+lSX9vMZpIVv4s4LOcA7sEjcO9RiaUaSoc3xc92/W936X/Q1wtTnnWUduRpfp8/+CVNWik8L/C7SP7MZoZ9Xbzbq4j4ZlxlUz2HI49j6msY+N5ZvAsnhy+sxdNv3RXckpLRc56EfUdRwa6XQtX0LxX4Ej8N+Ir6PTrqz/wCPe4lYKuBnaQTgcA4IJ5HT25/V9M8PeGtPuIrXVYdd1G4Ty4zFGDFbqTy2ckFuMDB4zn0qKHI5OlXg3UU7rR666O+1kvPpaw6nOoRq0JJR5bPVad1bu/Q2Nct7PQPBugWRv73T1vIDcztZ26yee5Cn5mMiHC5wBzVbVfGOj6j4BGh3L6jf30JDW95cQIhU7s8/vGP3cjvWrpmp+HPGngq10bxDfR6bqGnqEiuJWCjAGAQW4ORgEE9q5vXNN8O+G9MntrHVItc1G5AUTRoPKt0yCSCCQWOMcHgE9O+dBRlNUqyl7SMm9vPe9trd35di5uUYKpSa5HFJ67aaq1979l/mcjRRRX0h4IUUUUAFFFFABRRRQAUUUUAFFFFABRRRQAUUUUAFFFFABRRRQAUUUUAFFFFABRRRQAUUUUAFFFFABRRRQAUUUUAFFFFABRRRQAUUUUAFFFFABRRRQAUUUUAFFFFABRRRQAUUUUAFFFFABRRRQAUUUUAFFFFABRRRQAV778KP+Sf2v/XWX/0I14FXvvwo/wCSf2v/AF1l/wDQjXzXEn+6R/xL8me/kP8AvMv8L/NHZ0UUV8CfZhRRRQAUUUUAFFFFABRRRQAV5B8bf+QjpP8A1yk/mtev15B8bf8AkI6T/wBcpP5rXs5H/wAjCn8//SWeVm/+5T+X5o8uooor9KPggooooAKKKKACiiigAooooAKKKKACiiigAooooAKKKKACiiigAooooAKKKKACiiigAooooAKKKKACiiigAooooAKKKKACiiigAooooAKKKKACiiigAooooAKKKKACiiigAooooAKKKKACiiigAooooAKKKKACiiigAooooAKKKKACiiigAooooAKKKKACiiigAooooAKKKKACiiigDT8O6jbaR4isr++tvtUFvJvaLjJ9CM9wcH8K6rWbTwLrV9NqMHia6sJblzLJFNZSS7STkgYA/ma4KiuSrhVUqKrGbi7W0tt6NNHTSxDhB03FST11v+aaZ0epalpFhpNxpPhs3FxHdMhury5AUyBDlVRB0GecnmucoorelSVNWWt9292ZVKjqO7VrdEFFFFaGYUUUUAFFFFABRRRQAUUUUAFFFFABRRRQAUUUUAFFFFABRRRQAUUUUAFFFFABRRRQAUUUUAFFFFABRRRQAUUUUAFFFFABRRRQAUUUUAFFFFABRRRQAUUUUAFFFFABRRRQAUUUUAFFFFABRRRQAUUUUAFFFFABRRRQAUUUUAFFFFABRRRQAUUUUAFFFFABRRRQAUUUUAFe+/Cj/kn9r/11l/8AQjXgVe+/Cj/kn9r/ANdZf/QjXzXEn+6R/wAS/Jnv5D/vMv8AC/zR2dFFFfAn2YUUUUAFFFFABRRRQAUUUUAFeQfG3/kI6T/1yk/mtev15X8X9K1HU9R0z+zbC6vPLiff9nhaTbkjGcDjOD+VevkslHH03J2Wv5M8zNouWCmku35o8jorW/4RTxD/ANAHU/8AwDk/wo/4RTxD/wBAHU//AADk/wAK/RvrFH+dfej4X2NX+V/cZNFa3/CKeIf+gDqf/gHJ/hR/winiH/oA6n/4Byf4UfWKP86+9B7Gr/K/uMmitb/hFPEP/QB1P/wDk/wo/wCEU8Q/9AHU/wDwDk/wo+sUf5196D2NX+V/cZNFa3/CKeIf+gDqf/gHJ/hR/wAIp4h/6AOp/wDgHJ/hR9Yo/wA6+9B7Gr/K/uMmitb/AIRTxD/0AdT/APAOT/Cj/hFPEP8A0AdT/wDAOT/Cj6xR/nX3oPY1f5X9xk0Vrf8ACKeIf+gDqf8A4Byf4Uf8Ip4h/wCgDqf/AIByf4UfWKP86+9B7Gr/ACv7jJorW/4RTxD/ANAHU/8AwDk/wo/4RTxD/wBAHU//AADk/wAKPrFH+dfeg9jV/lf3GTRWt/winiH/AKAOp/8AgHJ/hR/winiH/oA6n/4Byf4UfWKP86+9B7Gr/K/uMmitb/hFPEP/AEAdT/8AAOT/AAo/4RTxD/0AdT/8A5P8KPrFH+dfeg9jV/lf3GTRWt/winiH/oA6n/4Byf4Uf8Ip4h/6AOp/+Acn+FH1ij/OvvQexq/yv7jJorW/4RTxD/0AdT/8A5P8KP8AhFPEP/QB1P8A8A5P8KPrFH+dfeg9jV/lf3GTRWt/winiH/oA6n/4Byf4Uf8ACKeIf+gDqf8A4Byf4UfWKP8AOvvQexq/yv7jJorW/wCEU8Q/9AHU/wDwDk/wo/4RTxD/ANAHU/8AwDk/wo+sUf5196D2NX+V/cZNFa3/AAiniH/oA6n/AOAcn+FH/CKeIf8AoA6n/wCAcn+FH1ij/OvvQexq/wAr+4yaK1v+EU8Q/wDQB1P/AMA5P8KP+EU8Q/8AQB1P/wAA5P8ACj6xR/nX3oPY1f5X9xk0Vrf8Ip4h/wCgDqf/AIByf4Uf8Ip4h/6AOp/+Acn+FH1ij/OvvQexq/yv7jJorW/4RTxD/wBAHU//AADk/wAKP+EU8Q/9AHU//AOT/Cj6xR/nX3oPY1f5X9xk0Vrf8Ip4h/6AOp/+Acn+FH/CKeIf+gDqf/gHJ/hR9Yo/zr70Hsav8r+4yaK1v+EU8Q/9AHU//AOT/Cj/AIRTxD/0AdT/APAOT/Cj6xR/nX3oPY1f5X9xk0Vrf8Ip4h/6AOp/+Acn+FH/AAiniH/oA6n/AOAcn+FH1ij/ADr70Hsav8r+4yaK1v8AhFPEP/QB1P8A8A5P8KP+EU8Q/wDQB1P/AMA5P8KPrFH+dfeg9jV/lf3GTRWt/wAIp4h/6AOp/wDgHJ/hR/winiH/AKAOp/8AgHJ/hR9Yo/zr70Hsav8AK/uMmitb/hFPEP8A0AdT/wDAOT/Cj/hFPEP/AEAdT/8AAOT/AAo+sUf5196D2NX+V/cZNFa3/CKeIf8AoA6n/wCAcn+FH/CKeIf+gDqf/gHJ/hR9Yo/zr70Hsav8r+4yaK1v+EU8Q/8AQB1P/wAA5P8ACj/hFPEP/QB1P/wDk/wo+sUf5196D2NX+V/cZNFa3/CKeIf+gDqf/gHJ/hR/winiH/oA6n/4Byf4UfWKP86+9B7Gr/K/uMmitb/hFPEP/QB1P/wDk/wo/wCEU8Q/9AHU/wDwDk/wo+sUf5196D2NX+V/cZNFa3/CKeIf+gDqf/gHJ/hR/wAIp4h/6AOp/wDgHJ/hR9Yo/wA6+9B7Gr/K/uMmitb/AIRTxD/0AdT/APAOT/Cj/hFPEP8A0AdT/wDAOT/Cj6xR/nX3oPY1f5X9xk0Vrf8ACKeIf+gDqf8A4Byf4Uf8Ip4h/wCgDqf/AIByf4UfWKP86+9B7Gr/ACv7jJorW/4RTxD/ANAHU/8AwDk/wo/4RTxD/wBAHU//AADk/wAKPrFH+dfeg9jV/lf3GTRWt/winiH/AKAOp/8AgHJ/hR/winiH/oA6n/4Byf4UfWKP86+9B7Gr/K/uMmitb/hFPEP/AEAdT/8AAOT/AAo/4RTxD/0AdT/8A5P8KPrFH+dfeg9jV/lf3GTRWt/winiH/oA6n/4Byf4Uf8Ip4h/6AOp/+Acn+FH1ij/OvvQexq/yv7jJorW/4RTxD/0AdT/8A5P8KP8AhFPEP/QB1P8A8A5P8KPrFH+dfeg9jV/lf3GTRWt/winiH/oA6n/4Byf4Uf8ACKeIf+gDqf8A4Byf4UfWKP8AOvvQexq/yv7jJorW/wCEU8Q/9AHU/wDwDk/wo/4RTxD/ANAHU/8AwDk/wo+sUf5196D2NX+V/cZNFa3/AAiniH/oA6n/AOAcn+FH/CKeIf8AoA6n/wCAcn+FH1ij/OvvQexq/wAr+4yaK1v+EU8Q/wDQB1P/AMA5P8KP+EU8Q/8AQB1P/wAA5P8ACj6xR/nX3oPY1f5X9xk0Vrf8Ip4h/wCgDqf/AIByf4Uf8Ip4h/6AOp/+Acn+FH1ij/OvvQexq/yv7jJorW/4RTxD/wBAHU//AADk/wAKP+EU8Q/9AHU//AOT/Cj6xR/nX3oPY1f5X9xk0Vrf8Ip4h/6AOp/+Acn+FH/CKeIf+gDqf/gHJ/hR9Yo/zr70Hsav8r+4yaK1v+EU8Q/9AHU//AOT/Cj/AIRTxD/0AdT/APAOT/Cj6xR/nX3oPY1f5X9xk0Vrf8Ip4h/6AOp/+Acn+FH/AAiniH/oA6n/AOAcn+FH1ij/ADr70Hsav8r+4yaK1v8AhFPEP/QB1P8A8A5P8KP+EU8Q/wDQB1P/AMA5P8KPrFH+dfeg9jV/lf3GTRWt/wAIp4h/6AOp/wDgHJ/hR/winiH/AKAOp/8AgHJ/hR9Yo/zr70Hsav8AK/uMmitb/hFPEP8A0AdT/wDAOT/Cj/hFPEP/AEAdT/8AAOT/AAo+sUf5196D2NX+V/cZNFa3/CKeIf8AoA6n/wCAcn+FH/CKeIf+gDqf/gHJ/hR9Yo/zr70Hsav8r+4yaK1v+EU8Q/8AQB1P/wAA5P8ACj/hFPEP/QB1P/wDk/wo+sUf5196D2NX+V/cZNFa3/CKeIf+gDqf/gHJ/hR/winiH/oA6n/4Byf4UfWKP86+9B7Gr/K/uMmitb/hFPEP/QB1P/wDk/wo/wCEU8Q/9AHU/wDwDk/wo+sUf5196D2NX+V/cZNFa3/CKeIf+gDqf/gHJ/hR/wAIp4h/6AOp/wDgHJ/hR9Yo/wA6+9B7Gr/K/uMmitb/AIRTxD/0AdT/APAOT/Cj/hFPEP8A0AdT/wDAOT/Cj6xR/nX3oPY1f5X9xk0Vrf8ACKeIf+gDqf8A4Byf4Uf8Ip4h/wCgDqf/AIByf4UfWKP86+9B7Gr/ACv7jJorW/4RTxD/ANAHU/8AwDk/wo/4RTxD/wBAHU//AADk/wAKPrFH+dfeg9jV/lf3GTRWt/winiH/AKAOp/8AgHJ/hR/winiH/oA6n/4Byf4UfWKP86+9B7Gr/K/uMmitb/hFPEP/AEAdT/8AAOT/AAo/4RTxD/0AdT/8A5P8KPrFH+dfeg9jV/lf3GTRWt/winiH/oA6n/4Byf4Uf8Ip4h/6AOp/+Acn+FH1ij/OvvQexq/yv7jJorW/4RTxD/0AdT/8A5P8KP8AhFPEP/QB1P8A8A5P8KPrFH+dfeg9jV/lf3GTRWt/winiH/oA6n/4Byf4Uf8ACKeIf+gDqf8A4Byf4UfWKP8AOvvQexq/yv7jJorW/wCEU8Q/9AHU/wDwDk/wo/4RTxD/ANAHU/8AwDk/wo+sUf5196D2NX+V/cZNFa3/AAiniH/oA6n/AOAcn+FH/CKeIf8AoA6n/wCAcn+FH1ij/OvvQexq/wAr+4yaK1v+EU8Q/wDQB1P/AMA5P8KP+EU8Q/8AQB1P/wAA5P8ACj6xR/nX3oPY1f5X9xk0Vrf8Ip4h/wCgDqf/AIByf4Uf8Ip4h/6AOp/+Acn+FH1ij/OvvQexq/yv7jJorW/4RTxD/wBAHU//AADk/wAKP+EU8Q/9AHU//AOT/Cj6xR/nX3oPY1f5X9xk0Vrf8Ip4h/6AOp/+Acn+FH/CKeIf+gDqf/gHJ/hR9Yo/zr70Hsav8r+4yaK1v+EU8Q/9AHU//AOT/Cj/AIRTxD/0AdT/APAOT/Cj6xR/nX3oPY1f5X9xk0Vrf8Ip4h/6AOp/+Acn+FH/AAiniH/oA6n/AOAcn+FH1ij/ADr70Hsav8r+4yaK1v8AhFPEP/QB1P8A8A5P8KP+EU8Q/wDQB1P/AMA5P8KPrFH+dfeg9jV/lf3GTRWt/wAIp4h/6AOp/wDgHJ/hR/winiH/AKAOp/8AgHJ/hR9Yo/zr70Hsav8AK/uMmitb/hFPEP8A0AdT/wDAOT/Cj/hFPEP/AEAdT/8AAOT/AAo+sUf5196D2NX+V/cZNFa3/CKeIf8AoA6n/wCAcn+FH/CKeIf+gDqf/gHJ/hR9Yo/zr70Hsav8r+4yaK1v+EU8Q/8AQB1P/wAA5P8ACj/hFPEP/QB1P/wDk/wo+sUf5196D2NX+V/cZNFa3/CKeIf+gDqf/gHJ/hR/winiH/oA6n/4Byf4UfWKP86+9B7Gr/K/uMmitb/hFPEP/QB1P/wDk/wo/wCEU8Q/9AHU/wDwDk/wo+sUf5196D2NX+V/cZNFa3/CKeIf+gDqf/gHJ/hR/wAIp4h/6AOp/wDgHJ/hR9Yo/wA6+9B7Gr/K/uMmitb/AIRTxD/0AdT/APAOT/Cj/hFPEP8A0AdT/wDAOT/Cj6xR/nX3oPY1f5X9xk0Vrf8ACKeIf+gDqf8A4Byf4Uf8Ip4h/wCgDqf/AIByf4UfWKP86+9B7Gr/ACv7jJorW/4RTxD/ANAHU/8AwDk/wo/4RTxD/wBAHU//AADk/wAKPrFH+dfeg9jV/lf3GTRWt/winiH/AKAOp/8AgHJ/hR/winiH/oA6n/4Byf4UfWKP86+9B7Gr/K/uMmvffhR/yT+1/wCusv8A6Ea8Y/4RTxD/ANAHU/8AwDk/wr2z4ZWlxY+CILe9glt50lk3RSoUZctkZB5HBBr5ziKrTnhIqMk/eX5M93I6c44mTkmvdf5o66iiivhT7AKKKKACiiigAooooAKKKKACoE/5CM3/AFyj/m9T1An/ACEZv+uUf83oAnooooAKKKKACiiigAooooAKKKKACiiigAooooAKKKKACiiigAooooAKKKKACiiigAooooAKKKKACiiigAooooAKKKKACiiigAooooAKKKKACiiigAooooAKKKKACiiigAooooAKKKKACiiigAooooAKKKKACiiigAooooAKKKKACiiigAooooAKKKKACiiigAooooAKKKKACiiigAooooAKKKKACiiigAooooAKKKKACiiigAooooAKKKKACiiigAooooAKKKKACiiigAooooAKKKKACiiigAooooAKKKKACiiigAooooAKKKKACiiigAooooAKKKKACiiigAooooAKKKKACiiigAooooAKKKKACiiigAooooAKKKKACiiigAooooAKKKKACiiigAooooAKKKKACiiigAooooAKKKKACoLf/X3X/XUf+gLU9QW/+vuv+uo/9AWgCeiiigAooooAKKKKACiiigAooooAKgT/AJCM3/XKP+b1PUCf8hGb/rlH/N6AJ6KKKACiiigAooooAKKKKACiiigAooooAKKKKACiiigAooooAKKKKACiiigAooooAKKKKACiiigAooooAKKKKACiiigAooooAKKKKACiiigAooooAKKKKACiiigAooooAKKKKACiiigAooooAKKKKACiiigAooooAKKKKACiiigAooooAKKKKACiiigAooooAKKKKACiiigAooooAKKKKACiiigAooooAKKKKACiiigAooooAKKKKACiiigAooooAKKKKACiiigAooooAKKKKACiiigAooooAKKKKACiiigAooooAKKKKACiiigAooooAKKKKACiiigAooooAKKKKACiiigAooooAKKKKACiiigAooooAKKKKACiiigAooooAKKKKACiiigAooooAKKKKACiiigAooooAKKKKACiiigAqC3/ANfdf9dR/wCgLU9QW/8Ar7r/AK6j/wBAWgCeiiigAooooAKKKKACiiigAooooAKgT/kIzf8AXKP+b1PUCf8AIRm/65R/zegCeiiigClqumrq1j9lkubm2QurO1rO8MhAOdodCGAOMHB6ZrhNI0KK8+IXifSptT1z7JZQWjWyDW7sGMyK5Y583JyQOuelekVw/h+HWofibr+oXnh68ttP1OO3jhuXnt2C+UrgllWQsASeMAn1x2FvYOjf9blYSPonxUdUhvdTlj8ORDZFhpJmExBbLMFBIHUkZrpbbxZY32hWOp2ENzc/b8i3tUQCZ2GdykMQqkbTkkgcdeRWRJFrEHxVudWTQLyfTxpItEnjmt/3kiu0nCtICAc7QSBz1wOa5uLwrrdx4S0d73wtbXV3pN3ctJpGoyQSJdRyszZRwWUMMrjdjkH2Jd7xX9dWK1pO3l/6Sj0LQvENrr8Vz5EU9tcWcxgurW4UCSFwAcHBIOQQQQSDnrXPNqVz4q+IOp+H4byez0zRYYjdfZZDHLcyygkL5g+ZVCj+Egk98VseFNLTT7OWVNAsfD5uCCbK0SMFcd3ZAAW57ZAAHPWsu50PU9B8cXviTQrRdRt9Uhjj1CyWVY5Q8fCSRliFPykgqSvrmjTm1/p/1+gfZf8AXX/I2bXRH0zUIJrXU7w2McbrLa3Vy04JOCH3yEvkYIwWxz270v8AhO9ODWs01pfQ6ZeyrDbao8a/Z5WY4XoxdQTwGZQp455FXw15rmn3Fvd6fNpcE8LxMJ5I2m+YEcCNmUDnOd2fbvXIR+Hdd1DwLZ+C9U03yVtTBDJqaTRmGSGJ1IZFDeYHKoBgqACTz6i3s/L/AIP3A9tP67Gpp0kdt8VfEsksmyJNMs5HZ2+VRmbJ56DArN17X01jWfCUkGn6lBbzatG9vdTKFhuE8qQ8KGLDsRvVSe1SahoOrax4r8VW8mm3Nrp+saUljDqBlhKqyiT5ioffg+YMcZ4OcU57PxLf6f4Zt7nQvIuNI1CF7mQ3URikRI3QvHgliOQcMAeeh5NEd0/NfnqOX2vR/wDpKMN59HsPiV4lsPEPifUbG0hgtpbOKTXbiMh3Vi/lr5mX5x8uDjgAdq6nwPq+o2/w+OpeMJZYlt2mZbi8TZK1urHY8i44Yr7ZPHrWRD4fvtZ8c+Jv7f8ADN3Ho2t28Fukzz252GJW+chZCw5IKkAkHBOOzn0bxXq/hHVPB+uW7syoUsdeE0ZScKQ0fmpu3huAG+Ug8/ilpH5f18xvWf8AXb8v1OntvF1tLrFrp19p9/pkt6GNm14iBbnAyQpVm2tjna+1vaoLzx1p9lHJdvaX0mlQzGGbVI41aCJg21s/NvIDcFgpUc88VTksNX8T32gtrGkvpX9k3Qu53eeNxNII2ULFsYnaS2SWCnAxjnjLtvD2v2fgnUfBJ077RDOJ4bXVTNH5QhlYnMilhJvUMeApBIHIzkN/1/X9dxLz/rc6m78WW1vrkukQWV9eXqWYvFS3jUiRC20bWZgM5B6kDjr0qinxC0yTS7HUkstR+wXcqwPcmAKttIX2bZAWz9/5SVDAHqao2un6ppfxGN1Bod7PplvoiafFcrNB+8dGLjhpA3PC5IHzdcDmsN9K8TP8MTo58L3gvjqhuPL+1W23yzdefnd5voduPX25p6af11t+Qtf69L/noeozzxWtvJcXEixQxIXkdjgKoGST+FYVn4xtLrV7Owlsb60/tCN5LGe4jUJcqoDHADFl4OcOqmrut6a3iLwnfabJvtGv7R4SHwWiLqRztJBxnsSPesjw3ceLZbOGx1rSLfTntIvLe7W6WVLpguAUQDKgnk7sEdADnInv/Xf/AIA+i/r+upNYeOLG/v7CBbG+gt9SZ1sb2VEEVyVBYgYcuvAJG9Vziq958RdOtIdRm/szVp4dLumt72SG2DCHAUlz83KgN2yeCcY5rnrPw94im1DwzqmpaKz6pYXkh1C6mvY3aQNE67o+TtiyQdowR/cPWnaRNqkk3jjTtN0eS7N3q08aXPnRpFEzQRj94GYNgZB+VWz7UO+y7P8ANf5+Q9Ou2n6/5HV3/jKztmRbCyvNWZrQXzCxWP5IDnDku6g5wcAZPHSpW8WWMlnp82mxXGpS6jb/AGm1trZVEkkWASx3sqqBuH3iOTjrXMyeF9WtfsuhNZtquiQaQlrb5uViiSdQQzTITlww244cDHQdaqaXofirw9aeGtUstHW8ubHSxpl9ppuo0crlSJEcnZkMp4zyCO/StLv1/wA/8l99/SdbL+u3/B+63rvX/iTw/rXhezv7+0uprSTUYoBEVKvDcrMFUNhh92QDOCQcd6e/i7UE8a6lpCeHr+4gsrSOdXgkgJfcX5w0inB2bQOuc5AGDVbxdD4h1HwzZpDor3d4+oW9zJb29xEFt0ilR9pd2XcSF7DqT2xV63stTg+I1zqQ08tY3+nW8RmMyDyHjeQlWXOSSJBjbkcdRSX6v8kD2+78/wDILLxzb3/g4eIrbSNTaBpvKS2IhE7nf5fC+ZgfNxgkHjpW/dyommzS3ETmMREvGOWxjkcHr+Ncnp+gz23xBvoreZDouU1JrbBzHdvuXA7bTgvj+9g11OqyTxaTctaWkl5N5ZCQRMis5PGAXIUfiamXwNoqPxWMHS9f0ux8M6FF4f028nhvLQSWNjEU8wQqFySZHA4DLnLZ54zXQ2F4uoWEV0kUsIkGfLmXa6dsEdjXB6dpepReCPDum6t4SvLiSxtfKl+zXkEdxbSoqqrxyCVRhhu6MDxyO1df4ah1S38P20WvTederu3MSC23cdgYgAFgu0EjgkGtJWu7dyI7Iz5fHNjDfCNrK+Nn9tGnnUAieSs5bbsI37/vfLu2bc96bZeJ7668f6joTaNdLa2kMLC5EkJUb/M+dhv3YOwAAAng5Arl9X8O+JNVjke/0dry/tdaiuYLlryPY1sswYCFC2EYIMNkKTzy1dRZ2OqWvxE1C+axD2WoWVsn2hZlxE8Zk3KQfmOd4wQMeuKmNuVN7/8AAX/B/IqXVL+tf8jL+JPiC5sL3w1oVlcS2ra5qSwTTQkq4gBG8Kw5UncBkcjnFN8F61cReP8AxR4TnuJri301op7JriZpZVSRQWUuxLMAx4ySRnGelXfH3he51uTQ9V0yJZ77Q79LpYSwUzR5G9FJIAY4GMkDI5IpnhDw1d23i3xF4p1OB7SbWHjWGzkdXeGKNdvzFCVyxGcAkAY5zkAh1v5/pb+vXuEtlby/N3/D9DU8WXM/2Sy02ymkhudTu0t1kiYqyRj55WBHI+RGGfUiti9jupbGWPT547e5ZSI5pYjKqH1K7lz9Misw6fdXPjdb+4i22dlZeXbNuB3ySNmQ46jCogyf7xrUu5pLe0kmhtpbt0GVghKB39gXZV/Mil9n+v68/mHX+v6/4Y86+EmvatqGn+J5vEmpy6lNY6k8PmsoQbY0A+VBwoOM4Hc1y8fjLVU+Hdr8RHv7s3cus7ZbZrh/s4tt5TyhFnZwADuxuzzmuo+Fmha5okniC18Q6DcWkWqX8t3HKZ4JECtxsbZIW3fQEe9ZUfw31dvCNv4FltCunW+rfajqfnIY5LbcX27c7/M+bGCoXjO49yN+ZN9o/mr/AIfqJ/C15v8AJ2/r0Lt9rF34o8beLbGLUL20tvD+nK1otpcvADOyFzI2wjfjAAVsrjPHJrrvh54jm8V+ANL1i72m5niKzFRgF1Yqxx2yVzj3rntS8K6rpXi7xJqWiac1/D4jsBAfKmjjNrOq7Az72HyEHOV3HIPy9M9T4K8ODwl4M03RPMWV7SLEjqMBnJLMR7ZJoj8Gvl993f8AT8Alfm/ray/4P4nDaXqdvo/xc8RaddapqNw6Nax6Vp9xqszKzyxMz8O5BHfJzjtzgV2/hzw3/wAI/HPPc6pqN9PMWZ/td/NNHCpOdiK7HAHTcfmPc9q5G18LXWueOPFD+JfDF1HpWsi2+zzvPAWhaGMrv+SQsrEn5SoJ9cVo+FNS8X6b5+m+K9EuJdNt2cQaxPd224wjODOokPIA5YZz3HU072j8ipay8tPvt/XzLUvxItV/s6S20LWLq11SbybG7jWBY7huSMb5VZQQDjcBntXZD8q8m0a31fTodPn1fwtqkul6e5uoIob+1e2tSd2JI0O2UgBjhWJ2joMgV6zTtZE9QoooqRhRRRQAUUUUAFFFFABRRRQAUUUUAFFFFABRRRQAUUUUAFFFFABRRRQAUUUUAFFFFABRRRQAUUUUAFFFFABRRRQAUUUUAFFFFABRRRQAUUUUAFFFFABRRRQAUUUUAFFFFABRRRQAUUUUAFFFFABRRRQAUUUUAFFFFABRRRQAUUUUAFFFFABRRRQAUUUUAFFFFABRRRQAUUUUAFFFFABRRRQAUUUUAFFFFABRRRQAUUUUAFFFFABRRRQAUUUUAFFFFABRRRQAUUUUAFFFFABRRRQAUUUUAFFFFABRRRQAUUUUAFFFFABUFv8A6+6/66j/ANAWp6gt/wDX3X/XUf8AoC0AT0UUUAFFFFABRRRQAUUUUAFFFFABUCf8hGb/AK5R/wA3qeoE/wCQjN/1yj/m9AE9FFFABRRRQAUUUUAFFFFABRRRQAUUUUAFFFFABRRRQAUUUUAFFFFAARkEVj6J4W0rw7PdTaVHcxveP5k/m3s0wkfuxEjsN3A568VsUUAFFFFABUdxBHdW0tvOu+KVCjqT1UjBFSUUbgUNG0TTvD+mpYaPbLbWydFDFieMZLMSScADJPYVfooou3uGwUUUUAFFFFABRRRQAUUUUAFFFFABRRRQAUyaGK4gkhuI1likUo6OMqykYII7in0UAYmn+ENF0uRWsreZUQgpBJdzSQx45G2JnKLjtgDFbdFFABRRRQAUUUUAFFFFABRRRQAUUUUAFFFFABRRRQAUUUUAFFFFABRRRQAUUUUAFFFFABRRRQAUUUUAFFFFABRRRQAUUUUAFFFFABRRRQAUUUUAFFFFABRRRQAUUUUAFFFFABRRRQAUUUUAFFFFABRRRQAUUUUAFFFFABRRRQAUUUUAFFFFABRRRQAUUUUAFFFFABRRRQAUUUUAFFFFABRRRQAUUUUAFFFFABRRRQAUUUUAFFFFABRRRQAUUUUAFFFFABRRRQAUUUUAFFFFABRRRQAUUUUAFFFFABRRRQAUUUUAFFFFABRRRQAVBb/6+6/66j/0BanqC3/191/11H/oC0AT0UUUAFFFFABRRRQAUUUUAFFFFABUCf8AIRm/65R/zep6gT/kIzf9co/5vQBPRRRQAUUUUAFFFFABRRRQAUUUUAFFFFABRRRQAUUUUAFFFFABRRRQAUUUUAFFFFABRRRQAUUUUAFFFFABRRRQAUUUUAFFFFABRRRQAUUUUAFFFFABRRRQAUUUUAFFFFABRRRQAUUUUAFFFFABRRRQAUUUUAFFFFABRRRQAUUUUAFFFFABRRRQAUUUUAFFFFABRRRQAUUUUAFFFFABRRRQAUUUUAFFFFABRRRQAUUUUAFFFFABRRRQAUUUUAFFFFABRRRQAUUUUAFFFFABRRRQAUUUUAFFFFABRRRQAUUUUAFFFFABRRRQAUUUUAFFFFABRRRQAUUUUAFFFFABRRRQAUUUUAFFFFABRRRQAUUUUAFFFFABRRRQAUUUUAFFFFABRRRQAUUUUAFFFFABRRRQAUUUUAFFFFABRRRQAUUUUAFQW/8Ar7r/AK6j/wBAWp6gt/8AX3X/AF1H/oC0AT0UUUAFFFFABRRRQAUUUUAFFFFABUCf8hGb/rlH/N6nqBP+QjN/1yj/AJvQBPRRRQAUVW1HULXSdNnv7+URW1uheR8E4A9hyT7Cs228SiS4t4r3SNS083Unl25uIkIkO0t1jdtnAPD7T2xmgDbooooAKKKyNJ13+1NZ1jTzaPbtpk0cRZnB8zegcHA6DBHegDXooJwCQM+w71k+Hdd/t+0upvsrWptrya0KO4YkxttJ49SOlAeZrUUUUAFFFFABRVRbi8OsvbNY4shAHW884fNJuIMezqMDBz05xU8E8VzF5sDiRMlQw6EgkH9QaAJKKKKACiiigAooooAKKbLKkELyzMEjjUszMeFA5JpUYOiupyrDIPqKAFooooAKKKKACiiigAooooAKKKKACiiigAooooAKKKKACiiigAooooAKKKKACiiigAooooAKKKKACiiigAooooAKKKKACiiigAooooAKKKKACiiigAooooAKKKKACiiigAooooAKKKKACiiigAooooAKKKKACiiigAooooAKKKKACiiigAooooAKKKKACiiigAooooAKKKKACiiigAooooAKKKKACiiigAooooAKKKKACiiigAooooAKKKKACiiigAooooAKKKKACiiigAooooAKKKKACiiigAooooAKKKKACiiigAooooAKKKKACiiigAooooAKKKKACiiigAooooAKKKKACiiigAooooAKKKKACoLf/X3X/XUf+gLU9QW/+vuv+uo/9AWgCeiiigAooooAKKKKACiiigAooooAKgT/AJCM3/XKP+b1PUCf8hGb/rlH/N6AJ6KKKAM/XrTT9Q0K6stZ/wCPK5TyZfmK/eIA5HQ5I5rkvtWv+CdQ02z1i6TX9EvLuOzgu5VCXdq78Jvx8so7bhhu5zXbXtlbajZyWl/BHcW8mA8Ui7lcZzgjuOOlZ8HhbSYNRjvlgmkmhO6ET3UsqQHGMxo7FU44+UDihaO4PVWOGuJvFPiRdVvtGubWzuNP1CaGKeTWZ4kgWJ8bZLZYSjAqMksSfmyCOANoQXOseOtZ0651O/htf7LtJhFbXLxeW7NKCVIwy/dHTGcc+lbNz4K8O3fiAa3caXG2ofKWlDMokK9C6g7XI7FgcYFEng3RpNYu9VKXi3t7F5M8seo3Cbk/ugBwABk4wBjPGKX2bf1t/X/BB7tr+tb/ANfocho+u6hrOneCdJv764QatZzTXd1FIYpZzEoAQOuCpOdxKkH5evJrZ8FWQ07xZ4vtVuJ7hUu7fa1xKZHANuhALHlsdMkk8ck1oxeA/DsOhwaRHYyCztpfOtwbuYvA/rHIX3p/wEjqfWtHTtA03Sby5u7C28u4u9nnzNIztLtXapJYkk4HXv1PNXdXb/rf+l/w4jB1C4fWviI3h24ubq1srfTVvNtrcPA9w7SFfvoQ2FC9ARktzmuXsL+90Tw01jZTiWS88U3VlJPdXRgLDdIeZVRirMVAyFzzxgnI9E1Xw7pms3Ntc39u5ubUnybiGZ4ZUB6gOjBsHuM4NQHwf4fbSb3TH0uF7O/laa5hfLCR2OS3JyDnnjGO1StP680/y0Kev9eTX56nE6rF4m0Dwf4tN3qC28aWYubCODU5rue1IBDZmkRW2kjIySRzWleLqOgeMfDtzaapqF7HqxkgvLO4m3odsLOJEXohBXBxwc1P4o8KJp/w21TQ/CGjSXEt9E0IjWdd2SMbneZwSBjHUnpgY6bPh3w/Y2MMF8NPubW9MPl+XeXTTvbjuifO6opwOEOOB6U/6/Ml9Pn+hxL6hqF58LD45tNVvY9ZjVrkwi4f7P8ALIQbcwZ2Yx8ucbs85rZ12W5tNRuNV1iXUY9NQRMlxp944XT8KpdZ4FYBwTzuwxAb+EDNdAng/Qo9Qe7jsirSTee8ImkEDS5z5hh3eWXyAd23Oec0XfhDRb7UZr26t5nkuGVp4/tcwhmKgKN8QbY/CgcqelGl/wCv6/rzYzOYy3XxI1HTZru5ayl0WKTyUnZArNLIpZSpBU4A5GDUPwpsIbP4daVLC9wzXEAZxLcySqCCfuqzEIPZcCtuPwtpUXiZ9fSK4/tKSPymlN5MVKf3fLLbNvfGMZ561No2g6b4ftXt9Itvs8LOX2b2YDJJwNxO1ckkKMAZOBQtI2/rd/5g9Xf+trHLNZ3er/ErWrB9a1S1tbe1srmOO1uNgVy8mR0PB2gEdx17YxoJ/FXiCyOvaZc2lrJb3sm+WTWZ/LWOOUhoXtRCUztGM5LZwc9q7q18KaTZeIp9dt47kajcjEsrXszq45wChcrgZOBjA7YqP/hCvDo8RNrg0uJdQdg7yKzBXYdGKZ2lh/eIz70LRoUtb/10Od8+XxJZeKL6bUb60m0m6nt7WK1unhEHlICHZVIDlj83zgjGBj1i0qe6bxN4Kle+vX/tHRJHuo3upGjlZY4iGKFtu75jyBk5rZ8S+E9Nkj1LWLHQ2vdZuLYw7YZRH5xxhSwZ1jJXg7myQBx2FGi+HIdT8KaDH4j0qa0v9LhREH2nbJE6oEYh4X5VsdM8jqKUfPy/Jp/oxy3+/wDRo5iHWNQ0jQNUt7a8lmz4nOnxy399J+6iO3C+cwdlH8IOCRu9ea1LLTPFdh/bFq9/a2sV1bK1hDJqs148EudrfvpYwwVsgDO4g9B2rpl8J6Cum32njS4DaX7mS5hYZWRjjnB6dBjGMYGKis/BegWGiT6RaWGyzuABKpmkZnA6DeW3cdueO1C2s+36JfnqD3+f63/4BxXiFLaXwF4t06f+2LW7t9O897G+vpZimA+HSXe29GI6Z/hwVHSvRNGsYtP0i3t7d53QIDm4uJJm55+87FvwzxVWDwpo0FneWxtpLhL6Lyblru4kuHkjwRsLyMzbRk4GcDJxV/TtOttKsY7OxRkhiGFDyM7fizEk/UmnfcVtv67f8Es0UUUhhRRRQAUUUUAFFFFABRRRQAUUUUAFFFFABRRRQAUUUUAFFFFABRRRQAUUUUAFFFFABRRRQAUUUUAFFFFABRRRQAUUUUAFFFFABRRRQAUUUUAFFFFABRRRQAUUUUAFFFFABRRRQAUUUUAFFFFABRRRQAUUUUAFFFFABRRRQAUUUUAFFFFABRRRQAUUUUAFFFFABRRRQAUUUUAFFFFABRRRQAUUUUAFFFFABRRRQAUUUUAFFFFABRRRQAUUUUAFFFFABRRRQAUUUUAFFFFABRRRQAUUUUAFFFFABRRRQAUUUUAFFFFABRRRQAUUUUAFFFFABRRRQAUUUUAFFFFABRRRQAUUUUAFFFFABRRRQAVBb/6+6/66j/0BanqC3/191/11H/oC0AT0UUUAFFFFABRRRQAUUUUAFFFFABUCf8hGb/rlH/N6nqBP+QjN/wBco/5vQBPRRRQBFO7KqLHjfI20E9uMk/kDSeRJ3upfwVP/AImif/XW3/XQ/wDoDVNQBD5En/P1N+Sf/E0eRJ/z9Tfkn/xNTUUAQ+RJ/wA/U35J/wDE0eRJ/wA/U35J/wDE1NRQBD5En/P1N+Sf/E0eRJ/z9Tfkn/xNTUUAQ+RJ/wA/U35J/wDE0eRJ/wA/U35J/wDE1NRQBD5En/P1N+Sf/E0eRJ/z9Tfkn/xNTUUAQ+RJ/wA/U35J/wDE0eRJ/wA/U35J/wDE1NRQBD5En/P1N+Sf/E0eRJ/z9Tfkn/xNTUUAQ+RJ/wA/U35J/wDE0eRJ/wA/U35J/wDE1NRQBD5En/P1N+Sf/E0eRJ/z9Tfkn/xNTUUAQ+RJ/wA/U35J/wDE0eRJ/wA/U35J/wDE1NRQBD5En/P1N+Sf/E0eRJ/z9Tfkn/xNTUUAQ+RJ/wA/U35J/wDE0eRJ/wA/U35J/wDE1NRQBD5En/P1N+Sf/E0eRJ/z9Tfkn/xNTUUAQ+RJ/wA/U35J/wDE0eRJ/wA/U35J/wDE1NRQBD5En/P1N+Sf/E0eRJ/z9Tfkn/xNTUUAQ+RJ/wA/U35J/wDE0eRJ/wA/U35J/wDE1NRQBD5En/P1N+Sf/E0eRJ/z9Tfkn/xNTUUAeS/EH4h6zoniCXR9HnEP2faZJ2jVmYsobHIxjn0rkv8AhaPjH/oMf+SsP/xFHxR/5KTqn/bH/wBEpXJV+l4DAYT6pTbpptpPVJ7o+MxWKr+3mlNqzfU63/haPjH/AKDH/krD/wDEUf8AC0fGP/QY/wDJWH/4iuSort+oYP8A59R/8BX+RzfWsR/O/vZ1v/C0fGP/AEGP/JWH/wCIo/4Wj4x/6DH/AJKw/wDxFclRR9Qwf/PqP/gK/wAg+tYj+d/ezrf+Fo+Mf+gx/wCSsP8A8RR/wtHxj/0GP/JWH/4iuSoo+oYP/n1H/wABX+QfWsR/O/vZ1v8AwtHxj/0GP/JWH/4ij/haPjH/AKDH/krD/wDEVyVFH1DB/wDPqP8A4Cv8g+tYj+d/ezrf+Fo+Mf8AoMf+SsP/AMRXqXw18Y3PivTLlNRVftdmyB5EXAkDZwcdj8prwCvWvgZ/zHf+3f8A9qV4+dYLDQwU6kKaTVtkl1S6HoZbia0sTGMpNp33d+h61RRRX5+fWBRRRQAUUUUAFFFFABRRRQAUUUUAFFFFABRRRQAUUUUAFFFFABRRRQAUUUUAFFFFABRRRQAUUUUAFFFFABRRRQAUUUUAFFFFABRRRQAUUUUAFFFFABRRRQAUUUUAFFFFABRRRQAUUUUAFFFFABRRRQAUUUUAFFFFABRRRQAUUUUAFFFFABRRRQAUUUUAFFFFABRRRQAUUUUAFFFFABRRRQAUUUUAFFFFABRRRQAUUUUAFFFFABRRRQAUUUUAFFFFABRRRQAUUUUAFFFFABRRRQAUUUUAFFFFABUFv/r7r/rqP/QFqeoLf/X3X/XUf+gLQBPRRRQAUUUUAFFFFABRRRQAUUUUAFQJ/wAhGb/rlH/N6nqBP+QjN/1yj/m9AE9FFFAEM/8Arrb/AK6H/wBAapqhn/11t/10P/oDVNQBWv57qC2DWNqt1MzqoRpPLUAnklsHAA56VjQa9rFxqt9p8Wk2RmslRpM6g2G3gkBT5Xt3xXRVzOjsp+IHiJcgny7XjP8AsmhA9rnRW0jzWsUssRhkdAzRk5KEjkfhUlcPLYweHdYv9MtLGLytdX/RSIgQr/ddG/2QDvx0xkVLLoumx+NLHS2iUWg0p0WEsQHxIvBHfuT+dPfYW39eh2dFecJLJYaSbZLlI9GXWXgSW4VpYlh2nCthhlN/HXHrkV0fhaxjsrq/FrqNtdW8pRxDZw7IYGwchfnbBPBI+nrRbqF+n9djce9hS/Sy3j7RJG0qpn+EEAk/iRVHw/qlxqkN8btIla2vZbZfKBwQhAB571mX9npzfESzkvLe1LGxd90qLkusibTk9wOhrBubW1fwr4hv2A+0W2rTPBNu5iYSLyp7E+3WiOv9edge9v62uej0Vw+seXqPiS+sdUvdPt4xbxm2F/blxtKnc8Z8xQGznkc8D0rqNDjePQbWOW6a8Kx7ftDLtMoHRsZPUY5zz1otpcL6mhRXAWNhENI8QanZxs+oWV7efZXV2Jj4xwAcHj+lS6TbwHULLU9J1XT5ZWhfdb2NsUe4G3P73MrHIOOSM5OO9HS4f19x3VFecO2l3vg2y1Fnhk1d7iHzpiw87eZVDqe4ABPy9AMVrR22nw+J/E8FxFbxwz2sEjRuqhXJD5bHfnHPrRJWTBa/h+djsaK84tbgHQvDFrc3NnDYzWjhjewmWFpRt2qw3qM43Yyce2cY0LbSF/s+Kyi1Ky1FFvHkgtpoittKNvMS/M3C5yOuCDwccNxt/XmJSukdhdXsFn5IncKZpVijHdmPYfz/AAqeuDu4tLvNN0QNp8USRawbeSKYLIEPzl0DdCu7GPoOOK7dEhNoqRBPI2AKExt244xjtipfw3HfWwyx+2fYo/7T8j7Vzv8As+dnXjGeemKsV59arDJ4M8MbpOP7TVQwkIOC79xW7odvb2PjDW7SyVYofKt5fJQ4UMQwY47E4Gaq24XJ9f1280e8sIbfT4bpL6ZYEdroxlXOeo2Hj3z+FSy6rqR1lLGz02C4jCA3E/2sqID/AHSNnJ9B19cZrK8dIZbjQIlnaB5NSULImNyfKRkZ9M07SNWbQLmLQfEJihkOTa3o+VLoZ5z6Pk856k+/KjqgejOroriPEIs5PEt5DqMMGpLJZKsMMk0aG1YluRvYDng7lywwOOldF4Z01NJ8OWdonkMyxDzHgACyNjluOv170dLhfWxq0UUUhhRRRQAUUUUAFFFFABRRRQB88fFH/kpOqf8AbH/0SlclXW/FH/kpOqf9sf8A0SlclX6xgP8Ac6X+GP5I+DxX+8VPV/mbOj6DHf6TfapfXjWllZFFZo4fNd3Y8KFyB26kio9W0m0sbK0u7DUlvoLppFH7oxtHt28MCTg/N2JHvzWj4Xvdb0fTb3U9Lhju9PDrDe2ssZkRwQSCy46cHnPeuosrewt9W8MeItFjm0ZtTvBBNYmU7WXcMle5Q8cdORXLWxNSjVbbuuiVrfDez0un1vqjWnShOldLX597XWtvKx5km3zF8wkJkbioyQPatzxZotpomoWkWnvO8VxZRXOZyCwLgnHAFdeYNSGiePoJYbryGug8CMjbSTMdxUfTbnHtWl/aus23izw5p9mm/TrrTrf7TG0IKSJtw5Zsdhz1wPxrKePm580EtL6X0fuqXbfU1WEjFWk9/Lb3rdzyGivRrrVrnTfAdzPocvlxQ+IZI7SVIwdsOw7dpx79evJHeugW+vH+KTaVIAtjeWPm3EAhULMxh5ZuOTkYz7YrSWYzim+TRKT3/ltfp5kxwcW0nLt07u3fueSqNOOj4xdnUzPwBt8nysf99bs/him6lptzpN+1nepsnREZ0/u7lDAH3AYZ966dbm9T4SwzRvLG1trY8qRMqYx5R5BHuevqad8T5dRk8X3Aunums12fZxIWMYJiQttzx164raniZSr+z6e917cu2nnsZSopUuf06d7/AOW5xletfAz/AJjv/bv/AO1K8lr1r4Gf8x3/ALd//alc+ef8i+p8v/SkbZZ/vcPn+TPWqKKK/ND7MKKKKACiiigAooooAKKKKACiiigAooooAKKKKACiiigAooooAKKKKACiiigAooooAKKKKACiiigAooooAKKKKACiiigAooooAKKKKACiiigAooooAKKKKACiiigAooooAKKKKACiiigAooooAKKKKACiiigAooooAKKKKACiiigAooooAKKKKACiiigAooooAKKKKACiiigAooooAKKKKACiiigAooooAKKKKACiiigAooooAKKKKACiiigAooooAKKKKACiiigAooooAKKKKACiiigAooooAKgt/wDX3X/XUf8AoC1PUFv/AK+6/wCuo/8AQFoAnooooAKKKKACiiigAooooAKKKKACoE/5CM3/AFyj/m9T1An/ACEZv+uUf83oAnooooAhn/11t/10P/oDVNUFyQhhkbhUkyx9Mgj+ZqcHIyORQAVRg0TSra6FzbaZZw3AJIljt0VgT15Az3q9RQBlWdnqUuoG51h7UiAuLZLYNjDfxNu/ixxxxyfXijf6Fc6h4ujvbuz0+505Lc25jncsxywbftKEZGMYz+NdHRQBEbS3Np9lNvEbfbs8nYNm30x0x7UW1pb2UAgs4IreJekcSBVH4CpaKAIZ7K1uZY5Lm2hmkiJMbyRhimeuCelUx4c0QRNGNH08IxDMv2VMEjODjHufzrSooAqS6Tp08MMU2n2skcH+qR4VIj/3Rjj8KtMquhVlDKRggjgilooAq2el6fpxc6fY21qXxuMEKpux64HNOttPsrOWSW0s4IJJTmR4olUufcgc1YooA5/xDoEl3Zuui2dhFczTJJPNJ+7LbHDDJVSWyR3rWNjb3EkNzeWVs12iYD7Q5TPUKxAOOvpVqijpYOtys+nWMlkLOSzt3tR0gaJSg/4DjFNm0nTrm1jtriwtZYIv9XE8KsqfQEYFW6KAKz6dYyWa2clnbtbLjbA0SlBjphcYqaWCKeBoZ4kkiddrRuoKsPQg9qfRQBmnw5ohjWM6Pp5RSWC/ZUwCcZOMew/IVPBpOnW1211bafaw3DZ3TRwqrnPXLAZq3RRcCld6NpmoTCW/060upANoeaBXIHpkikudE0q8ZWu9Ms52RQimW3RiqjoBkcD2q9RQBzNz4emOoyMNL0a/syqrBHdJsa2UDGxcIwIzk9utbOlabHpdl5ESRRhnLlIU2IpPZV7CrtFO4rBRRRSGFFFFABRRRQAUUUUAFFFFAHzx8Uf+Sk6p/wBsf/RKVyVdl8VrWaH4hX00kZEc6xNG2OGxGoP6iuNr9Xy9p4Olb+VfkfCYtNYid+7/ADLFpqN7YMDY3lxbENuBhlZMHpng9aW61O/vrhbi9vbi5mTG2SaVnZfoSciq1FdfJHm5ranPzO3LfQvza9q9yJBcareyiVQkgkuHbeo6A5PI5PHvTRrWqiw+wjU7z7Jt2/Z/tDeXj025xiqVFL2VPblX3D9pPe5fi17WILRLWHVb6O3jIKQpcuEXByMDOBzz9am/4SrxBv3f27qe7GM/bJM4/OsqipdGk94r7hqpNKybNCfxBrNzavbXOrX0sEn34pLl2Vuc8gnB55qvd6je34jF9eT3PlLtj86Vn2D0GTwKr0VUacI7JCc5PRsK9a+Bn/Md/wC3f/2pXktew/BCznistXu5I2WGd4kjcj7xXfux/wB9CvIz1pZfO/l+aO/K03i4/P8AJnqdFFFfmp9mFFFFABRRRQAUUUUAFFFFABRRRQAUUUUAFFFFABRRRQAUUUUAFFFFABRRRQAUUUUAFFFFABRRRQAUUUUAFFFFABRRRQAUUUUAFFFFABRRRQAUUUUAFFFFABRRRQAUUUUAFFFFABRRRQAUUUUAFFFFABRRRQAUUUUAFFFFABRRRQAUUUUAFFFFABRRRQAUUUUAFFFFABRRRQAUUUUAFFFFABRRRQAUUUUAFFFFABRRRQAUUUUAFFFFABRRRQAUUUUAFFFFABRRRQAUUUUAFFFFABRRRQAUUUUAFQW/+vuv+uo/9AWp6gt/9fdf9dR/6AtAE9FFFABRRRQAUUUUAFFFFABRRRQAVAn/ACEZv+uUf83qeoE/5CM3/XKP+b0AT0UUUAB561D9jtj1t4v++BU1FAEP2O2/59of+/Yo+x23/PtD/wB+xU1FAEP2O2/59of+/Yo+x23/AD7Q/wDfsVNRQBD9jtv+faH/AL9ij7Hbf8+0P/fsVNRQBD9jtv8An2h/79ij7Hbf8+0P/fsVNRQBD9jtv+faH/v2KPsdt/z7Q/8AfsVNRQBD9jtv+faH/v2KPsdt/wA+0P8A37FTUUAQ/Y7b/n2h/wC/Yo+x23/PtD/37FTUUAQ/Y7b/AJ9of+/Yo+x23/PtD/37FTUUAQ/Y7b/n2h/79ij7Hbf8+0P/AH7FTUUAQ/Y7b/n2h/79ij7Hbf8APtD/AN+xU1FAEP2O2/59of8Av2KPsdt/z7Q/9+xU1FAEP2O2/wCfaH/v2KPsdt/z7Q/9+xU1FAEP2O2/59of+/Yo+x23/PtD/wB+xU1FAEP2O2/59of+/Yo+x23/AD7Q/wDfsVNRQBD9jtv+faH/AL9ij7Hbf8+0P/fsVNRQBD9jtv8An2h/79ij7Hbf8+0P/fsVNRQBD9jtv+faH/v2KPsdt/z7Q/8AfsVNRQBUudK069gEN5YWtxEp3BJYVZQfXBFVP+ET8O/9ADS//AOP/CtaitI1akVaMmvmQ6cJO7Rk/wDCJ+Hf+gBpf/gHH/hR/wAIn4d/6AGl/wDgHH/hWtRVfWK387+9i9lT/lX3GT/wifh3/oAaX/4Bx/4Uf8In4d/6AGl/+Acf+Fa1FH1it/O/vYeyp/yr7jJ/4RPw7/0ANL/8A4/8KP8AhE/Dv/QA0v8A8A4/8K1qKPrFb+d/ew9lT/lX3GT/AMIn4d/6AGl/+Acf+FH/AAifh3/oAaX/AOAcf+Fa1FH1it/O/vYeyp/yr7jJ/wCET8O/9ADS/wDwDj/wrThhit4Vht40iiQYVEUKqj0AFPoqZVJz0k2yowjH4VYKKKKzKCiiigAooooAKKKKACiiigAooooAKKKKACiiigAooooAKKKKACiiigAooooAKKKKACiiigAooooAKKKKACiiigAooooAKKKKACiiigAooooAKKKKACiiigAooooAKKKKACiiigAooooAKKKKACiiigAooooAKKKKACiiigAooooAKKKKACiiigAooooAKKKKACiiigAooooAKKKKACiiigAooooAKKKKACiiigAooooAKKKKACiiigAooooAKKKKACiiigAooooAKKKKACiiigAooooAKKKKACoLf/X3X/XUf+gLU9QW/wDr7r/rqP8A0BaAJ6KKKACiiigAooooAKKKKACiiigAqBP+QjN/1yj/AJvU9QJ/yEZv+uUf83oAnooooAKKKKACiiigAooooAKKKKACiiigAooooAKKKKACiiigAooooAKKKKACiiigAooooAKKKKACiiigAooooAKKKKACiiigAooooAKKKKACiiigAooooAKKKKACiiigAooooAKKKKACiiigAooooAKKKKACiiigAooooAKKKKACiiigAooooAKKKKACiiigAooooAKKKKACiiigAooooAKKKKACiiigAooooAKKKKACiiigAooooAKKKKACiiigAooooAKKKKACiiigAooooAKKKKACiiigAooooAKKKKACiiigAooooAKKKKACiiigAooooAKKKKACiiigAooooAKKKKACiiigAooooAKKKKACiiigAooooAKKKKACiiigAooooAKKKKACiiigAooooAKKKKACiiigAooooAKKKKACoLf/AF91/wBdR/6AtT1Bb/6+6/66j/0BaAJ6KKKACiiigAooooAKKKKACiiigAqBP+QjN/1yj/m9T1An/IRm/wCuUf8AN6AJ6KKKACisfxZp1nqfhPUoNRtYbqIW0jhJkDAMFOGGehHY9q878HWHgu88FaDbT+Fg9/c20Eb3Z0KSPDkDMn2gxBc55DbuTjGc0R1bXp+N/wDIHor+v4HrlFc/eeI71PE1zoen6UtzcRWSXccklyI42DOy4J2kryp5APbjuMLUPGWsX2ieGb/QtPt4/wC1L8W88N3dMjIy78oGVG4zGwLY6fw88C1t5/52Da/l/lc72iuH8QfEuz0KW7hY6W1zp6Kby2n1VIJSSgcrCrLmU4I67ATwOcgWbnxzNLeWFvoGjNqh1HTG1G1JuVh3gFPlO4fLneOfX8wf1+v6B/X9fedfRVG+1CWx0OW/NhcTzRQ+Z9jtxvkZsfcGOpzxWRofiyXUPE95oGo2drbX1tbJckWl59oTazFdrEohVwccY6Ec07a2FfS50tRC7tzeG0FxEblYxIYd43hCcBtvXGRjNc3401fWtLn0OLRLe0lF7qKW8v2i4aIn5WYKCqNgHYcnn0wc5Ey63bQeLLy31DToLa4tdKS7nvlYMfL3MCmdoJUFWPP5Cl0v6/grjd9vT87HR1DbXlteK7WlxFOsbmNzE4baw6qcdCPSsCx8TaleXmms+gSrpmqKWguo5TI8Q27lMybAIww6EM3OAcVz3hPUrqxs9et9EsoL+/bxFd4tXuPJCxmTBcsEbAHuOeQOeKdtbP8ArVL9RN6Jrv8Ao3+h6NRXG698QYNCmezmbSE1G3gSa5t7rV1txlgTsiLJmQ8d1UcjkZwKtv4y1TW/E/h9tBtrSTSNS06S7Hn3LRycNGrZAjYZXdgLnk55GBkSu9P63/yBu2/9f1c7yisjxRrjeG/D0+qLaG7EBQGISBCQzBc5wemapDxLqP8Awkc+iyaPHFctZNeWLPefJMqsFZZCEPlsCy9N4560v6/UZ0lFcTF4/uZvC/h7XE0eLyNXvI7WaM3h3W5eTYrD93846k/d7fhdufFmo/2prmn6ZoYup9ISKT95eCNZg6lsA7SQcDAGOT1I7j0vfp/X6gtbHU1FDdW9xJLHBPFK8LbZVRwTG2M4YDocetcrF46klHh+8OkNHpWuPHFDcNcDzY5HQsoMYBG04Izuz7VmWmoalpHiDxjJomhf2mUv4pJI1uFg+X7NFnbkHc3twD60PRu/9bf5gtdj0KiuMufiVpI0zTbmyuLCOTUbX7VCuqX62aKmQCGYhjuzkYAP3TkiorT4lxajpei3emaY10dUvZLFkW5T91Kisx+boynZwRjgg+1O39fh+Yrrf+u53FFVNLuLy70uCfU7H+z7t1zLbecJfLOem8cH1zVukMKKKKACiiigAooooAKKKKACiiigAooooAKKKKACiiigAooooAKKKKACiiigAooooAKKKKACiiigAooooAKKKKACiiigAooooAKKKKACiiigAooooAKKKKACiiigAooooAKKKKACiiigAooooAKKKKACiiigAooooAKKKKACiiigAooooAKKKKACiiigAooooAKKKKACiiigAooooAKKKKACiiigAooooAKKKKACiiigAooooAKKKKACiiigAooooAKKKKACiiigAooooAKKKKACiiigAooooAKKKKACiiigAooooAKKKKACiiigAooooAKKKKACiiigAooooAKKKKACiiigAooooAKKKKACoLf/AF91/wBdR/6AtT1Bb/6+6/66j/0BaAJ6KKKACiiigAooooAKKKKACiiigAqBP+QjN/1yj/m9T1An/IRm/wCuUf8AN6AJ6KKKAM3xDDqF1oN3baPFbS3U8TRKLqZokUMCC2VRicZ6Y59RXO6DZeM9D8K2GjxadoTvZ2yW63LanMQSq43bPs4+uN3412UkixJufp04GSTUfnv2tZvzX/4qhaX8/wCv1A5gaV4kg8ez6xFDplxaNpq2aeZdyRyuylnDkCIqAWbBAJwOefu1l2PhHxJD4V0i0n/soahpOrG9QJcSGKZCZCQWMYKt+9OOCPlHrx3fnyf8+s35p/8AFUefJ/z6zfmn/wAVT7eX+dw7+f8Alb8jlX0LxRpniO8vfD95pclpqjJLeQ30cgMMwRULx7T8wIUfKxHTrTpND18fEHTtVjWxm0+zsns3klunE8m8ozPtEZXIKdN3Oeo6V1Hnyf8APrN+af8AxVHnyf8APrN+af8AxVC0t5f8N+Qt7mf4o02+1fwxfWGlXf2O8nj2xTEkAHIOCRyARwSOQDWLovhjU7DxhDq7w6XZ2v8AZYsntLPdiJhIX+XKgMDk84XHoetdV58n/PrN+af/ABVHnyf8+s35p/8AFULR3/rsN6q39dH+hj+K9Hv9Vj0uXSmt/tGnahHdhLlmVJFCsrLuUEg4ckHB5FZk3hzWdQ8ZX91qUWnHSL3Sv7NkMVw/nEZZi+wptGS5GNxwOcnpXV+fJ/z6zfmn/wAVR58n/PrN+af/ABVK2lvX8Vb8h3f9eTv+ZzHhjSPFmlWsGm6tfabcWFggS3mgEiz3KqMIJM8J0Gcbs/nnnLXwN4qs2udUsk0a1146pJeQzpeStHJDK2ZIJR5ILKMDHvz8uOfSvPk/59ZvzT/4qjz5P+fWb80/+Kp3d79SbK1un9f5nKTaP4stdebWNFl0lH1CKNdQsbp5HjjdAQHikVQTxgEFRnHard1oOqjxRo2q2tzbTm1tp7a7NxuUkSMjb0Az0KY2kjg9eK6Dz5P+fWb80/8AiqPPk/59ZvzT/wCKoWgGH450nVNd8KT6boi2f2i4dMteSsiIqsGz8qsSflAxx1znjBqjS/Ec/j6w1m4ttLis4bB7SZY72R5AXKOzKDEAQGTAyRkHPHSum8+T/n1m/NP/AIqjz5P+fWb80/8AiqX9fhYZwVt4H16HwxpehNcacLfSdTiuYZg0heaNJfMG4YAVu2AWB65HStC30bxNbeJPEuorbaS8epxRpbKb2UFTGpUb/wBzwCCScE4xjnrXW+fJ/wA+s35p/wDFUefJ/wA+s35p/wDFUNXTT6/8D/IL63/ruefjwp4sTwt4U0xbfRmm0G5hmkY38oWURKVUD9ycZ3En0x3zxtjRvEGna9rFzpLadJb6vIkpkuJHV7VxEseQgUiQfKDjcn1rpfPk/wCfWb80/wDiqPPk/wCfWb80/wDiqbd736/rb/IS02/r+rnHN4M1Tw+NJm8FXdr51jZ/YpoNSDeXcx7t24sgyrhtx4BHzGn63oXie+v9AuYf7LuH0+8N7cmW4khBYxtH5caiN8KA2ck8kdOa67z5P+fWb80/+Ko8+T/n1m/NP/iqLu9/n+N/zCy/r7iaiofPk/59ZvzT/wCKo8+T/n1m/NP/AIqkMmoqHz5P+fWb80/+Ko8+T/n1m/NP/iqAJqKh8+T/AJ9ZvzT/AOKo8+T/AJ9ZvzT/AOKoAmoqHz5P+fWb80/+Ko8+T/n1m/NP/iqAJqKh8+T/AJ9ZvzT/AOKo8+T/AJ9ZvzT/AOKoAmoqHz5P+fWb80/+Ko8+T/n1m/NP/iqAJqKh8+T/AJ9ZvzT/AOKqrqOqNYWLztayZHCgleT2/iqoxcnZCbSV2aFFeP8AiLxxb2NwBqks8s7c+TGAdo+mQAKxf+Fj6T/z633/AHwn/wAXXsQyetON/wBDzpZhTi7HvVFeC/8ACx9J/wCfW+/74T/4uj/hY+k/8+t9/wB8J/8AF1f9i1vP7v8Agk/2lT/pnvVFeC/8LH0n/n1vv++E/wDi6P8AhY+k/wDPrff98J/8XR/Ytbz+7/gh/aVP+me9UV4L/wALH0n/AJ9b7/vhP/i6P+Fj6T/z633/AHwn/wAXR/Ytbz+7/gh/aVP+me9UV4L/AMLH0n/n1vv++E/+Lo/4WPpP/Prff98J/wDF0f2LW8/u/wCCH9pU/wCme9UV4L/wsfSf+fW+/wC+E/8Ai67Hwt4wS5hS5spnltt22SF+q/h2NZVcprU4836GlPH05ysek0UisHQMhyrDIPqKWvHPQCiiigAooooAKKKKACiiigAooooAKKKKACiiigAooooAKKKKACiiigAooooAKKKKACiiigAooooAKKKKACiiigAooooAKKKKACiiigAooooAKKKKACiiigAooooAKKKKACiiigAooooAKKKKACiiigAooooAKKKKACiiigAooooAKKKKACiiigAooooAKKKKACiiigAooooAKKKKACiiigAooooAKKKKACiiigAooooAKKKKACiiigAooooAKKKKACiiigAooooAKKKKACiiigAooooAKKKKACoLf/X3X/XUf+gLU9QW/wDr7r/rqP8A0BaAJ6KKKACiiigAooooAKKKKACiiigAqBP+QjN/1yj/AJvU9QJ/yEZv+uUf83oAnooooAhn/wBbb/8AXX/2VqmqGf8A11t/10P/AKA1TUAFFRXV3b2VuZ724it4VwDJK4RRn3NUP+En0H/oN6b/AOBcf+NAGpRTUkSWNZImV0YBlZTkEHoQadQAUUUUAFFBOBk1WsdRtdSjleyl81YpWic7SMOOo5oAs0UUUAFFRXVzFZ2ktzcvshhQu7YJwoGScDmnQzJcQRzQtujkUOpxjIIyKAH0VWudRtbO5tre5l2S3T7IV2k7mxnHHT8as0AFFFFABRRRQAUUUUAFFVrzULXTxCbyUR+dKsUfBO52OAOKs0AFFFFABRRRQAUUUUAFFFFABRRRQAVh+Lf+QTH/ANdx/wCgtW5WF4t/5BMX/Xcf+gtXRhv40TKt/DZ86+NT/wAVjff9s/8A0WtYVbvjX/kcb76x/wDotawq/SKH8KPoj46r/EfqFFWLHTr3U5zDptncXcoG4x28TSMB64Aou9PvLCTZf2k9s+4rtmiKHIwSOR15H5itOaN+W+pFna/Qr0UqI0sixxqWdiAqjqSe1XdW0a/0O6S21S38iZ41lVd6tlT0PBPpQ5RTUW9WFm1co0UUVQgoq5/ZF8dEOr+R/oIn+z+bvX/WYzjGc9O+MVTqVJPZjaa3Cu7+GZ51Mdv3X/s9cJXd/DP72qfSH/2eubGfwJfL8zbD/wAVH0Bpv/IJtP8Argn/AKCKs1W0z/kE2n/XBP8A0EVZr83n8TPsY/CgoooqCgooooAKKKKACiiigAooooAKKKKACiiigAooooAKKKKACiiigAooooAKKKKACiiigAooooAKKKKACiiigAooooAKKKKACiiigAooooAKKKKACiiigAooooAKKKKACiiigAooooAKKKKACiiigAooooAKKKKACiiigAooooAKKKKACiiigAooooAKKKKACiiigAooooAKKKKACiiigAooooAKKKKACiiigAooooAKKKKACiiigAooooAKKKKACiiigAooooAKKKKACiiigAooooAKKKKACoLf/X3X/XUf+gLU9QW/+vuv+uo/9AWgCeiiigAooooAKKKKACiiigAooooAKgT/AJCM3/XKP+b1PUCf8hGb/rlH/N6AJ6KKKAIZ/wDXW3/XQ/8AoDVNUM/+utv+uh/9AapqAGSwRzhRMgcKwdQR0I6Gud0pQ/jzxGrAEGK1BBGQfkaulrC0/Q7+z8R3mqS6lBKt4EWWFbQrgICF2t5hweecg59qED2Kdhq1/Zrq9lqDWcMmmxKbZIYHw0e35GwXJbkbdoxyOvNSHVNeGr22lbdP+0y2BuHkKuFRwwGMbjkc4689cjpTXTTvEviS0urJpJP7OZ1uHCsikgjbGcgbsMN3tt9xVXUrwP8AEq2hstStba5WwaMiVRICxcEIV3KckcgZzxVLVr+ujE9L/wBdUSweLrn7AYry3RNSS9aycQxySoGClt4VcsRgdOvuOtaOgatfahNeQahaunkMvlXP2WWBJ1I7LJyCOh5NQy+E0fTfLS9liv8A7UbwXqKMiY8E7em3HG30rT0yxurRGfUb431y4AMvlCNQB0AUdOp9c/lRoGv9f12Mu7k1I+PLSCC8hS3+xvJ5bwFv40Dchxyex6D0NY1pqOoaRpWt39mts8Fvq8zSxyhi0il1BCkEBSAepz9K6e90iafXLbUrW8+zvDC8LoYg+9WIPHIwcr71kHwlqDaJqOnNq8GL+4Nw8gsjlSxywA8z1Ax6c9c8KOm/9a/5A9X/AF2J9W8RXUV/c2mmIfMtY1YlrGe4EjMMhf3fCcY5JPXpxWzpl5LqGk291NbSWk0seWhmUho27gg4PWsq48PX51AX+n6wbK6ljWO722weOfb0YKx+U/ia27aAW1ukSsz7RyznJY9ST7k80aWDW5yum6hq9tomvX81zbXL2s9xtUwMuTH77z8uFxjGfc1pf2xd3d1Z2Fj5EV1NZi7lllQuiKcAAKGBJJJ7jGO9Rv4auxYatZ2+pqkOoySOA9tuMXmff53DPt0xnnNNm8MXZFhcWurfZdSs4fs5uUtgUlj/ALrRlj6DnPXP4GnXy/L/ADDXp5/n/kZ+t6hcQReH7zxBFHZSQ37GbY25QBG/zDGeCOcda05dY1Cx0ufVL020ts5UWkMETbyHYBCzBmB69FB9vSkvfDl5dS6e66nGTZymdzPa7zPIQQScMoAwcAAcVFB4RkSxvdNm1ENpk7l4II4Sj2p3bl2PuPAPOMfl0o6f15B1/rzG22t6tcXV1aGIhfsxlhvjps8KI46oyyHk45BB/CrvhB7ybwvYzX08czSwq6lYypAIz8xLHcfcY+lSadpN9Crf2vqz6i2wpGfIWIID1JAzlvf9OTU2haZNo+kw2M139qWFQkbCIJhR0GMnJ9/0p6a/13Frp/XYzZ9X1h77WreyWyX+z1R42lV23goW2kAj06549D2S21+9uNT0IbYFtdWtWmKbG3xsqBvvbsEc+napP7B1Jb7VrmPVLcf2kirtNmT5W0bRz5nPyk/jz7UyLwxdQ2ujiPU4xdaUrRxzfZvleMqFIK7+uAOc/hSVuv8AWj/4A3cqS+JdUtvD+tXci2klxpt59nUrGyo6/JyRuJz83rV59S1mPxAmmstji5t2mhkAf90VIBDc/P8AeHTbVe58IXE2lalZR6qB/aNz58kklsGI+7wAGHPyjn68VcfRtSk1201I6lbA28BhMQszht2Cxz5nHKjHp70aaf10/wAwd/69f8jGvtUutT8PxG5jh+12utxWzeWSqOySjkZyQDx61fbxDf6TqVxba/DbsgtJLuCW03DIT7yENnnnr0pIvCd0NPurefVEZ5r0X8csVrt8uXdu5Bc7lyBxx9avjQftUs82szreTTW7W37uPykSNvvALljk9ySegxijp/XZfqHX+u/+RQsfEOpz6tawyWby210p3OlhcRfZmxkbncYcHpkAfSptA1TWdWkM08dilpHPNDJs3+YSjEKR27c5/wDrVJpuhajYqI7jW3vIIBi2jlt1Gw4wpcg5fH4fyxN4e0e50W1ngub2O7WWZpgUgMZUsSWH3jkZPH9aelxa2NeiiipKCiiigAooooAKKKKACsLxb/yCYv8AruP/AEFq3awvFv8AyCYv+u4/9BaujDfxomVb+Gz518a/8jjffWP/ANFrWFW741/5HG++sf8A6LWsKv0ih/Cj6I+Oq/xH6nW+ENW0lNG1TQdauJ9Pj1IoVvoF3eWVz8rgclTnoP8A69a8/hy9k1bw/pHiO6fU9FuJXi0/ULG4B++V4ywbgbfu4HU4PFcppetWVro8+malpYvYZplm3rOYpIyFI+U4I79wR7Vov42+zx6NbaPYfZLLSbkXSxyzea80mcks20dsjAA61w1aNX2rlTW/p/La66p9OxtTnH2VpPv373t2a6k3/CMaW2keK5Fa8FzodwEhYyqUkQylBuXZnICnkHnPQV0us6Z4b1jxBoenazcajBfXemWsUEkATyUJXC7s5JyfTHb8OduPHOnPa63BaeHRD/bJDzM96zkOHLZ+6OMnoMd+TxhG8dWj3Onai+hhtW062SCGc3R8rKDCuY9uSR1+9isZUsTN8zT8tVf4V597m/NRjpFrr0ff07D38L6DpnhuXUNXl1J5rXVX06eO2MYV2VScqSDj6nPTpzkaf/CCeHG8XT+HY7vVGuZLc3FtMfLCRjy94DjGW+o2+nvXPv4rsbnwr/Y9/plzPLJffb57pb0KZJDw3y+WcArkd8HnnpWsvxE01fFyeIV8P3AuFtvs/l/2iNhG3Zn/AFWc7fenOGM1te+vVb6W67Xv+oRlh9Nunfvr+BiR6PpSeB7fXpBdyzDUxaTwiRUVl8sv8p2kg9Bk578Vb+JUOnWvjK4tdOtJbcwpEjZmDIVEKbQq7QVwOuSc+1VZ/Eelt4Nk0C10i4jzd/a0uJL4OVfG0AqIxkbeO3PPtUPizxFbeJtSF/Hpgsrl1H2h/PMnmEKqjAwAowvTnr1rppxquspyTt73VdbW6+pjJ01StFq+nT18vQwa7v4Z/e1T6Q/+z1wld38M/vap9If/AGetcZ/Al8vzM8P/ABUfQGmf8gm0/wCuCf8AoIqzVbTP+QTaf9cE/wDQRVmvzefxM+xj8KCiiioKCiiigAooooAKKKKACiiigAooooAKKKKACiiigAooooAKKKKACiiigAooooAKKKKACiiigAooooAKKKKACiiigAooooAKKKKACiiigAooooAKKKKACiiigAooooAKKKKACiiigAooooAKKKKACiiigAooooAKKKKACiiigAooooAKKKKACiiigAooooAKKKKACiiigAooooAKKKKACiiigAooooAKKKKACiiigAooooAKKKKACiiigAooooAKKKKACiiigAooooAKKKKACiiigAooooAKgt/9fdf9dR/6AtT1Bb/6+6/66j/0BaAJ6KKKACiiigAooooAKKKKACiiigAqBP8AkIzf9co/5vU9QJ/yEZv+uUf83oAnooooAhn/ANdbf9dD/wCgNU1MliEqYJKkEFWHY0zZc/8APaL8Yj/8VQBNRUO26/57Q/8Afo//ABVG26/57Q/9+j/8VQBNRUO26/57Q/8Afo//ABVG26/57Q/9+j/8VQBNRUO26/57Q/8Afo//ABVG26/57Q/9+j/8VQBNRUO26/57Q/8Afo//ABVG26/57Q/9+j/8VQBNRUO26/57Q/8Afo//ABVG26/57Q/9+j/8VQBNRUO26/57Q/8Afo//ABVG26/57Q/9+j/8VQBNRUO26/57Q/8Afo//ABVG26/57Q/9+j/8VQBNRUO26/57Q/8Afo//ABVG26/57Q/9+j/8VQBNRUO26/57Q/8Afo//ABVG26/57Q/9+j/8VQBNRUO26/57Q/8Afo//ABVG26/57Q/9+j/8VQBNRUO26/57Q/8Afo//ABVG26/57Q/9+j/8VQBNRUO26/57Q/8Afo//ABVG26/57Q/9+j/8VQBNRUO26/57Q/8Afo//ABVG26/57Q/9+j/8VQBNRUO26/57Q/8Afo//ABVG26/57Q/9+j/8VQBNRUO26/57Q/8Afo//ABVG26/57Q/9+j/8VQBNRUO26/57Q/8Afo//ABVG26/57Q/9+j/8VQBNWF4t/wCQTF/13H/oLVr7br/ntD/36P8A8VVHV9OudQ054RLFvB3J+7I5H/Aq2oSUasWzOqnKDSPmzxr/AMjjffWP/wBFrWFXqviPwOmq3zTSTtaXY+WQ+VkMAMDjI5981i/8KzP/AEFx/wCAv/2dff0cZRVOKb6HylTD1HNtI4Siu7/4Vmf+guP/AAF/+zo/4Vmf+guP/AX/AOzrb65Q/m/Bmf1er2OEoru/+FZn/oLj/wABf/s6P+FZn/oLj/wF/wDs6PrlD+b8GH1er2OEoru/+FZn/oLj/wABf/s6P+FZn/oLj/wF/wDs6PrlD+b8GH1er2OEoru/+FZn/oLj/wABf/s6P+FZn/oLj/wF/wDs6PrlD+b8GH1er2OEru/hn97VPpD/AOz0f8KzP/QXH/gL/wDZ12XhHwitin2Sx3SPIwaadhj/APUPQVyYvF0XRaTOjD4eoqibR6dpn/IJtP8Argn/AKCKs02KNYokjThUUKPoKdXwMneTZ9UlZWCiiipGFFFFABRRRQAUUUUAFFFFABRRRQAUUUUAFFFFABRRRQAUUUUAFFFFABRRRQAUUUUAFFFFABRRRQAUUUUAFFFFABRRRQAUUUUAFFFFABRRRQAUUUUAFFFFABRRRQAUUUUAFFFFABRRRQAUUUUAFFFFABRRRQAUUUUAFFFFABRRRQAUUUUAFFFFABRRRQAUUUUAFFFFABRRRQAUUUUAFFFFABRRRQAUUUUAFFFFABRRRQAUUUUAFFFFABRRRQAUUUUAFFFFABRRRQAUUUUAFFFFABRRRQAVBb/6+6/66j/0BanqC3/191/11H/oC0AT0UUUAFFFFABRRRQAUUUUAFFFFABUCf8AIRm/65R/zep6gT/kIzf9co/5vQBPRRRQAUUUUAFFFFABRRRQAUUUUAFFFFABRRRQAUUUUAFFFFABRRRQAUUUUAFFFFABRRRQAUUUUAFFFFABRRRQAUUUUAFFFFABRRRQBFNbQXGPPhjlx03oDj86j/syx/58rf8A79L/AIVZoqlKS2YuVPoVv7Msf+fK3/79L/hR/Zlj/wA+Vv8A9+l/wqzRT55dxcsexW/syx/58rf/AL9L/hR/Zlj/AM+Vv/36X/CrNFHPLuHLHsVv7Msf+fK3/wC/S/4Uf2ZY/wDPlb/9+l/wqzRRzy7hyx7Fb+zLH/nyt/8Av0v+FH9mWP8Az5W//fpf8Ks0Uc8u4csexW/syx/58rf/AL9L/hU8cSRJsiRUX0UYFOopOUnuxpJbBRRRUjCiiigAooooAKKKKACiiigAooooAKKKKACiiigAooooAKKKKACiiigAooooAKKKKACiiigAooooAKKKKACiiigAooooAKKKKACiiigAooooAKKKKACiiigAooooAKKKKACiiigAooooAKKKKACiiigAooooAKKKKACiiigAooooAKKKKACiiigAooooAKKKKACiiigAooooAKKKKACiiigAooooAKKKKACiiigAooooAKKKKACiiigAooooAKKKKACiiigAooooAKKKKACiiigAooooAKKKKACoLf8A191/11H/AKAtT1Bb/wCvuv8ArqP/AEBaAJ6KKKACiiigAooooAKKKKACiiigAqBP+QjN/wBco/5vU9QJ/wAhGb/rlH/N6AJ6KKKACiiigAooooAKKKKACiiigAooooAKKKKACiiigAooooAKKKKACiiigAooooAKKKKACiiigAooooAKKKKACiiigAooooAKKKKACiiigAooooAKKKKACiiigAooooAKKKKACiiigAooooAKKKKACiiigAooooAKKKKACiiigAooooAKKKKACiiigAooooAKKKKACiiigAooooAKKKKACiiigAooooAKKKKACiiigAooooAKKKKACiiigAooooAKKKKACiiigAooooAKKKKACiiigAooooAKKKKACiiigAooooAKKKKACiiigAooooAKKKKACiiigAooooAKKKKACiiigAooooAKKKKACiiigAooooAKKKKACiiigAooooAKKKKACiiigAooooAKKKKACiiigAooooAKKKKACiiigAqC3/191/11H/oC1PUFv/r7r/rqP/QFoAnooooAKKKKACiiigAooooAKKKKACoE/wCQjN/1yj/m9T1An/IRm/65R/zegCeiiigDM8SayPD3hm/1doTOLOEy+WDjdj1PYep7CqVhd6+RZTzS6XqVpduC0tkjx+ShUkMMu4kGcDPy9c4rT1i9TTtJmuZreS5jXaHhjjLs4ZgpAUAljz0A56V56ItM0TxTpw+HOpfNc3qpqOhW8nmQpE2S8hj/AOXdl6/w5OBiiPxWCXw39TvLXxLoV8t01lrWn3As1L3JhukfyFGcl8H5RweT6GkfxPoMVrbXUmt6clvdki3ma7jCTEcHYc4b8K5bVLW+8O+MJotFt2Nr4p/ds8QH+iXSj5pT7GIE/wC9GPWk8STaToGqCK01Sw067j0xIBYaio+z3kAZwsa8gh8hh8ueoyrcYXS/9eY7a2/rp/Xr950N74z0HT/EVpot3qdpFd3UZkRZJ1XjICjk9WLcDqcHFaD6zpceqJpkmpWiX7jcto06iVh6hM5P5Vx7alFH438I3t9byact3o9xGkEoJZJWMDCLpywAPHXg1zNrBZ6n5vh7xBretwa1DqL3K6XHbwr5jiYvHLHJ5BbaeDu38DOcCrtql6/g7f8ABIvo36flc9Uute0ixWU3uq2VuIWVJTLcInls33Q2TwTjgHrUn9racdSXThf2v25k8xbbzl8wr/eC5zj3rza31Xw23in4im9vtNKCKIN5kqHgQBHH/fZCn/aIHWs+DW/D8Hhf4aSrqOnxzJcwGV/OQMuLdkkLHOR82Ac98ZpRV7fL8f8AIp6K/r+B6/c3MFnbvcXc0cEMYy8krhVUepJ4FV11rSnuZrdNSs2ngj82aITqWjTruYZyB7nisD4oXNrbfC/XzeSxRrJZSRx+YwG5yp2qM9ST0Fc7dar4Xbxh4FC3mmEyW0wXbIhBDIuz25kXjPVgcc0lq3/Xf/ITdrf12/zPRLTVLC/sPt1jfW1zaYJ+0QzK8fHX5gccUyy1nS9TtJLrTtSs7u3iJEk0E6yIhHXJBwK8mOpW15Y+LRoF558MPiGG7nTTDHLJ9nCxb5EQhlYblJ6EHaeta1pD4a1G11nXk8Ratqdpd2SW97fPFFGkeHGwhVhQM65Ocg4HBHIFHS/l+if/AABvR2/re3/BPQbPXdI1C0lurDVbK6t4RmWaG4R0QepYHA6Hr6U6z1rS9Rs3u9P1KzuraMEvNBOrouPVgcCuEOsafqWn61Hquo2l1ZRpak+INLUbWbzcIrj5k3o2C2CQVbkAcVFfeIoJ/C/iKS8trDXbWE2+/UrAstvdBmxl9pPMWAX2scjHToG0B6Dpus6ZrMTy6PqNpfxo213tZ1lCn0JUnBqk/jHwzHemzfxHpK3IfyzAb6IPuzjbt3ZzntXF6PPDdeP/ABAJdTe8W/0KBhcWkGwOAZQTCADkAEYOW5OMngVk+E9c0LUtQ8J21xrOj20mix+XarHI6XFyWj8sI6MiiPrkgM+5gMUJXf8AXmv0E3Zf12T/AFPVptZ0u31KLTrjUrSK+mGY7V51WV/opOTSXOt6VZ6hFY3mp2cF3MMx28twiyOOnCk5NeVSQWeozar4a8Ta5rdrqUupS3EWnQW0P+kjzS8MkUhgZsY2jdv+Xac4Ard1rVrHStb1IWN9a3l5JcQm70K7A864kCxhXtyPmyFCn7rDK/w8mhK9vP8Ar+v6s3pfyPQEvLaS8ltY7iJriFVaSFXBdA2cEr1AODj1xU1ZdrdaRJ4lvra2SMatFDE10wgKuYzu8sF8fMOGwMnFalIAooooAKKKKACiiigAooooAKKKKACiiigAooooAKKKKACiiigAooooAKKKKACiiigAooooAKKKKACiiigAooooAKKKKACiiigAooooAKKKKACiiigAooooAKKKKACiiigAooooAKKKKACiiigAooooAKKKKACiiigAooooAKKKKACiiigAooooAKKKKACiiigAooooAKKKKACiiigAooooAKKKKACiiigAooooAKKKKACiiigAooooAKKKKACiiigAooooAKKKKACiiigAooooAKKKKACiiigAooooAKKKKACiiigAooooAKKKKACiiigAooooAKKKKACiiigAooooAKKKKACiiigAooooAKKKKACiiigAqC3/ANfdf9dR/wCgLU9QW/8Ar7r/AK6j/wBAWgCeiiigAooooAKKKKACiiigAooooAKgT/kIzf8AXKP+b1PUCf8AIRm/65R/zegCeiiigAoqrfuyQoqkje+0kemCf6Vn+TF/zzT/AL5FOwri6bo17Bqk17q+rNqTB5PsifZ1iW2jY52/L94gADcew6cnOzWL5EX/ADyT/vkUeRF/zyT/AL5FFgubVFYvkRf88k/75FHkRf8APJP++RRYLm1RWL5EX/PJP++RR5EX/PJP++RRYLm1RWL5EX/PJP8AvkUeRF/zyT/vkUWC5tUVi+RF/wA8k/75FHkRf88k/wC+RRYLm1RWL5EX/PJP++RR5EX/ADyT/vkUWC5oapY/2npN1Y/aJrb7RE0fnQEB0yMZBOeay7PRtXaJbfW9Xtr61QqQkFh5DPtOQHJdgeg+6q1J5EX/ADyT/vkUeRF/zyT/AL5FFgubVFYvkRf88k/75FHkRf8APJP++RRYLm1RWL5EX/PJP++RR5EX/PJP++RRYLm1RWL5EX/PJP8AvkUeRF/zyT/vkUWC5tUVi+RF/wA8k/75FHkRf88k/wC+RRYLm1RWL5EX/PJP++RR5EX/ADyT/vkUWC5tUVi+RF/zyT/vkUeRF/zyT/vkUWC5tUVi+RF/zyT/AL5FHkRf88k/75FFgubVFYvkRf8APJP++RR5EX/PJP8AvkUWC5tUVi+RF/zyT/vkUeRF/wA8k/75FFgubVFYvkRf88k/75FHkRf88k/75FFgubVFYvkRf88k/wC+RR5EX/PJP++RRYLm1RWL5EX/ADyT/vkUeRF/zyT/AL5FFgubVFYvkRf88k/75FHkRf8APJP++RRYLm1RWL5EX/PJP++RR5EX/PJP++RRYLm1RWL5EX/PJP8AvkUeRF/zyT/vkUWC5tUVi+RF/wA8k/75FHkRf88k/wC+RRYLm1RWL5EX/PJP++RR5EX/ADyT/vkUWC5tUVi+RF/zyT/vkUeRF/zyT/vkUWC5tUVi+RF/zyT/AL5FHkRf88k/75FFgubVFYvkRf8APJP++RR5EX/PJP8AvkUWC5tUVi+RF/zyT/vkUeRF/wA8k/75FFgubVFYvkRf88k/75FHkRf88k/75FFgubVFYvkRf88k/wC+RR5EX/PJP++RRYLm1RWL5EX/ADyT/vkUeRF/zyT/AL5FFgubVFYvkRf88k/75FHkRf8APJP++RRYLm1RWL5EX/PJP++RR5EX/PJP++RRYLm1RWL5EX/PJP8AvkUeRF/zyT/vkUWC5tUVi+RF/wA8k/75FHkRf88k/wC+RRYLm1RWL5EX/PJP++RR5EX/ADyT/vkUWC5tUVi+RF/zyT/vkUeRF/zyT/vkUWC5tUVi+RF/zyT/AL5FHkRf88k/75FFgubVFYvkRf8APJP++RR5EX/PJP8AvkUWC5tUVi+RF/zyT/vkUeRF/wA8k/75FFgubVFYvkRf88k/75FHkRf88k/75FFgubVFYvkRf88k/wC+RR5EX/PJP++RRYLm1RWL5EX/ADyT/vkUeRF/zyT/AL5FFgubVFYvkRf88k/75FHkRf8APJP++RRYLm1RWL5EX/PJP++RR5EX/PJP++RRYLm1RWL5EX/PJP8AvkUeRF/zyT/vkUWC5tUVi+RF/wA8k/75FHkRf88k/wC+RRYLm1RWL5EX/PJP++RR5EX/ADyT/vkUWC5tUVi+RF/zyT/vkUeRF/zyT/vkUWC5tUVi+RF/zyT/AL5FHkRf88k/75FFgubVFYvkRf8APJP++RR5EX/PJP8AvkUWC5tUVi+RF/zyT/vkUeRF/wA8k/75FFgubVFYvkRf88k/75FHkRf88k/75FFgubVFYvkRf88k/wC+RR5EX/PJP++RRYLm1RWL5EX/ADyT/vkUeRF/zyT/AL5FFgubVFYvkRf88k/75FHkRf8APJP++RRYLm1RWL5EX/PJP++RR5EX/PJP++RRYLm1RWL5EX/PJP8AvkUeRF/zyT/vkUWC5tUVi+RF/wA8k/75FHkRf88k/wC+RRYLm1RWL5EX/PJP++RR5EX/ADyT/vkUWC5tUVi+RF/zyT/vkUeRF/zyT/vkUWC5tUVi+RF/zyT/AL5FHkRf88k/75FFgubVFYvkRf8APJP++RR5EX/PJP8AvkUWC5tUVi+RF/zyT/vkUeRF/wA8k/75FFgubVFYvkRf88k/75FHkRf88k/75FFgubVFYvkRf88k/wC+RR5EX/PJP++RRYLm1RWL5EX/ADyT/vkUeRF/zyT/AL5FFgubVFYvkRf88k/75FHkRf8APJP++RRYLm1RWL5EX/PJP++RR5EX/PJP++RRYLm1RWL5EX/PJP8AvkUeRF/zyT/vkUWC5tUVi+RF/wA8k/75FHkRf88k/wC+RRYLm1RWL5EX/PJP++RR5EX/ADyT/vkUWC5tUVi+RF/zyT/vkUeRF/zyT/vkUWC5tUVi+RF/zyT/AL5FHkRf88k/75FFgubVFYvkRf8APJP++RR5EX/PJP8AvkUWC5tUVi+RF/zyT/vkUeRF/wA8k/75FFgubVFYvkRf88k/75FKIkU5RQjdmUYIosFzZoqO3cy20UjdWQMfxFSUhhUFv/r7r/rqP/QFqeoLf/X3X/XUf+gLQBPRRRQAUUUUAFFFFABRRRQAUUUUAFQJ/wAhGb/rlH/N6nqBP+QjN/1yj/m9AE9FFFAFPUfuQ/8AXT/2VqqVb1H7kP8A10/9laqlUiWFFFFABRXDeL/7e0XTVv7fxNeo8+oxQrClvbeXHFJMFAG6ItkKepJ5p3i+31jRfB+r3X/CR31wFSEwu6xRyRN5mG+aJE4IIHtg0LVX/r+tQ62O3orNsdf03UNSm0+1uC11DGJGjaN03ITjcpYAOueMqSKZD4n0i41OOwjum8+bPkloXWOfAyfLkKhXwP7pNAjVorG8W6pdaL4Xu7+xj3ywhcnyzJ5algGfaOW2qS2PaoNHkurlbO807xANa02VmM0kkcRbG042NGFAAbGQQT78GhajOgorntF8Y2OrtqbNHc2kVhM6NJdWskKBEAyxdgFByT8ucgYJAq5Y+JtK1G9azt7iRbkJ5gint5IWdP7yh1G5fdcigDVorEs/GOg394lraaijzSGUKNjAZjOHBJGBj3+oqey8SaVf6j9ht7hvtJQyIksEkfmoOrRllAccjlSRzRuBqUVR1TWtP0VIH1S5W3WeUQxswJDOeg4HH41VTxZo82mx30FzJPDKzqiw20skjFG2v+7VS/B4JxxQBsUVmr4h0p9Hi1SO9jktJjiJ0BYyN02qoG4tkEbQM5HSqbeNdDWyvLpri4EdiFN0psp/MgDZILps3KMAnkcDnoRRsBvUVmnxDpo1Sy08zSC5v4jLbAwSbZFAycPt25A5wTnpxzUcvifSIdRjspbplkll8lHML+U0nTZ5uNm/II27s54xT62F0ua1FZn/AAkemHUhYiaUzGTygwt5DEX7p5m3ZuGDkZyMVU0LxXba7qupWUNteRNZXBhDTWkqKwCqSSxXaDluFJzjBxg0lrsPY3qK5PxDqUmnePfDga8mitJorszQqxKyFUXb8o+8ck4HJzWtF4o0ebRm1WO8/wBEWTyWJjcOJN23Z5ZG7fnjbjPI4o6XA1qKy7TxJpV7ZXV1FclI7M7bgTwvC8JxnDI4DDgjHHPaptN1mz1YyrZmcPDjzI57aSB1znHyyKDzg0xF6iuT1bWF0j4hWpvL2aOybSp3aAbmVnWWIAhFBLNgnoCetbNp4k0i/wBGXVbO+jms2O0SKCSWzjZtxu3Z424zntS6X/rew3o7GnRWZZeItL1C1uZ4LrYlocXKzxtC8Jxn50cBl455FMtvE+k3TXSJcSRyWkfmzRT28kLqn9/a6gleOoBFAGtRWPa+LNFvbqygtr3e9/H5lsxicJKNu7Acjbuxztzu9qvanqdno2mzX+pTCC1hXdJIVJ2j6AE09tw3LVFZEPivRbiK5e3vfNFtIIpFSJ2YuV3AKoGXJHI2g5qjq3jKxg8H6lrGmPJcNaJIvli2lLRyqpIWRNu5B0yWAAHWpbsrjSu0jpaK4vw9q2lxahYPJqWufbNUgCCC+huRDLKF3My+Ym1TgHhSFx26VvQeJ9Jnjv3S5dRp0giuhLBJGUY9BhlBbORjGc5GM5qmrbkp3Nais611/Tru1uLhJpIo7b/XfaYJIGj4yMrIoI49qTTvEGm6pcTwWszrPbgNLDcQPBIqno22RQdpwecYpDNKiuK1bxRbXviLw5BpGo3IWa/KuqxOkVzH5TnKuVAkUELypI6V0niDWItA0C71OdS4t0yqA4LsThV/FiB+NHS4dbGjRWU2pW+i2touuXyrcXbhA7AhWkIyVHZRgHGew5JOTT7DxBpmpR3b2tzj7E225E0bQtDxnLBwCBjnPQigDSorJsvFGkX98LO3uXFwyGSOOa3kiMyDq0e9R5g91zUHhvxVbeJJL1be3u4fs07xDz7SWMEKdp+ZlC5zn5c5A6gUwN2iqGp63Y6QoN68u4qW2QQSTOFHViqKSFHrjFQv4m0ZI7BzfxFNRBNq65YS4UscED0B/l1pAatFZll4i0q/0+5vYLsLBaMyXDTo0JhKjJDq4BXjnkVFbeKtJu5poYZpxPDEZjbyWkqSug/iRGUM491BoA2KKwx4y0M6TaamLqX7HeT/AGeGX7LLjzN+zaw25T5uPmxUureKtI0SR49QuJA8UXnSrBbSzmJOfmfy1bYODy2BwaANeiuK1bxHFdal4U1HTr26i0+7u5FcPHJCsyeQ7AlWALDIBHGD2rp9K1qw1uCWXTZmkEMhilV42jeNx1VlYBgeR1HenYX9f19xeorN1LxDpukzeVeyyhwnmMIbeSXy05+Z9inYvB5bA4PpUN94r0XTrl7e7vNs6QC4MSxO7GMnGQFBJ78Dng+hpDNiisgeKtFfR7bVIb0T2l0223aCNpWlbn5VRQWLcHIAyMHPSpbbxBpd3pMmpQ3ii0iZkkeVTGY2BwVZWAKtnjBGaYGlRWXY+JNK1D7UIbkxtZqHuEuYnt3iUjIYrIFIXg84xxRZ6/pmrXc2n288q3Kx7zFLDJA5QnG9d4Usuf4lyPekBqUVj6Hqz3V7qWl3bbrvTZlRnxjzI3Xcj49cHB91PTpWxQAUUUUAFFFFABRRRQAUUUUAFFFFABRRRQAUUUUAFFFFABRRRQAUUUUAFFFFABRRRQAUUUUAFFFFABRRRQAUUUUAFFFFABRRRQAUUUUAFFFFABRRRQAUUUUAFFFFABRRRQAUUUUAFFFFABRRRQAUUUUAFFFFABRRRQAUUUUAFFFFABRRRQAUUUUAFFFFABRRRQAUUUUAFFFFABRRRQAUUUUAFFFFABRRRQAUUUUAFFFFABRRRQAUUUUAFFFFABRRRQBo2f8Ax4wf9c1/lU1Q2f8Ax4wf9c1/lU1SUFQW/wDr7r/rqP8A0BanqC3/ANfdf9dR/wCgLQBPRRRQAUUUUAFFFFABRRRQAUUUUAFQJ/yEZv8ArlH/ADep6gT/AJCM3/XKP+b0AT0UUUAU9R+5D/10/wDZWqpVvUfuQ/8AXT/2VqqVSJZW1C2nu7F4bS9ksZmxtuIkR2TnsHBX25FM0uzurG0MV9qU2pSbiRNNHGjAemEVR+nerlFAHGfEyaQ6HZ21tZX15Mb+3n22lnJNhI5VZiSqkDgdDye1S/EC4a9+HdyLKzvrmS8EYihispWk++G+ZNu5eAfvAenWuuoo6fO/9fcHW5w19cNqXj+2NrZ6jGk2iz2wun0+dI45JGRkDMVGOFPXoeDzxWf4Z0iGd9Ms9T8P67FqelPGzS3l7cPaRsgx5kZMpRsjIAA4zggCvSaKa02/rVv9RPX+vJL9Cnql1dWdl51lZveyiRAYYyAxUsAxGSBkDJ5PauPXTID45sL7wnp97pzmZv7XLWsltbzR7T1VwFd9xGGTPck13lFJaO43tY85vNL1W98PeKdKs7G4W8OqNewiVNsVym+Nwoc8HcFI46d8VqXUh8ReINC1O3sb+0TSWmnuXuLSSN1DRlfKUEZcknPyZHy9eRXZUULRJdrfgrB1fnf8Tzzw/Z3erfDrxFpUNteWN5dT3piF5ayW+RK7lCCwGQQRnHTvU3hqxtNQ1axupvD+vWeoafu3y6reXEkcJK7WEReRlfd6gYwMnBwK72imtP67C3/H8TkPH87IuhrHZX10Y9UguJPslnLPsjQ/Mx2KcdRx1PYGq3i23li8S2WrTWGsX2mvaG3caTPNHNA+/cGKRsrMpHB64x0ruKKS0++/4WHv/Xnc88m0yTw8dC1XSdEvjpttdXEtxYozz3K+cm0SkMzFmzkkA5Af1zT54Z9buvHMFpbSRz3emwpFFKArMTFIBkds8defXFegVi6f4bGn+JL7WRqt/PJfBVlglMXlALnZgBARtBI6855zSkuZWBPlaa/rU56CS61DWPB1xFpWoRRWccyXDT2zR+UxhC4IbB69+h7E81l6XoSP/wASLXNC1ye9huC6XBvbg2EmJCyS8ShBjglcZz0Fen0VTd5cxNrRscOs1xBr23QrTU4Xk1E/a7K6s3Nq6eZ886Ssu1Tj5wFbk/w5Oa0fDKz2niLxJb3Fncx+fqH2mKZoiI3QwxqCH6E5UjA5HeunooWn9en+RT1/r1/zOO8QTuvxK8NOtnfSw28dyJp4bKWSOMyKqpl1Ugcqc88dTgViRX14NO1l7TRtQxJry3BaXS5DIkDbf38SOnzMCuQMEjqR6+mUUlp/XncOlv62a/U870+za21Dxeb7SdWu7O8FtInmK5knXYFYqeu4HJCjBXA4Wt/wvcX0uoXiO15c6ascf2e61C0a3n3ZbdGQyqWVRghiv8R5PWulop9RdDltZaTTvHmnatNZ3c1kunz2zy2tu85R2kjYZVAWwQp5xiue1Dw7qKWN3q8NhdtHNrf9otp1rO0FwYfK8olSjAhz9/bkHseeK9KopbL+u9/zHf8Ar5W/I85n8PrqXhvVLzw9pGq211c+QzDU7udbi68qQPsy8hZOAVB4OT6DNTafDYPFd61b6D4ht7mGykgZtSe5nmO7H7uONncsM85Ax79cegUUmrpoadmmeZ2908fh/wABRPpWrebYyxfaV/syfMAWBo2LfJx8zD6jnpXTfEUyN4A1W3t7a6up7qBoYorW3eZmYjjhQcD3PFdNRVSfNfzdxR91ryOI8TxXF9pOhara2Gp3VrZuWubS1eW1utjRlMqoKPkH+HjIJqne2Vra+BPEVzpWi6xFJq1uYljuFuLi6uJPLZQWVi7KOQMnHTnjFeh0Upa38wj7tvI4S+llmsfCGqQ6fqDw6dcgXUX2KUTRgwNHnyioYgMRyAfXmmpA5uvFs+p6LqMlpd3Vq8aRRsJHUJGu9NpzlSN3HI2+td7RVN3bff8A4H+Qo6W8jzy+ttc1nw7qlvape30EMtrPaSXUTWVzchJN8kROEYYCgK+F5bqcZqNdCi1/SdWuNF0rWdP1GfTZbNbjWrmcyZbkRqJJG4z1bpyME849HoqXqmv62sNOzTODlup9Sj8KeTouowy2F+guopLRkEGIJEJ3EBWXJHzKSP5VqfEa0muvA14bZS727xXJQDO5Y5FdhjvwprqKCARgjINNt7+d/wAv8hJLbyt/X3nIeNbzbceG5IbS9u449SS5drSzknCRhHBYlFOOXXjqe2cVi6xaXmvX/jSw02zvYZry1txbyz2ckUVw0Wd6B2UKc8L15ByMjmvQ7S0isrcQW4Kwr9yPtGP7o9B6Dt0HGBU1LpYd9U/63ucXcmXxVqfh2W30+9sZNNuvtN011bPD5IEbKY1LAB9xYD5cjAJz0q74OE9tJrNndWdzA41S5mWSSIrG6O+5SrdGyD2zjBziunop9f68v8hdLf11/wAzg/E1pLaeNDqN7p+tX2nXdpHbh9HuZ0eCRGc/OkTqSpD9ecEds1DLaQ6He+D7Wx0bUILS2u5p2iit5rkWySRyKN7jd825xkZOOewzXoVFC0G9f68rHmN9a3+sL4ti0rT71Jm1C2vIEubSSBLtYhFuUM6gHJQj347c1vureJfFmg6laWd7aR6YJnuJLu2eBvnTaIgHA3cnJIyvy9eRXX0Ulokv62sD1PLRaaingIaH/ZOoNeWmsrLJi3Oxk+2eYHVujDac8Zx3xV7xFdXOn+LtSNhaakiX1pDHdS2+mNfK/DDgI48twpxzkH09fRKxJPDIGqT31hq+pWBuXEk8MEkbRyMABnEiNtOAB8uOlK2lv62sF9W/63ucrNcWaTeCYdHsdVkstOnZXLafOWgUQvEBJ8nytuI6/XpzWx4TuDJ4q8Tk2V9bpPdpLFJcWckSSqIkQlWZQD8yn+fSuotreO1gEUW7aCSSzFiSepJPJNS1V9bv+tv8hdLf11/zOQ8TSeTrEstlFq1tqP2VRFc2lk9xBc8tiGRQpXg9yVID8MOazxqjaf8AEyGfVLO4WZ/DsQmjs7d5/Kfzmyu1AzYzkZwR7139Yi+GVXxe3iH+1L8ztCLc258ryfLByFx5e77xzndnPfHFEdH/AF2f+Y3qn8vzX+RyVtp+paNY2rtp9xFBf61c3cjW9qJ7iwjkDbNqgNtLdGIB2hiOOorx6Tq0WgasLLTL15rPxCuopb3JJa6iUo2A7E7jgEjk8jHXivUKKS0d1/VrW/IHrv8A1e/+ZxeprP4t8NapNpWiXFhdTW6oGvovs085VgwjyDuC9Rk4GW47mm+GLOxvtYh1OPQ9dsru1jeN5dYurh9gbqiCSRg2SAcgY49a7akYFkIDFSRjcOo/OjZ3FujltBt3k+IPijUQuIGFtaq2OHdELN9cbwPzrqqitrWGztxDbpsQEnrkkk5JJPJJJJJPWpaOg+twooooAKKKKACiiigAooooAKKKKACiiigAooooAKKKKACiiigAooooAKKKKACiiigAooooAKKKKACiiigAooooAKKKKACiiigAooooAKKKKACiiigAooooAKKKKACiiigAooooAKKKKACiiigAooooAKKKKACiiigAooooAKKKKACiiigAooooAKKKKACiiigAooooAKKKKACiiigAooooAKKKKACiiigAooooAKKKKACiiigAooooAKKKKACiiigDRs/+PGD/AK5r/Kpqhs/+PGD/AK5r/KpqkoKgt/8AX3X/AF1H/oC1PUFv/r7r/rqP/QFoAnooooAKKKKACiiigAooooAKKKKACoE/5CM3/XKP+b1PUCf8hGb/AK5R/wA3oAnooooAp6j9yH/rp/7K1VKt6j9yH/rp/wCytVSqRLCiiigAqK5ureyt2nvJ4reFfvSSuFUfUmvP/iF4V0K20OO6j0iyNzcavbtLcPArSP5lwCwLEZIOSMdMcVZ8ceGtG0fwLrU+k6Za2ZmjhEiW8Kxq22UFTtAAz8x5oW1/66f5g97HeUVgQeJJU8RS6VqlgLNfsbXkE4n8wPGrBW3DA2sNw4BYc9ayLP4mabdazp1qr2Dwak4jga21FJpo2IyoliA+TPTIZsHAOKa12FstTtqikureK4it5Z40mmz5UbOA0mBk4HU474rD8c6nqOkeEbq80hIWnXapaWQrsVmCkjAOTz7evbBWXU3j8Q6HaappNt9sulnKTxTeaLYquSFZkUncMdh39KFqB0FRR3VvNcSwRTxPNDjzY1cFo89MjqM4PWuf/wCEqvJljvNO0aS90prr7MZ4pSZsh9hkEQUgxgg8lgcAnGKzLa+OneOPFpsoI7i9kS0MFqZPLM7+W3GQDj3OMDvgc0vMfkdxRXMan4vOixWtvqw0qy1O4jaUQ3OqCKBVUgf61kBJORwEPfsM1jy+O77WdL0W78OW1owutU+xXKS3ZGHUM21XRGBU7c7/AEI454N3/Xewf1+p39FVri4lttLkuXhVpo4i7RI/BIGSAxA/PA+lc9Z+Mbm4/sCebSPJs9cRRFL9pDNHIYzIFZdv3SAfmzn/AGRQHS51VFcc/jW/j8M6/qT6Pb/aNDuHhmt1viVkVEVyyv5Wc4boV7da0LjxNcLrlnpdrpnnS3li93G7XARQVKjaeCcfOOQD9DRv/Xlf8g2/r5HQ1GtzA109ss0ZnRQzRBxuUHoSOoFchJ47u4vDcusyaEVhsZ3g1BDdjMJR9jGP5f3mOvO3im3FxeWnxG1OTR9NW+uX0m3IjMwhU/vJerEH+R/DrR1X9dLhbR/11sdrRXIr8QtPOhW17KIbG6nnktjb6hdLAsMsed6vJyABjqAScjj0rR/Eq3l8MajqkFpFcy6bcpb3EVtdrJG29lCskoHzKdw7A8EY4p9RHb1FHdW8txLBFPG80OPNjVwWjyMjcOoyPWq2l3d9dxznUtNOnskxWJTOsvmJgYf5enUjHbHfrWQfENrZXviWV9LET6Wkck80e3dcgxlgScDoOOScc0hnS1FLdW8E0MU08cck7FYkdwGkIGSFHc4GeKo6PqF/fbzf2VvAmxHimtbvz45Q2ejFF5GB27jmoNX1CG18RaFaz6dHcPeTSpDctjNuyxMxIyCckAjgjrTtqHQ2qK5K78aXlvY63dw6J5sei3LR3OboKWjVFcsnynLYb7pwOOvapdc8b2WlXCWsU+nLdNbrc7NR1BbRSjEgAEhiWODxjA7kZGV0uFjqKZNNFbQPNcSJFFGpZ5HYKqgdSSegrjJfiE7+H9K1/T9Ljm0e8dY7q5lu/LNkd+1mZQjAqCPvA/kOa07nWrk+FtX1LU9HgezgileKEXHmfa4VBO5gyAKGA6c9aJaJ+QLVpdzoY5EljWSJldHAZWU5DA9CDTq52XxBLFJptjpWn2zT3Vp9oSGe68hQgA+RCEbcwyOMAY7iqlzrevHxpo9jb2NqltdWMlxLHNdMjqQYw2cRkZXfwO/OSuKdtbf11/yJvpf+v61Otorhr74o6VZ3akS6fLZ/afs0m3UU+1Id+zf5GMlM992cc4rUuvFF+t5rVrp+jC5l0pUcl7oRrKrIW4O0kHA4GOe5HdXVuboV1sdLRXG3fibVrzVPC76Ha2r2WqwPc7bm5aJ2/dbgp2owAAbPfJHbGT2VNprcSdwooopDCiiigAooooAKKKKACiiigAooooAKKKKACiiigAooooAKKKKACiiigAooooAKKKKACiiigAooooAKKKKACiiigAooooAKKKKACiiigAooooAKKKKACiiigAooooAKKKKACiiigAooooAKKKKACiiigAooooAKKKKACiiigAooooAKKKKACiiigAooooAKKKKACiiigAooooAKKKKACiiigAooooAKKKKACiiigAooooAKKKKACiiigAooooAKKKKACiiigAooooAKKKKACiiigAooooAKKKKACiiigAooooAKKKKACiiigAooooA0bP8A48YP+ua/yqaobP8A48YP+ua/yqapKCoLf/X3X/XUf+gLU9QW/wDr7r/rqP8A0BaAJ6KKKACiiigAooooAKKKKACiiigAqBP+QjN/1yj/AJvU9QJ/yEZv+uUf83oAnooooAp6j9yH/rp/7K1VKt6j9yH/AK6f+ytVSqRLK2oadZ6tYvZ6lbR3VtJjfFKu5WwcjI+opml6Pp2iWhtdIsobOAsXMcKBV3HqcD6CrlFAHMeOdH1nXdNtrPRUsfkuormSS7uHTHluGCgKjZzjrkY9DT/F2l6zr/gyTTrOKxivbnYJRLcv5cYDBjtYR5bpjlV659q6SijoHW5yc+i65f8Ai63v7y206Ow/s6SynWO8kaT95tZiuYgDgrgZIyOeOlSeHtK8T6akOm6lf2E+m2YVYbiFHW4mRfuq4+6vQZIzkcYGc11FFNaf18/1YnqZHirSZ9c8L3unWckcc8yjy2lzt3KwYZxzjjFZt9pviK78UaFqHk6X5FiJPtI+0yBiZBtIQeWQdoGckjcey11NFIDkNF8PeItDml0y2vrFtCad5YpGV/tUSuxYxgfd6kgNnI9KzdR8G67qOua3qfl6bb3Mxik0u6iu5PMtpIhtUt+6+6wJ3AZGOOeo9BooH1OPudJ8WSzWGs28mlQazbwtbXFu0kj21zGSDkNtDIwIyOD16mrWraJrN/Y6ZMs9pJqNnqCXjo5dISArKUU4YjhuuDkjoM8dNRT/AK/X8xf1+n5FLUo72XRbiKzWCS8khKKJXaOMsRjJIDEDv0P9a5GLw74ni0jwrZiDSS2iSI0zG8lxKEjaMbf3XBIbPPQjHPWu7opLR39PwH0t6/icRf8AhLWZbPxTp1nNYi01xpJo5ZWfzI3eNUKlQMY+UHdn8Kt/2LrqeMdN1JItPktLPT2tGzcusjFipLBfLIwCmMZ5znjpXWUULS1v60t+TB67/wBdf0PPZ/C3im58F67o0kOjrNql3LOki3spWNZHLMD+5ySDgD1yemOds6Zr0HiBdZtIdOkluLGO1ubaW5kVY2RmbckgjO4fOeCq9OtdPRR/X4WBu/8AXnc46bwdqFlZWlzoV/ANZt7ua7d7mMiG5ab/AFisAcqvTBGSNo60eJND8Ta74RlsWbTDf3UkRkBmkSGFUcOAvyMWJI5JC9fauxopgR27TNbRm6jjjnKjzEjcuqt3AYgEj3wPpXL22l+JrfXvEN8iaXGL9Y/sh+0SOVMY2gOPLHDDJODx05611lFIDnfDuh3en6reXs9vZ6dFcoqmxsJmkiMgJJl5VAGOQCAvbJJpPEGmazfeJdCvNOisWtNOmaaUz3DpI25GjIUCMjgNnJPJ44610dFPsHfzOEk8O+J5NH8VWfkaSH1uV3hb7ZLiIPGsZ3fuucBQeOpOOOtWm0PxNaX1rq2kS6Yl7JZx2l/Z3DyNC4jLFXRwoYEbm4K459s12NFJafh+GgPX+u5g3Wm6reG0sb37Hd6bIrHUS0jo0hOcIqbSPL9iwJHBJ53Ydv4f8VweENX8PsNMmt5Y5INOeS9lLQxOCoRz5XzbVPB9gPeu6ootfQabTT7HJXOj65daPZWN7pmi30KWyxzQz3MgEcq8CSN/KJ6YPQEHoe5fD4c1ez1Lw/dx3sN49hZSWd3Lclg8m7YfMXrk5ToSOvWuqop3d7/11/zJtpY5LS9C8SaRcS6bbX1i+htK8kcrq4uoVdixQY+U9Thicj0NNXSfEkWseI7qO20po9TjRLYNeSBlKLsBf90eoJPGcEY5zkdfRU2TVhp2dzi7Dw1rtpYeFcnThdaLE1vMvmuyOhjCb1OwHdwDtIA6jPeu0ooqm23diSsFFFFIYUUUUAFFFFABRRRQAUUUUAFFFFABRRRQAUUUUAFFFFABRRRQAUUUUAFFFFABRRRQAUUUUAFFFFABRRRQAUUUUAFFFFABRRRQAUUUUAFFFFABRRRQAUUUUAFFFFABRRRQAUUUUAFFFFABRRRQAUUUUAFFFFABRRRQAUUUUAFFFFABRRRQAUUUUAFFFFABRRRQAUUUUAFFFFABRRRQAUUUUAFFFFABRRRQAUUUUAFFFFABRRRQAUUUUAFFFFABRRRQAUUUUAFFFFABRRRQAUUUUAFFFFABRRRQAUUUUAFFFFABRRRQAUUUUAFFFFAGjZ/8eMH/AFzX+VTVDZ/8eMH/AFzX+VTVJQVBb/6+6/66j/0BanqC3/191/11H/oC0AT0UUUAFFFFABRRRQAUUUUAFFFFABUCf8hGb/rlH/N6nqBP+QjN/wBco/5vQBPRRRQBT1H7kP8A10/9laqlW9R+5D/10/8AZWqpVIlhRRRQAUUUUAFFFFABRRRQAUUUUAFFFFABRRRQAUUUUAFFFFABRRRQAUUUUAFFFFABRRRQAUUUUAFFFFABRRRQAUUUUAFFFFABRRRQAUUUUAFFFFABRRRQAUUUUAFFFFABRRRQAUUUUAFFFFABRRRQAUUUUAFFFFABRRRQAUUUUAFFFFABRRRQAUUUUAFFFFABRRRQAUUUUAFFFFABRRRQAUUUUAFFFFABRRRQAUUUUAFFFFABRRRQAUUUUAFFFFABRRRQAUUUUAFFFFABRRRQAUUUUAFFFFABRRRQAUUUUAFFFFABRRRQAUUUUAFFFFABRRRQAUUUUAFFFFABRRRQAUUUUAFFFFABRRRQAUUUUAFFFFABRRRQAUUUUAFFFFABRRRQAUUUUAFFFFABRRRQAUUUUAaNn/x4wf8AXNf5VNUNn/x4wf8AXNf5VNUlBUFv/r7r/rqP/QFqeoLf/X3X/XUf+gLQBPRRRQAUUUUAFFFFABRRRQAUUUUAFQJ/yEZv+uUf83qeoE/5CM3/AFyj/m9AE9FFFAFPUfuQ/wDXT/2VqqVb1H7kP/XT/wBlaqlUiWFFFFABRRRQAUUUUAFFFFABRRRQAUUUUAFFFFABRRRQAUUUUAFFFFABRRRQAUUUUAFFFFABRRRQAUUUUAFFFFABRRRQAUUUUAFFFFABRRRQAUUUUAFFFFABRRRQAUUUUAFFFFABRRRQAUUUUAFFFFABRRRQAUUUUAFFFFABRRRQAUUUUAFFFFABRRRQAUUUUAFFFFABRRRQAUUUUAFFFFABRRRQAUUUUAFFFFABRRRQAUUUUAFFFFABRRRQAUUUUAFFFFABRRRQAUUUUAFFFFABRRRQAUUUUAFFFFABRRRQAUUUUAFFFFABRRRQAUUUUAFFFFABRRRQAUUUUAFFFFABRRRQAUUUUAFFFFABRRRQAUUUUAFFFFABRRRQAUUUUAFFFFABRRRQAUUUUAFFFFABRRRQBo2f/HjB/wBc1/lU1Q2f/HjB/wBc1/lU1SUFQW/+vuv+uo/9AWp6gt/9fdf9dR/6AtAE9FFFABRRRQAUUUUAFFFFABRRRQAVAn/IRm/65R/zep6gT/kIzf8AXKP+b0AT0UUUAU9R+5D/ANdP/ZWqpVvUfuQ/9dP/AGVqqVSJYUUUUAFFFFABRRRQAUUUUAFFFFABRRRQAUUUUAFFFFABRRRQAUUUUAFFFFABRRRQAUUUUAFFFFABRRRQAUUUUAFFFFABRRRQAUUUUAFFFFABRRRQAUUUUAFFFFABRRRQAUUUUAFFFFABRRRQAUUUUAFFFFABRRRQAUUUUAFFFFABRRRQAUUUUAFFFFABRRRQAUUUUAFFFFABRRRQAUUUUAFFFFABRRRQAUUUUAFFFFABRRRQAUUUUAFFFFABRRRQAUUUUAFFFFABRRRQAUUUUAFFFFABRRRQAUUUUAFFFFABRRRQAUUUUAFFFFABRRRQAUUUUAFFFFABRRRQAUUUUAFFFFABRRRQAUUUUAFFFFABRRRQAUUUUAFFFFABRRRQAUUUUAFFFFABRRRQAUUUUAFFFFAGjZ/8eMH/AFzX+VTVDZ/8eMH/AFzX+VTVJQVBb/6+6/66j/0BanqC3/191/11H/oC0AT0UUUAFFFFABRRRQAUUUUAFFFFABUCf8hGb/rlH/N6nqBP+QjN/wBco/5vQBPRRRQBT1H7kP8A10/9laqlW9R+5D/10/8AZWqpVIlhRRRQAUUUUAFFFFABRRRQAUUUUAFFFFABRRRQAUUUUAFFFFABRRRQAUUUUAFFFFABRRRQAUUUUAFFFFABRRRQAUUUUAFFFFABRRRQAUUUUAFFFFABRRRQAUUUUAFFFFABRRRQAUUUUAFFFFABRRRQAUUUUAFFFFABRRRQAUUUUAFFFFABRRRQAUUUUAFFFFABRRRQAUUUUAFFFFABRRRQAUUUUAFFFFABRRRQAUUUUAFFFFABRRRQAUUUUAFFFFABRRRQAUUUUAFFFFABRRRQAUUUUAFFFFABRRRQAUUUUAFFFFABRRRQAUUUUAFFFFABRRRQAUUUUAFFFFABRRRQAUUUUAFFFFABRRRQAUUUUAFFFFABRRRQAUUUUAFFFFABRRRQAUUUUAFFFFABRRRQAUUUUAaNn/x4wf8AXNf5VNUNn/x4wf8AXNf5VNUlBUFv/r7r/rqP/QFqeoLf/X3X/XUf+gLQBPRRRQAUUUUAFFFFABRRRQAUUUUAFQJ/yEZv+uUf83qeoE/5CM3/AFyj/m9AE9FFFAFPUfuQ/wDXT/2VqqVb1H7kP/XT/wBlaqlUiWFFFFABRRRQAUUUUAFFFFABRRRQAUUUUAFFFFABRRRQAUUUUAFFFFABRRRQAUUUUAFFFFABRRRQAUUUUAFFFFABRRRQAUUUUAFFFFABRRRQAUUUUAFFFFABRRRQAUUUUAFFFFABRRRQAUUUUAFFFFABRRRQAUUUUAFFFFABRRRQAUUUUAFFFFABRRRQAUUUUAFFFFABRRRQAUUUUAFFFFABRRRQAUUUUAFFFFABRRRQAUUUUAFFFFABRRRQAUUUUAFFFFABRRRQAUUUUAFFFFABRRRQAUUUUAFFFFABRRRQAUUUUAFFFFABRRRQAUUUUAFFFFABRRRQAUUUUAFFFFABRRRQAUUUUAFFFFABRRRQAUUUUAFFFFABRRRQAUUUUAFFFFABRRRQAUUUUAFFFFABRRRQBo2f/HjB/wBc1/lU1Q2f/HjB/wBc1/lU1SUFQW/+vuv+uo/9AWp6gt/9fdf9dR/6AtAE9FFFABRRRQAUUUUAFFFFABRRRQAVAn/IRm/65R/zep6gT/kIzf8AXKP+b0AT0UUUAU9R+5D/ANdP/ZWqpV+9iaWFSgyUbdj14I/rVD5v+eUv/fpv8KpEsKKPm/55Tf8Afpv8KPm/55Tf9+m/woAKKPm/55Tf9+m/wo+b/nlN/wB+m/woAKKPm/55Tf8Afpv8KPm/55Tf9+m/woAKKPm/55Tf9+m/wo+b/nlN/wB+m/woAKKPm/55Tf8Afpv8KPm/55Tf9+m/woAKKPm/55Tf9+m/wo+b/nlN/wB+m/woAKKPm/55Tf8Afpv8KPm/55Tf9+m/woAKKPm/55Tf9+m/wo+b/nlN/wB+m/woAKKPm/55Tf8Afpv8KPm/55Tf9+m/woAKKPm/55Tf9+m/wo+b/nlN/wB+m/woAKKPm/55Tf8Afpv8KPm/55Tf9+m/woAKKPm/55Tf9+m/wo+b/nlN/wB+m/woAKKPm/55Tf8Afpv8KPm/55Tf9+m/woAKKPm/55Tf9+m/wo+b/nlN/wB+m/woAKKPm/55Tf8Afpv8KPm/55Tf9+m/woAKKPm/55Tf9+m/wo+b/nlN/wB+m/woAKKPm/55Tf8Afpv8KPm/55Tf9+m/woAKKPm/55Tf9+m/wo+b/nlN/wB+m/woAKKPm/55Tf8Afpv8KPm/55Tf9+m/woAKKPm/55Tf9+m/wo+b/nlN/wB+m/woAKKPm/55Tf8Afpv8KPm/55Tf9+m/woAKKPm/55Tf9+m/wo+b/nlN/wB+m/woAKKPm/55Tf8Afpv8KPm/55Tf9+m/woAKKPm/55Tf9+m/wo+b/nlN/wB+m/woAKKPm/55Tf8Afpv8KPm/55Tf9+m/woAKKPm/55Tf9+m/wo+b/nlN/wB+m/woAKKPm/55Tf8Afpv8KPm/55Tf9+m/woAKKPm/55Tf9+m/wo+b/nlN/wB+m/woAKKPm/55Tf8Afpv8KPm/55Tf9+m/woAKKPm/55Tf9+m/wo+b/nlN/wB+m/woAKKPm/55Tf8Afpv8KPm/55Tf9+m/woAKKPm/55Tf9+m/wo+b/nlN/wB+m/woAKKPm/55Tf8Afpv8KPm/55Tf9+m/woAKKPm/55Tf9+m/wo+b/nlN/wB+m/woAKKPm/55Tf8Afpv8KPm/55Tf9+m/woAKKPm/55Tf9+m/wo+b/nlN/wB+m/woAKKPm/55Tf8Afpv8KPm/55Tf9+m/woAKKPm/55Tf9+m/wo+b/nlN/wB+m/woAKKPm/55Tf8Afpv8KPm/55Tf9+m/woAKKPm/55Tf9+m/wo+b/nlN/wB+m/woAKKPm/55Tf8Afpv8KPm/55Tf9+m/woAKKPm/55Tf9+m/wo+b/nlN/wB+m/woAKKPm/55Tf8Afpv8KPm/55Tf9+m/woAKKPm/55Tf9+m/wo+b/nlN/wB+m/woAKKPm/55Tf8Afpv8KPm/55Tf9+m/woAKKPm/55Tf9+m/wo+b/nlN/wB+m/woAKKPm/55Tf8Afpv8KPm/55Tf9+m/woAKKPm/55Tf9+m/wo+b/nlN/wB+m/woAKKPm/55Tf8Afpv8KPm/55Tf9+m/woAKKPm/55Tf9+m/wo+b/nlN/wB+m/woAKKPm/55Tf8Afpv8KPm/55Tf9+m/woAKKPm/55Tf9+m/wo+b/nlN/wB+m/woAKKPm/55Tf8Afpv8KPm/55Tf9+m/woAKKPm/55Tf9+m/wo+b/nlN/wB+m/woAKKPm/55Tf8Afpv8KPm/55Tf9+m/woAKKPm/55Tf9+m/wo+b/nlN/wB+m/woAKKPm/55Tf8Afpv8KPm/55Tf9+m/woAKKPm/55Tf9+m/wo+b/nlN/wB+m/woAKKPm/55Tf8Afpv8KPm/55Tf9+m/woAKKPm/55Tf9+m/wo+b/nlN/wB+m/woAKKPm/55Tf8Afpv8KPm/55Tf9+m/woAKKPm/55Tf9+m/wo+b/nlN/wB+m/woAKKPm/55Tf8Afpv8KPm/55Tf9+m/woAKKPm/55Tf9+m/wo+b/nlN/wB+m/woAKKPm/55Tf8Afpv8KPm/55Tf9+m/woAKKPm/55Tf9+m/wo+b/nlN/wB+m/woAKKPm/55Tf8Afpv8KPm/55Tf9+m/woAKKPm/55Tf9+m/wo+b/nlN/wB+m/woAKKPm/55Tf8Afpv8KPm/55Tf9+m/woAKKPm/55Tf9+m/wo+b/nlN/wB+m/woAKKPm/55Tf8Afpv8KPm/55Tf9+m/woAKKPm/55Tf9+m/wo+b/nlN/wB+m/woAKKPm/55Tf8Afpv8KPm/55Tf9+m/woAKKPm/55Tf9+m/wo+b/nlN/wB+m/woAKKPm/55Tf8Afpv8KPm/55Tf9+m/woAKKPm/55Tf9+m/wo+b/nlN/wB+m/woAKwrDW7vWtYzo8ML6NblknvZCczvg8Q44IBxljwecdMmfXdKu9Zit7NZpoLF5P8ATkSJxJLHg/KrY4BOAR3BPI6GGx8NFdcN9dI0n2Q+VpUESNFFaxFcH5ehY5IJOc4B44AAOts/+PGD/rmv8qmpkMflQRx5zsULn6Cn1JQVBb/6+6/66j/0BanqC3/191/11H/oC0AT0UUUAFFFFABRRRQAUUUUAFFFFABUCf8AIRm/65R/zep6gXjUZfeJMfm3+NAE9FFFABRRRQAUUUUAFFFFABRRRQAUUUUAFFFFABRRRQAUUUUAFFFFABRRRQAUUUUAFFFFABRRRQAUUUUAFFFFABRRRQAUUUUAFFFFABRRRQAUUUUAFFFFABRRRQAUUUUAFFFFABRRRQAUUUUAFFFFABRRRQAUUUUAFFFFABRRRQAUUUUAFFFFABRRRQAUUUUAFFFFABRRRQAUUUUAFFFFABRRRQAUUUUAFFFFABRRRQAUUUUAFFFFABRRRQAUUUUAFFFFABRRRQAUUUUAFFFFABRRRQAUUUUAFFFFABRRRQAUUUUAFFFFABRRRQAUUUUAFFFFABRRRQAUUUUAFFFFABRRRQAUUUUAFFFFABRRRQAUUUUAFFFFABRRRQAUUUUAFFFFABRRRQAUUUUAFFFFABRRRQAUUUUAFFFFABRRRQAVBb/6+6/66j/0BanqC3/110exl/8AZFFAE9FFFABRRRQAUUUUAFFFFABRRRQAVBOjhlmhG50yCufvKeo+tT0UARxXEc33G+YdVPBH1FSUySCKb/WxI/8AvKDUf2G0/wCfWH/v2KAJ6Kg+w2n/AD6w/wDfsUfYbT/n1h/79igCeioPsNp/z6w/9+xR9htP+fWH/v2KAJ6Kg+w2n/PrD/37FH2G0/59Yf8Av2KAJ6Kg+w2n/PrD/wB+xR9htP8An1h/79igCeioPsNp/wA+sP8A37FH2G0/59Yf+/YoAnoqD7Daf8+sP/fsUfYbT/n1h/79igCeioPsNp/z6w/9+xR9htP+fWH/AL9igCeioPsNp/z6w/8AfsUfYbT/AJ9Yf+/YoAnoqD7Daf8APrD/AN+xR9htP+fWH/v2KAJ6Kg+w2n/PrD/37FH2G0/59Yf+/YoAnoqD7Daf8+sP/fsUfYbT/n1h/wC/YoAnoqD7Daf8+sP/AH7FH2G0/wCfWH/v2KAJ6Kg+w2n/AD6w/wDfsUfYbT/n1h/79igCeioPsNp/z6w/9+xR9htP+fWH/v2KAJ6Kg+w2n/PrD/37FH2G0/59Yf8Av2KAJ6Kg+w2n/PrD/wB+xR9htP8An1h/79igCeioPsNp/wA+sP8A37FH2G0/59Yf+/YoAnoqD7Daf8+sP/fsUfYbT/n1h/79igCeioPsNp/z6w/9+xR9htP+fWH/AL9igCeioPsNp/z6w/8AfsUfYbT/AJ9Yf+/YoAnoqD7Daf8APrD/AN+xR9htP+fWH/v2KAJ6Kg+w2n/PrD/37FH2G0/59Yf+/YoAnoqD7Daf8+sP/fsUfYbT/n1h/wC/YoAnoqD7Daf8+sP/AH7FH2G0/wCfWH/v2KAJ6Kg+w2n/AD6w/wDfsUfYbT/n1h/79igCeioPsNp/z6w/9+xR9htP+fWH/v2KAJ6Kg+w2n/PrD/37FH2G0/59Yf8Av2KAJ6Kg+w2n/PrD/wB+xR9htP8An1h/79igCeioPsNp/wA+sP8A37FH2G0/59Yf+/YoAnoqD7Daf8+sP/fsUfYbT/n1h/79igCeioPsNp/z6w/9+xR9htP+fWH/AL9igCeioPsNp/z6w/8AfsUfYbT/AJ9Yf+/YoAnoqD7Daf8APrD/AN+xR9htP+fWH/v2KAJ6Kg+w2n/PrD/37FH2G0/59Yf+/YoAnoqD7Daf8+sP/fsUfYbT/n1h/wC/YoAnoqD7Daf8+sP/AH7FH2G0/wCfWH/v2KAJ6Kg+w2n/AD6w/wDfsUfYbT/n1h/79igCeioPsNp/z6w/9+xR9htP+fWH/v2KAJ6Kg+w2n/PrD/37FH2G0/59Yf8Av2KAJ6Kg+w2n/PrD/wB+xR9htP8An1h/79igCeioPsNp/wA+sP8A37FH2G0/59Yf+/YoAnoqD7Daf8+sP/fsUfYbT/n1h/79igCeioPsNp/z6w/9+xR9htP+fWH/AL9igCeioPsNp/z6w/8AfsUfYbT/AJ9Yf+/YoAnoqD7Daf8APrD/AN+xR9htP+fWH/v2KAJ6Kg+w2n/PrD/37FH2G0/59Yf+/YoAnoqD7Daf8+sP/fsUfYbT/n1h/wC/YoAnoqD7Daf8+sP/AH7FH2G0/wCfWH/v2KAJ6Kg+w2n/AD6w/wDfsUfYbT/n1h/79igCeioPsNp/z6w/9+xR9htP+fWH/v2KAJ6Kg+w2n/PrD/37FH2G0/59Yf8Av2KAJ6Kg+w2n/PrD/wB+xR9htP8An1h/79igCeioPsNp/wA+sP8A37FH2G0/59Yf+/YoAnoqD7Daf8+sP/fsUfYbT/n1h/79igCeioPsNp/z6w/9+xR9htP+fWH/AL9igCeioPsNp/z6w/8AfsUfYbT/AJ9Yf+/YoAnoqD7Daf8APrD/AN+xR9htP+fWH/v2KAJ6Kg+w2n/PrD/37FH2G0/59Yf+/YoAnoqD7Daf8+sP/fsUfYbT/n1h/wC/YoAnoqD7Daf8+sP/AH7FH2G0/wCfWH/v2KAJ6Kg+w2n/AD6w/wDfsUfYbT/n1h/79igCeioPsNp/z6w/9+xR9htP+fWH/v2KAJ6Kg+w2n/PrD/37FH2G0/59Yf8Av2KAJ6Kg+w2n/PrD/wB+xR9htP8An1h/79igCeioPsNp/wA+sP8A37FH2G0/59Yf+/YoAnoqD7Daf8+sP/fsUfYbT/n1h/79igCeioPsNp/z6w/9+xR9htP+fWH/AL9igCeioPsNp/z6w/8AfsUfYbT/AJ9Yf+/YoAnoqD7Daf8APrD/AN+xR9htP+fWH/v2KAJ6Kg+w2n/PrD/37FH2G0/59Yf+/YoAnoqD7Daf8+sP/fsUfYbT/n1h/wC/YoAnoqD7Daf8+sP/AH7FH2G0/wCfWH/v2KAJ6Kg+w2n/AD6w/wDfsUfYbT/n1h/79igCeioPsNp/z6w/9+xR9htP+fWH/v2KAJ6Kg+w2n/PrD/37FH2G0/59Yf8Av2KAJ6Kg+w2n/PrD/wB+xR9htP8An1h/79igCeioPsNp/wA+sP8A37FH2G0/59Yf+/YoAnoqD7Daf8+sP/fsUfYbT/n1h/79igCeioPsNp/z6w/9+xR9htP+fWH/AL9igAluQCUgxLL2UHp7k9hT4IvJiCk7jyWb1J5JpyIsa7Y1VR6KMU6gAooooAKKKKACiiigAooooAKKKKACiiigAooooAKKKKACiiigAooooAKKKKACiiigAooooAKKKKACiiigAooooAKKKKACiiigAooooAKKKKACiiigAooooAKKKKACiiigAooooAKKKKACiiigAooooAKKKKACiiigAooooAKKKKACiiigAooooAKKKKACiiigAooooAKKKKACiiigAooooAKKKKACiiigAooooAKKKKACiiigAooooAKKKKACiiigAooooAKKKKACiiigAooooAKKKKACiiigAooooAKKKKACiiigAooooAKKKKACiiigAooooAKKKKACiiigAooooAKKKKACiiigAooooAKKKKACiiigAooooAKKKKACiiigAooooAKKKKACiiigAooooAKKKKACiiigAooooAKKKKACiiigAooooAKKKKACiiigAooooAKKKKACiiigAooooAKKKKACiiigAooooAKKKKACiiigAooooAKKKKACiiigAooooAKKKKACiiigAooooAKKKKACiiigAooooAKKKKACiiigAooooAKKKKACiiigAooooAKKKKACiiigAooooAKKKKACiiigAooooAKKKKACiiigAooooAKKKKACiiigAooooAKKKKACiiigAooooAKKKKACiiigAooooAKKKKACiiigAooooAKKKKACiiigAooooAKKKKACiiigAooooAKKKKACiiigAooooAKKKKACiiigAooooAKKKKACiiigAooooAKKKKACiiigAooooAKKKKACiiigAooooAKKKKACiiigAooooAKKKKACiiigAooooAKKKKACiiigAooooAKKKKACiiigAooooAKKKKACiiigAooooAKKKKACiiigAooooAKKKKACiiigAooooAKKKKACiiigAooooAKKKKACiiigAooooAKKKKACiiigAooooAKKKKACiiigAooooAKKKKACiiigAooooAKKKKACiiigAooooAKKKKACiiigAooooAKKKKACiiigAooooAKKKKACiiigAooooAKKKKACiiigAooooAKKKKACiiigAooooAKKKKACiiigAooooAKKKKACiiigAooooAKKKKACiiigAooooAKKKKACiiigAooooAKKKKACiiigAooooAKKKKACiiigAooooAKKKKACiiigAooooAKKKKACiiigAooooAKKKKACiiigAooooAKKKKACiiigAooooAKKKKACiiigAooooAKKKKACiiigAooooAKKKKACiiigAooooAKKKKACiiigAooooAKKKKACiiigAooooAKKKKACiiigAooooAKKKKACiiigAooooAKKKKACiiigAooooAKKKKACiiigAooooAKKKKACiiigAooooAKKKKACiiigAooooAKKKKACiiigAooooAKKKKACiiigAooooAKKKKACiiigAooooAKKKKACiiigAooooAKKKKACiiigAooooAKKKKACiiigAooooAKKKKACiiigAooooAKKKKACiiigAooooAKKKKACiiigAooooAKKKKACiiigAooooAKKKKACiiigAooooAKKKKACiiigAooooAKKKKACiiigAooooAKKKKACiiigAooooAKKKKACiiigAooooAKKKKACiiigAooooAKKKKACiiigAooooAKKKKACiiigAooooAKKKKACiiigAooooAKKKKACiiigAooooAKKKKACiiigAooooAKKKKACiiigAooooAKKKKACiiigAooooAKKKKACiiigAooooAKKKKACiiigAooooAKKKKACiiigAooooAKKKKACiiigAooooAKKKKACiiigAooooAKKKKACiiigAooooAKKKKACiiigAooooAKKKKACiiigAooooAKKKKACiiigAooooAKKKKACiiigAooooAKKKKACiiigAooooAKKKKACiiigAooooAKKKKACiiigAooooAKKKKACiiigAooooAKKKKACiiigAooooAKKKKACiiigAooooAKKKKACiiigAooooAKKKKACiiigAooooAKKKKACiiigAooooAKKKKACiiigAooooAKKKKACiiigAooooAKKKKACiiigAooooAKKKKACiiigAooooAKKKKACiiigAooooAKKKKACiiigAooooAKKKKACiiigAooooAKKKKACiiigAooooAKKKKACiiigAooooAKKKKACiiigAooooAKKKKACiiigAooooAKKKKACiiigAooooAKKKKACiiigAooooAKKKKACiiigAooooAKKKKACiiigAooooAKKKKACiiigAooooAKKKKACiiigAooooAKKKKACiiigAooooAKKKKACiiigAooooAKKKKACiiigAooooAKKKKACiiigAooooAKKKKACiiigAooooAKKKKACiiigAooooAKKKKACiiigAooooAKKKKACiiigAooooAKKKKACiiigAooooAKKKKACiiigAooooAKKKKACiiigAooooAKKKKACiiigAooooAKKKKACiiigAooooAKKKKACiiigAooooAKKKKACiiigAooooAKKKKACiiigAooooAKKKKACiiigAooooAKKKKACiiigAooooAKKKKACiiigAooooAKKKKACiiigAooooAKKKKACiiigAooooAKKKKACiiigAooooAKKKKACiiigAooooAKKKKACiiigAooooAKKKKACiiigAooooAKKKKACiiigAooooAKKKKACiiigAooooAKKKKACiiigAooooAKKKKACiiigAooooAKKKKACiiigAooooAKKKKACiiigAooooAKKKKACiiigAooooAKKKKACiiigAooooAKKKKACiiigAooooAKKKKACiiigAooooAKKKKACiiigAooooAKKKKACiiigAooooAKKKKACiiigAooooAKKKKACiiigAooooAKKKKACiiigAooooAKKKKACiiigAooooAKKKKACiiigAooooAKKKKACiiigAooooAKKKKACiiigAooooAKKKKACiiigAooooAKKKKACiiigAooooAKKKKACiiigAooooAKKKKACiiigAooooAKKKKACiiigAooooAKKKKACiiigAooooAKKKKACiiigAooooAKKKKACiiigAooooAKKKKACiiigAooooAKKKKACiiigAooooAKKKKACiiigAooooAKKKKACiiigAooooAKKKKACiiigAooooAKKKKACiiigAooooAKKKKACiiigAooooAKKKKACiiigAooooAKKKKACiiigAooooAKKKKACiiigAooooAKKKKACiiigAooooAKKKKACiiigAooooAKKKKACiiigAooooAKKKKACiiigAooooAKKKKACiiigAooooAKKKKACiiigAooooAKKKKACiiigAooooAKKKKACiiigAooooAKKKKACiiigAooooAKKKKACiiigAooooAKKKKACiiigAooooAKKKKACiiigAooooAKKKKACiiigAooooAKKKKACiiigAooooAKKKKACiiigAooooAKKKKACiiigAooooAKKKKACiiigAooooAKKKKACiiigAooooAKKKKACiiigAooooAKKKKACiiigAooooAKKKKACiiigAooooAKKKKACiiigAooooAKKKKACiiigAooooAKKKKACiiigAooooAKKKKACiiigAooooAKKKKACiiigAooooAKKKKACiiigAooooAKKKKACiiigAooooAKKKKACiiigAooooAKKKKACiiigAooooAKKKKACiiigAooooAKKKKACiiigAooooAKKKKACiiigAooooAKKKKACiiigAooooAKKKKACiiigAooooAKKKKACiiigAooooAKKKKACiiigAooooAKKKKACiiigAooooAKKKKACiiigAooooAKKKKACiiigAooooAKKKKACiiigAooooAKKKKACiiigAooooAKKKKACiiigAooooAKKKKACiiigAooooAKKKKACiiigAooooAKKKKACiiigAooooAKKKKACiiigAooooAKKKKACiiigAooooAKKKKACiiigAooooAKKKKACiiigAooooAKKKKACiiigAooooAKKKKACiiigAooooAKKKKACiiigAooooAKKKKACiiigAooooAKKKKACiiigAooooAKKKKACiiigAooooAKKKKACiiigAooooAKKKKACiiigAooooAKKKKACiiigAooooAKKKKACiiigAooooAKKKKACiiigAooooAKKKKACiiigAooooAKKKKACiiigAooooAKKKKACiiigAooooAKKKKACiiigAooooAKKKKACiiigAooooAKKKKACiiigAooooAKKKKACiiigAooooAKKKKACiiigAooooAKKKKACiiigAooooAKKKKACiiigAooooAKKKKACiiigAooooAKKKKACiiigAooooAKKKKACiiigAooooAKKKKACiiigAooooAKKKKACiiigAooooAKKKKACiiigAooooAKKKKACiiigAooooAKKKKACiiigAooooAKKKKACiiigAooooAKKKKACiiigAooooAKKKKACiiigAooooAKKKKACiiigAooooAKKKKACiiigAooooAKKKKACiiigAooooAKKKKACiiigAooooAKKKKACiiigAooooAKKKKACiiigAooooAKKKKACiiigAooooAKKKKACiiigAooooAKKKKACiiigAooooAKKKKACiiigAooooAKKKKACiiigAooooAKKKKACiiigAooooAKKKKACiiigAooooAKKKKACiiigAooooAKKKKACiiigAooooAKKKKACiiigAooooAKKKKACiiigAooooAKKKKACiiigAooooAKKKKACiiigAooooAKKKKACiiigAooooAKKKKACiiigAooooAKKKKACiiigAooooAKKKKACiiigAooooAKKKKACiiigAooooAKKKKACiiigAooooAKKKKACiiigAooooAKKKKACiiigAooooAKKKKACiiigAooooAKKKKACiiigAooooAKKKKACiiigAooooAKKKKACiiigAooooAKKKKACiiigAooooAKKKKACiiigAooooAKKKKACiiigAooooAKKKKACiiigAooooAKKKKACiiigAooooAKKKKACiiigAooooAKKKKACiiigAooooAKKKKACiiigAooooAKKKKACiiigAooooAKKKKACiiigAooooAKKKKACiiigAooooAKKKKACiiigAooooAKKKKACiiigAooooAKKKKACiiigAooooAKKKKACiiigAooooAKKKKACiiigAooooAKKKKACiiigAooooAKKKKACiiigAooooAKKKKACiiigAooooAKKKKACiiigAooooAKKKKACiiigAooooAKKKKACiiigAooooAKKKKACiiigAooooAKKKKACiiigAooooAKKKKACiiigAooooAKKKKACiiigD//Z;imageBorder=default;clipPath=inset(5.49% 3.33% 23.08% 3% round 1%);" parent="1" vertex="1">
          <mxGeometry x="-90.97999999999999" y="1620" width="194.98" height="90.2" as="geometry" />
        </mxCell>
        <mxCell id="nRvZe3EaVZyrfNKoyUzO-10" value="" style="rounded=1;whiteSpace=wrap;html=1;fillColor=#CCFFCC;" parent="1" vertex="1">
          <mxGeometry x="730" y="1614" width="280" height="150" as="geometry" />
        </mxCell>
        <mxCell id="nRvZe3EaVZyrfNKoyUzO-11" value="ServiceAccessGUI" style="text;html=1;strokeColor=none;fillColor=none;align=center;verticalAlign=middle;whiteSpace=wrap;rounded=0;fontSize=22;fontColor=#FF0000;fontStyle=1" parent="1" vertex="1">
          <mxGeometry x="145" y="1869" width="190" height="30" as="geometry" />
        </mxCell>
        <mxCell id="nRvZe3EaVZyrfNKoyUzO-12" value="" style="rounded=1;whiteSpace=wrap;html=1;fillColor=none;" parent="1" vertex="1">
          <mxGeometry x="215" y="1570" width="380" height="240" as="geometry" />
        </mxCell>
        <mxCell id="nRvZe3EaVZyrfNKoyUzO-13" value="ColdStorageService" style="text;html=1;strokeColor=none;fillColor=none;align=center;verticalAlign=middle;whiteSpace=wrap;rounded=0;fontSize=22;fontColor=#FF0000;fontStyle=1" parent="1" vertex="1">
          <mxGeometry x="778.44" y="1770" width="190" height="30" as="geometry" />
        </mxCell>
        <mxCell id="nRvZe3EaVZyrfNKoyUzO-15" value="" style="shape=image;verticalLabelPosition=bottom;labelBackgroundColor=default;verticalAlign=top;aspect=fixed;imageAspect=0;image=data:image/png,iVBORw0KGgoAAAANSUhEUgAAAJ4AAACNCAYAAABGx8NOAAAAAXNSR0ICQMB9xQAAAAlwSFlzAAAXEgAAFxIBZ5/SUgAAABl0RVh0U29mdHdhcmUATWljcm9zb2Z0IE9mZmljZX/tNXEAABqnSURBVHja7Z13eJRV2sbzgYQOhhZaJCIQjPRQhNCEAAECBEIMIZmUyZT0MqGDCkgLTQFFkC5IR9rSi4soIqigcom6LCCK4mIDXXFll/Od5+U+4WWYSSZkanL+uC8vSSbJzPm9TzvPeY7XlClTvKSknC35IUhJ8ErVB+/l9X8kCZ6UU0AjpWq1jXMNhhSTPnlHrjH55dIIoYTCCaBxlcnVGtrlGo1TTIbksxw2phb/+iP0PaUJPgmJA2HL0RmG5RiMS00Gw2U1aGN1eraqX6gavApc5UoTfBIYO8JmiDTUyNHptNlG40aTMfmWGrbJmji2secz7DP/x9ntsmUZp00NXnWuiqXJ8kl4igdbmUytNpBbNlOO3njS3IXmRY1gezp1Yldr1lJAM5cKvLpc1bjKc5WV4ElZdKGZBkMXky55Qa7B+IU5bMsGDGTHWrZiP1WtahE2K+A15qqlsnoSPAkcd6EhIZVytIaRJr1+DU8QflGDNilRy9aGhLAzTzRhf3iXLxQ2K+AFwupVFrGeBK90Q1fGZDTOMrdq00fGsJ1dgtl5P78igWYNvE4dOsTx3+UHd+tdGtythMw6dLT43jkGwyfmSQJBd6F+/WJBpwYvNmI4M8TEsrT4+CuZSbpjPAvO40lKf0pW1G5eglfCE4bIkJAqyZqEyLTExLmpsYkfZ3B3mqnVMZOZ5SM3S5nqw7hZNXijdZlMz8Gj35OtNzCTwZj/NZNeqfu9TK6+JIEogTOru1EpJMtgvJWt0ysgpMTFM130SDbOmMPmj8ljiyctYHmjprKJaTnMUmJxIjDQpsRCDd7pN06zr//2Nbu85xI7v/0cO7xsH1s2bREbm5rxwO+g3Q4q2VDc6ckQlnrYaEfhbpHXeE1ZWG5tcrjVmWaayDbOXcuOvn6InV1/hr2/6n128NWDbMe8HWzDjA1s1Qur2KKxC9j0rClsfEr2A4DMGx5ZYCnFEng3jt1g/3n/P+x/p/7H2IdM0eW9F9mR5fsVEO8D0Jh8ix4SsoSi9udJAJZq62Zee5s19gW2f+ku9u3+K+zf7/6bXT98nV3adYl9suETdnz5cbZv4T62dfZWtu7FdWz5c8vZ4nGL2cu5L7O52XPZzMwZ7IXUiWxcMlnCFGYeF27t1l0pHhcVPLX+eO8PdmLtMbbwubz7ITQYLlMtUW0FJXhuB5xOq66/Tc4ew3a+soVdPfCNsrh3Tt9htz+4rSzyz0d/Zt/s/YZ9vuVzduqNU+zokqNsz4I9+fCteH4Fe238a2zh6IVsvmk+m5M1h83KmMVmpHEIUyax8cZcNsqYyixtl50KCCgyeGr99PaP7MDru9n0URNVABqvmXS6qZpITU133wEpTRbOJNypUhLhC0bW4/YHf923oATef0/9VwHgt3d+U6weQfHFti/Yx29+zE6sPKEAuHfhXvbWnLcUt7tmyhq2bNIyxQJagnBKygtsYvJoNjr5wZjtYcFT69T6E2zehOmqn5nyKwHIk6TK7gpgiQcuU6vtre4IITf12dazVheRwKOFJ6v354k/Ffh+OvoT+/7A9+zy7svsy7e+ZJ9t+kyB5d0V77Ijrx1RINw+dzvbNHMTe2PqG/mWcNGYRewl00uKK87LzGMz02eyF9OmsslpE9mk1FHK3zM+LYt9uPbDYoEnRImJOhakBy1Hq4sRdUF3ArDEFn4NGk3DHKNxU/6+6djJysLYsoACPmH5yO3efOem4nr/dehf7Oq+qwqEX731FTu3+Rz7aN1HiiV8e+nbbP+i/Wzn/J1s86zNijte+fxKtnTCUvbKmFeUeJCsIcH46thX2dqpa5W4kSzplT1XlN9RHPCEKGxQx4EmnfFYpsYQ5E5JSIkDjp5u7lYn5hqS/1RqbZkmdmzVkSIvHsGntn5/nfxLsYCUdJAV/OXtXxQ3TJaQrNWFHReUWPAMz4BPrj7Jjr1+TMmCd7+0W4kJ109fz1ZPXq0kJeSWKSvekrdFsZiUvHy791vl59LvKS54Qmc2nVZiWAFgjsEw213cb4mzcia9/gPxQW99eT27efxGsRZPDSBZQDWEZAkJll///iv78ciP7NrBa0oy8s+d/2Tnt55XgKKkhDLiw4sPK4kJlWO2zd6muGaydmQpKX6k1/5+/He7gkeiGHbPa9vv1QR5YpWq0bRwtfUrKbFc2cwEXSwF1SJTpfqXvRbPEoQCRAKF3OOtE7cUcChOo5jwh4M/KFaMyjEiLqRYjuqBBCKJLCP9O7lteg39DAKbfoe9//YfDn9/z/1yb5CpM+Qi9nOJ9fN4K6cJ09TK0RveEFZu1cwliiWy98JZg9DcGgoIySWr48Lv9n+X75LJwpFFpBiR/o2+TpZTxHeOAE9t/e7tghgP0OfnCvg83bX6iU18ciUPE8s5EkJLLpksG4FGFpH+S2DS1+j76HWOgs48+xWxHxWf4Xqd2hHjqdCVNURHtxRnGagmJwrArlZBEKqtIbll+i/9P/07fY8jrZ2lXZDFk+fn1/3StdoQZ5ZdPDKeS9Vqu4l4jgqnxU0gnAGiOi4kyITo/8XXnAWd2vWunb38Xtyn1eqcde7D00olj6QmJAwSpRKK58x3HtxZamtoSa76u9RxX7ZON80Z8HkUdMnx8YP5h6NAR/urngKcJ4i2D50Jn2dBB0tHbUISFvuL9nwFfOla3WhHnvX1DPcarenIP4wb9IFQR4aExFnwaQ2Ogs9DoLubSNBOhITDufAZ4uOHOAI+t4ZOExnZKNdgvEIfwMZ5ayQUThR5FpHtGqI1newd87ltnS4kKKh6dpL+OL15qjdJGJwvSuCww/F1WEiYrz3hc0voaJRDVlLSq6I47IwtMCnLEkVmMgIYLlS2RIGncrHeqZqEBLEN5ojNfqmi7XCI9vrMpKT59prv4m7QldMMHdpWlE0oyJWL73rRwz8mNf0OrUmyJmEEph0Uy+W6VTJBQ2uy9cZPZQbrvplujt7wQ0hwSL3iZrpuFdelJmjHiX46T9oKKy0S5zkytbqVxZ1s5TZxXVhISBOTwai42IIO40i5TnSkUnQy62JiBhQn3nM1eMLFVsrS6o+IjX+5yO4r2q6Ey/0qKDCw5sO6XHdwsRV0MZoYkcW6c4uT1N1WKnGGNzUxMe9hXa6rrR1lR1Wy9IZz9EZc1UEsVfQsF+d2/+QhUlO43CJZPVdaOyWL1UXHxMqEwvNEIRGtW0Zi4pKHmWTq0oSCJmBKa+eZoqMGwuqF9uzZrKi7Gq60dpW0UTFxYltMWjvPtXrpidqlFDIVxeq50tpVz4C1k+WTEmH1Aopi9Vxm7TQREeFipolcRM+3esmxcdOLYvVsPdllD5UROxRk7dITtJvpD6axq4UdgimOJByOFXmru+c09Bf4uvrYavUKdImWRu17ijbMXe2SI4OlUeJweOTgwQNttXoFbtp7KnRC4tyqhM+xEscjUzUJ6zg3j9qylWa1PYlqbGIBPe2DEH83ndSnU/oSPseK9nCRZNxoXK8eXRRTqbDdDGvtSfRCH08Hj+aUEHxi9JeEz3ESnSuaiMgk1Q1FVnczLLYn4RrLBp4OHo0JowGKzhyIU1pFGwD0mafExb3J2alRWJJhsdSBmwSbeDp4/9j+D2UiE1k9R82dk7q/psez2285O77YRnvEWpJhvmlfDlkJdZg+5eng0dBDmktn7xGvUgVntz2CgzvDa3rbCh59Y1WuhlxtPB08mkdMo2HtNdRaqmDR2Wf63BOiop4rzN1aAq8arrAM8nTwaPQrTVMv7hh/KdskzmWkJWgPm7lbm8F7jKu9p4NX3ItLpIommrOMOO86Jafq7FaCJwFxqMSZjGaNm7XCFprFJlEJnpRdJdriQ3v0HIzqSEVLcZ4ET8quEqNto8MGjyoozpPgSdlV4hRaUnT0CsR5VS01DUjwpOwq0SaVokl4GxxZrOdJ8KQcktmmxid+xBlqrEow7ovzJHhSdpXoVMlM0l3mDNHRx5qWCskSPCmHgJeVpPueM9Scq7alNikJnpRdRacFFfB0+p84Q4HWMlsJnpTDPn/OUEs0nFSR4EkwnAlea676qnMYEjwpp4DXxlotT4In5Ujw2qHFToInwXCsaFi30qGiN/xOrXVosXugS0WCJ+WYcopWd02CJ8GT4EnwSrYu7P7y7iwVjeZTCZ4Ez2kSTQJGjeZDJBd+SC4keFKOkzhfGx8ZuZ0z1FZmtRI8p4guxqHPflj//otkHU+C5zQtfC5P+ew7d+iQxRlqJXcuJHhOkTjU7VvTly5YbsFVVzYJSPAcqvzisU7/b87PM1xPojtFtkVJQJyQ0cZoznF+unEFoB+vomwElYA4TOJG7xGDBm3k/HTheqJYHcieKgmecyXO1Aa1aEWJRUcuf9WE0DK2gheUGpdw3lOhm5RuUmanSPCcI7FVhviuv6p4XM3WU2ZV8YJ2+AFxXJlco7nGc020UZO4aGoQ/fCZXAu4VjTx9z/XtUNHlhCuYdNSp9lNM9JmsNmZs9mCUQvYmilr2N6Fe9lH6z5ShvbIaVGOlxjYox0xknYs+ph1H5cr7EC3mI/XADWYEC66CtwI+Exco2wUgToGsD7PNYvrlRo1auzp8XRnNqh3KJuTNcdumpczT4FuyYQlbMOMDezQ4kPs7PqzylRQAk/Ox3OsxASB8ND+q/k698BBnzrW5iGbTwQth5qLL14YzDWIayRXIpeOy1AEEbCpXNkAcAbB17Nzlz/6dO/O8rJmsaUTltpFyyYtYyufX8nenPYm2zV/Fzu+/Dj7fMvn7NrBa+z3479L8BxcRhHDehr7+xuRWDSxllhYG0VbAUP1/NEzT2lxKAAM5xpWBEVwPcsVA2jJYk5t36rV6cF9+7FxulFs2+xtdtH2udsV4PYt3MeOvX5MGcp4adcl9uORH5UPRo6idZxOrD1299bu6BjqSKG7LtpzNVInFrZMfRdxHpnJx2kkLdpbOnF1Bs22Khjg9uIKg+VMq1e79oLo8HCWEDmCvbPsGHtv5XvF1omVJ9jJ1SeVhOLc5nPs4q6LirVTx3cSPMdo8eT5Cni9u3Z/BfGd2Cqrau2yFWu3ZpfHi2rhBzQChE8UUWRum6ngpWr2cK7kZwcNvpIUPZLtXridXdhxwS4i2C7vvsyu7rvKrh++rmSzt07cktbOCdlslk7/R6UKFciwdC8svivogpVHAF8lAPgoZmDUeAjVQnbjjyehJ7nfXl26bEhLSGRzxk5T7qOwh34++rNyvQABR5Pe6ZoBgk5aO8fpwOu7744lCw8/yNd1MDxjY5tnIFuArywA9AaE5fGDiqpKKuvZCGWafj7VfIyZiUl/8SeFXdx9QbFMxRWBRiLXKq6TktA5TjQ14IXs0XcIvFbNAyfwde2LvKBhQWNoC7tET33rogDxYSSsZxWY3wDEfkOjwsIOmQxGtmL6YgUSe4hAE5I3ODpniywxKuoMQqhutrhZm+6rtfN1oY9iV4Q6U0Mb1KuXzi3ebeUWnv1X5HWhHqSbx2/kl1BaNGv+HLLZDsgFCr0+1FkXJJexUCOkIHT4iCHhh+mPpwt35YJ6nrVLiBpxFpsMvdB/V2A262zwRLZcAU+DP2o9A3kmlJSRpLtJb+Ly3otyUT3P2k3m6zgEpbYmqoHbtt3e6ATwHriySmS4A0P6KLd1U3cDBaxycd1b4jr4hMioT1Cb7aNKKqoXdnOj08CzYPVqIOXuCKunS41PuEZvhoY3y8V1X+VfBa833G7k5zcWu1nBqNcWmlS4Cjz1zkh9xARUVH62fevW8+gNkQmnoqRcZPcsn4gzFWF9+u2EteuL02SP2Xo7t1PBM7N6FbGBnG/1uOJjhg07SW+KLt2VC+2+CUWyJp6uBk1SWbsAWLvKtlg7V4FnbvVErDfcp5pPdiYSjTObTsvFdiNR4ieabAObNJvO1ysasV0b9G/abO2cDp6VWO9xZLjUdBr7zNNdVtKbm5iRc4dG18tFd72ou2f6qIkKdBEDBhzi65SAbqXOmOxeu7CLkV0OnoWm07qo63Wl3Qwy4SMGh79HbzJv7GSZ5bpRFmuIib1cyds7ja9RJGLzlmgarl4Ua+dK8NRWT+xmtBEdzxW8vTPoTdKbpc5Wufiuk2gCyEhMuulbu/Y49FaGwks9jli9oq2xnUvBs7CbURvFx05INOL8GjR4XsR7NAhGQuB8iZFjysmxli0Xogt9CBKK5vBWVWyp27kTeMLqiZNt9XEvQne4XG27li0X0Zsek5p+5/z2cxIGJ+rqgW+UOJs+/369etPkJz1cbC+0t4mEokJRXKzLwTNrt6+IrTThcnujZd4wqHefv0n4nCuqo4p2p5Hhw05R4y6y2H5wsY3hYkWxuIwngmfucp9Al0MoCpTJQ0JDD4jiMpl/CYdjoRMZbHxkJI2ioGRCgxDoaexQ+D6si3UL8Cy43KqIGwKQqofhTaeNDA8/Lcos5AYkJI4pm1Al4W6PXfQXPMkzoXQyBFWHQIRERc5i3Q48C2c9qiNFD0RjIb3peK6M2IiIM8qUgEyTtHwOsHRiBIV+ZMzXHLpcirNxWrCnKq7zUWexJQG8Mmbxnh/qRD2QbCTSh0FPooj55O6G/RIJEdMZ4uKuVqtSbRyOow5HvN0WrWwiriv3sC7WrcCzEO9Vwpv0R7LRC2d0aX8wU7hd2c1SfFG3CT3EyviJZ0d8yR/uUchgn8WWWBCSCbE74V1c6NwKPCvJRi0UKdviyRsO+LLCevfZK+DbOG+NhOghJAZl381eh36IiQ8EXRS6TtqjvlpHlUyULS50bgeehUaCKqpMNwg7G5HC8j0THLw5R29UzmzQ7F3ZTmV7EiFmnZCG9O17yAy6fugaaooMtmpxkwm3B89CpitOp6nhG47AN6NtixZLaDtHZLwy7it8N0L01FEzJz285EEQ06mha4YKQzV7Q+e24FmZauALsx8EtxuBLZz0OrVqTaH4RO16ZXPB/aLPY89r2/OtnFET993jfn5zMAUsCZ6kL2qo5tDZ3HXi8eBZga8OAt226I4YilILTaQy9ezSZQs9xaKzRe503LNyoj5HGtq//995EkGZazoe3uHwJO3hXgV0FR52Z8KjwbMCX20kHK2xr0tjE2IxEi2bP8VzDSNjrogPmbqZS2tfH50GU8dyGYna39q1br0CU7tSMHRzKKoG7RDO+JpbOntD5xHgWYn5xDiMFuiUGICznRSnZNBgyJDg4B1ZOv0t8aFT2zYF1aXFrVKZSRxBJC9AVq5alWrPI54zoL1pEB7e1niY65glEg6BzmPAswBfZXQvN8RdCp0Qn0Rgi0dxvfyDnjx8YNh7Aj4Kqqm/jCxBSQWOZtWJvVZSXETk5/Xr1s3jn0cu9l21qNGFYpRcCzzEtfBQ5ycSjoLOo8Azg08UmR/F3mFTuIqecL0xKA1Q4DzK389vfmJU1FdiMcgS0J1bJaX8QpacLJzIVkXy0Oapp5ZhJHAWQhENXGtvJBHN8fDWUBWHyzoSOI8Ez8L2WgXEI2KIZEs8xaHI0hIQy1CNagwtBFkA9XR4ioE8dd+XYlcKIUTf3N3h1yMudmwXtA7zp3Ng/RNRKhmA/e/WiOfq4uGtiIfZKdB5JHgW4BOTqGri6Q1AdvYMYpholAvSEFSPadboiUXRQ8I/VgNI1oIW0d0TEbLStOMgNvTVLhUWbizeZzpi3pFotOiN+tyT6HushXiugiOTiBIFngo+ddxXCZ0tvirr1xn7jeGqOczpAkAe+8yJHDT4FGV76kWk0gO5LneZ5UKb+ASbGPkqRMkT/f30IKmAy0DyoEFnST8kYK1g5eqhCaOSyrU6FTqPBs8G69cAsV8b9JL1w0LEqgDMQQw0vnVg4HJaRHUmLOJBKsk4E0QBGp3uohYw88tjYiIiPu0a1HETJumPUVk4PYAbjuOi3RD7BsAbqK1cOWckESUWPDP4hPWriNivNtxKABZATLBXAyiuQxgFqzGeYiSCMCUu/rqlW4PIzZH1oZ0AypIpRiQVJVmhhIBeQxeT0M8guMVdr+Yii0yuNKRbt508U5/K/8Zx+HuzEULo8H4iAFx3hBtPImOtA2/gUitX4sAzc71q61cZwbMvFqA5ABQWMBwxYCKyvgxYwXwI+UK/+HTbtm8O6z/whCFW870zrsNKS0j8hWLQHp07b/Nv2PBl/ndMAGyjVe40GaWRkchUQwFcEIDzR/Lgg8/hvoKwK6ErUeBZif3KqQD0UQEYgG23LtgqCoN7isViGuG6slH/Gi1AJAgIBu6aVwzo2ftgeGjoO9oR0ZdIBIwtYJE7F68hyxoWEnI0qEWLNc0DApZ43b2OazxAG4OHIAewpSBR0qAWNxgxbDAeqOZmwFVxB7daKsCz4n7LYQGqwALWgQtuiiSkI6xFXyxmJJKRBMRNKVj4bK9712oJGMcJICFb7nkT3ysAG6uCzITfk4kwwIiHQcAWDuvWE4Xz1tjUfwwPliXgyrgLcCUevAIAFBawOmLA+siCmyMR6QQI++Bk1VDUwGIBorhWKwXxVQYKtAJKE6xkrtf9d7uJfxPfk4PXZcK6Csh0cP0abANGoCzUD7B1hrUORMNEA7yPR/G+HgDO3aArFeBZAdD8Hg8fWMGGKghbIUDvggXvgwLsEK97V2VFA8g4wKKFK9TBUqrvddNDOnxPIjprNIjTovBzwwF8P9Qiu8Iit0Hs9gTOo/hix6Ea3kd5TwCu1IFnAUCRhAg3XBmLWAMQihuNmmDBW3ndu1orGIeQesE9hwKWQXDV4bCU5goHuIPw/f3x+t6AuyvOrraHCw1EOPA4HgpflIqqq6ybN96HW7pUCV7BWbD6Mhn1pTCPYqEFiI8Bgqawik8ByDYI7tvDOol738z1NL7eARC3xetbAO6mcJ+N4EJ9UXvzwUNhFTZPAa7Ug2cDhCIeFCBWgaXxAYy1AUZ9QOIHYPwBZ2Ov++91a4x/98f3PQYrVh9ZaB0VZNUBfmXUJMtbg83TgJPgFQyg+Y1GAkRvMxgrA8iqsEjVve7d+2bp7jcffL06vr8qXl8ZP08NWTkVaCUCNgle8UEUMAogBZTqe9/M735T/7u3Cq5yqp+lhqxEgSbBsx+IlqAs41Xw3W+Wvs/izyzxn6UEymlwlhqoJHhSbqv/BweZwbmF4PgUAAAAAElFTkSuQmCC;" parent="1" vertex="1">
          <mxGeometry x="765.78" y="1640.1999999999998" width="78.44" height="70" as="geometry" />
        </mxCell>
        <mxCell id="nRvZe3EaVZyrfNKoyUzO-16" value="fridgeservice" style="text;html=1;strokeColor=none;fillColor=none;align=center;verticalAlign=middle;whiteSpace=wrap;rounded=0;" parent="1" vertex="1">
          <mxGeometry x="775" y="1710.1999999999998" width="60" height="30" as="geometry" />
        </mxCell>
        <mxCell id="nRvZe3EaVZyrfNKoyUzO-17" value="" style="endArrow=classic;html=1;rounded=0;" parent="1" edge="1">
          <mxGeometry width="50" height="50" relative="1" as="geometry">
            <mxPoint x="250" y="1743" as="sourcePoint" />
            <mxPoint x="80" y="1743" as="targetPoint" />
          </mxGeometry>
        </mxCell>
        <mxCell id="nRvZe3EaVZyrfNKoyUzO-23" value="WebSocket" style="text;html=1;strokeColor=none;fillColor=none;align=center;verticalAlign=middle;whiteSpace=wrap;rounded=0;fontStyle=3" parent="1" vertex="1">
          <mxGeometry x="141" y="1713" width="60" height="30" as="geometry" />
        </mxCell>
        <mxCell id="nRvZe3EaVZyrfNKoyUzO-25" value="WebSocketHandlerHandler" style="text;html=1;strokeColor=none;fillColor=none;align=center;verticalAlign=middle;whiteSpace=wrap;rounded=0;" parent="1" vertex="1">
          <mxGeometry x="261" y="1770" width="60" height="30" as="geometry" />
        </mxCell>
        <mxCell id="nRvZe3EaVZyrfNKoyUzO-26" value="" style="ellipse;whiteSpace=wrap;html=1;aspect=fixed;fillColor=none;" parent="1" vertex="1">
          <mxGeometry x="495" y="1724" width="50" height="50" as="geometry" />
        </mxCell>
        <mxCell id="nRvZe3EaVZyrfNKoyUzO-27" value="CoaPObserver" style="text;html=1;strokeColor=none;fillColor=none;align=center;verticalAlign=middle;whiteSpace=wrap;rounded=0;" parent="1" vertex="1">
          <mxGeometry x="490" y="1770" width="60" height="30" as="geometry" />
        </mxCell>
        <mxCell id="nRvZe3EaVZyrfNKoyUzO-28" value="" style="endArrow=classic;html=1;rounded=0;" parent="1" edge="1">
          <mxGeometry width="50" height="50" relative="1" as="geometry">
            <mxPoint x="720" y="1730" as="sourcePoint" />
            <mxPoint x="560" y="1730" as="targetPoint" />
          </mxGeometry>
        </mxCell>
        <mxCell id="nRvZe3EaVZyrfNKoyUzO-29" value="CoaP" style="text;html=1;strokeColor=none;fillColor=none;align=center;verticalAlign=middle;whiteSpace=wrap;rounded=0;fontStyle=3" parent="1" vertex="1">
          <mxGeometry x="634.9200000000001" y="1703.31" width="60" height="30" as="geometry" />
        </mxCell>
        <mxCell id="nRvZe3EaVZyrfNKoyUzO-33" value="" style="ellipse;whiteSpace=wrap;html=1;aspect=fixed;fillColor=none;" parent="1" vertex="1">
          <mxGeometry x="495" y="1614" width="50" height="50" as="geometry" />
        </mxCell>
        <mxCell id="nRvZe3EaVZyrfNKoyUzO-34" value="ConnectionHandler" style="text;html=1;strokeColor=none;fillColor=none;align=center;verticalAlign=middle;whiteSpace=wrap;rounded=0;" parent="1" vertex="1">
          <mxGeometry x="490" y="1660" width="60" height="30" as="geometry" />
        </mxCell>
        <mxCell id="nRvZe3EaVZyrfNKoyUzO-41" value="" style="endArrow=classic;html=1;rounded=0;entryX=0.792;entryY=0.8;entryDx=0;entryDy=0;entryPerimeter=0;dashed=1;" parent="1" edge="1">
          <mxGeometry width="50" height="50" relative="1" as="geometry">
            <mxPoint x="720" y="1630" as="sourcePoint" />
            <mxPoint x="559.9999999999999" y="1630" as="targetPoint" />
          </mxGeometry>
        </mxCell>
        <mxCell id="nRvZe3EaVZyrfNKoyUzO-42" value="" style="endArrow=classic;html=1;rounded=0;exitX=0.792;exitY=0.85;exitDx=0;exitDy=0;exitPerimeter=0;" parent="1" edge="1">
          <mxGeometry width="50" height="50" relative="1" as="geometry">
            <mxPoint x="559.9999999999999" y="1640" as="sourcePoint" />
            <mxPoint x="720" y="1640" as="targetPoint" />
          </mxGeometry>
        </mxCell>
        <mxCell id="nRvZe3EaVZyrfNKoyUzO-43" value="Tcp" style="text;html=1;strokeColor=none;fillColor=none;align=center;verticalAlign=middle;whiteSpace=wrap;rounded=0;fontStyle=3" parent="1" vertex="1">
          <mxGeometry x="634.92" y="1600" width="60" height="30" as="geometry" />
        </mxCell>
        <mxCell id="nRvZe3EaVZyrfNKoyUzO-44" value="" style="ellipse;whiteSpace=wrap;html=1;aspect=fixed;fillColor=none;" parent="1" vertex="1">
          <mxGeometry x="266" y="1724" width="50" height="50" as="geometry" />
        </mxCell>
        <mxCell id="nRvZe3EaVZyrfNKoyUzO-49" value="Application node" style="text;html=1;strokeColor=none;fillColor=none;align=center;verticalAlign=middle;whiteSpace=wrap;rounded=0;fontSize=22;fontColor=#030003;fontStyle=1" parent="1" vertex="1">
          <mxGeometry x="314" y="1820" width="200" height="30" as="geometry" />
        </mxCell>
        <mxCell id="5p-A5H8YYFQbPtiemds_-1" value="" style="shape=image;verticalLabelPosition=bottom;labelBackgroundColor=default;verticalAlign=top;aspect=fixed;imageAspect=0;image=data:image/png,iVBORw0KGgoAAAANSUhEUgAAAJ4AAACNCAYAAABGx8NOAAAAAXNSR0ICQMB9xQAAAAlwSFlzAAAXEgAAFxIBZ5/SUgAAABl0RVh0U29mdHdhcmUATWljcm9zb2Z0IE9mZmljZX/tNXEAABqnSURBVHja7Z13eJRV2sbzgYQOhhZaJCIQjPRQhNCEAAECBEIMIZmUyZT0MqGDCkgLTQFFkC5IR9rSi4soIqigcom6LCCK4mIDXXFll/Od5+U+4WWYSSZkanL+uC8vSSbJzPm9TzvPeY7XlClTvKSknC35IUhJ8ErVB+/l9X8kCZ6UU0AjpWq1jXMNhhSTPnlHrjH55dIIoYTCCaBxlcnVGtrlGo1TTIbksxw2phb/+iP0PaUJPgmJA2HL0RmG5RiMS00Gw2U1aGN1eraqX6gavApc5UoTfBIYO8JmiDTUyNHptNlG40aTMfmWGrbJmji2secz7DP/x9ntsmUZp00NXnWuiqXJ8kl4igdbmUytNpBbNlOO3njS3IXmRY1gezp1Yldr1lJAM5cKvLpc1bjKc5WV4ElZdKGZBkMXky55Qa7B+IU5bMsGDGTHWrZiP1WtahE2K+A15qqlsnoSPAkcd6EhIZVytIaRJr1+DU8QflGDNilRy9aGhLAzTzRhf3iXLxQ2K+AFwupVFrGeBK90Q1fGZDTOMrdq00fGsJ1dgtl5P78igWYNvE4dOsTx3+UHd+tdGtythMw6dLT43jkGwyfmSQJBd6F+/WJBpwYvNmI4M8TEsrT4+CuZSbpjPAvO40lKf0pW1G5eglfCE4bIkJAqyZqEyLTExLmpsYkfZ3B3mqnVMZOZ5SM3S5nqw7hZNXijdZlMz8Gj35OtNzCTwZj/NZNeqfu9TK6+JIEogTOru1EpJMtgvJWt0ysgpMTFM130SDbOmMPmj8ljiyctYHmjprKJaTnMUmJxIjDQpsRCDd7pN06zr//2Nbu85xI7v/0cO7xsH1s2bREbm5rxwO+g3Q4q2VDc6ckQlnrYaEfhbpHXeE1ZWG5tcrjVmWaayDbOXcuOvn6InV1/hr2/6n128NWDbMe8HWzDjA1s1Qur2KKxC9j0rClsfEr2A4DMGx5ZYCnFEng3jt1g/3n/P+x/p/7H2IdM0eW9F9mR5fsVEO8D0Jh8ix4SsoSi9udJAJZq62Zee5s19gW2f+ku9u3+K+zf7/6bXT98nV3adYl9suETdnz5cbZv4T62dfZWtu7FdWz5c8vZ4nGL2cu5L7O52XPZzMwZ7IXUiWxcMlnCFGYeF27t1l0pHhcVPLX+eO8PdmLtMbbwubz7ITQYLlMtUW0FJXhuB5xOq66/Tc4ew3a+soVdPfCNsrh3Tt9htz+4rSzyz0d/Zt/s/YZ9vuVzduqNU+zokqNsz4I9+fCteH4Fe238a2zh6IVsvmk+m5M1h83KmMVmpHEIUyax8cZcNsqYyixtl50KCCgyeGr99PaP7MDru9n0URNVABqvmXS6qZpITU133wEpTRbOJNypUhLhC0bW4/YHf923oATef0/9VwHgt3d+U6weQfHFti/Yx29+zE6sPKEAuHfhXvbWnLcUt7tmyhq2bNIyxQJagnBKygtsYvJoNjr5wZjtYcFT69T6E2zehOmqn5nyKwHIk6TK7gpgiQcuU6vtre4IITf12dazVheRwKOFJ6v354k/Ffh+OvoT+/7A9+zy7svsy7e+ZJ9t+kyB5d0V77Ijrx1RINw+dzvbNHMTe2PqG/mWcNGYRewl00uKK87LzGMz02eyF9OmsslpE9mk1FHK3zM+LYt9uPbDYoEnRImJOhakBy1Hq4sRdUF3ArDEFn4NGk3DHKNxU/6+6djJysLYsoACPmH5yO3efOem4nr/dehf7Oq+qwqEX731FTu3+Rz7aN1HiiV8e+nbbP+i/Wzn/J1s86zNijte+fxKtnTCUvbKmFeUeJCsIcH46thX2dqpa5W4kSzplT1XlN9RHPCEKGxQx4EmnfFYpsYQ5E5JSIkDjp5u7lYn5hqS/1RqbZkmdmzVkSIvHsGntn5/nfxLsYCUdJAV/OXtXxQ3TJaQrNWFHReUWPAMz4BPrj7Jjr1+TMmCd7+0W4kJ109fz1ZPXq0kJeSWKSvekrdFsZiUvHy791vl59LvKS54Qmc2nVZiWAFgjsEw213cb4mzcia9/gPxQW99eT27efxGsRZPDSBZQDWEZAkJll///iv78ciP7NrBa0oy8s+d/2Tnt55XgKKkhDLiw4sPK4kJlWO2zd6muGaydmQpKX6k1/5+/He7gkeiGHbPa9vv1QR5YpWq0bRwtfUrKbFc2cwEXSwF1SJTpfqXvRbPEoQCRAKF3OOtE7cUcChOo5jwh4M/KFaMyjEiLqRYjuqBBCKJLCP9O7lteg39DAKbfoe9//YfDn9/z/1yb5CpM+Qi9nOJ9fN4K6cJ09TK0RveEFZu1cwliiWy98JZg9DcGgoIySWr48Lv9n+X75LJwpFFpBiR/o2+TpZTxHeOAE9t/e7tghgP0OfnCvg83bX6iU18ciUPE8s5EkJLLpksG4FGFpH+S2DS1+j76HWOgs48+xWxHxWf4Xqd2hHjqdCVNURHtxRnGagmJwrArlZBEKqtIbll+i/9P/07fY8jrZ2lXZDFk+fn1/3StdoQZ5ZdPDKeS9Vqu4l4jgqnxU0gnAGiOi4kyITo/8XXnAWd2vWunb38Xtyn1eqcde7D00olj6QmJAwSpRKK58x3HtxZamtoSa76u9RxX7ZON80Z8HkUdMnx8YP5h6NAR/urngKcJ4i2D50Jn2dBB0tHbUISFvuL9nwFfOla3WhHnvX1DPcarenIP4wb9IFQR4aExFnwaQ2Ogs9DoLubSNBOhITDufAZ4uOHOAI+t4ZOExnZKNdgvEIfwMZ5ayQUThR5FpHtGqI1newd87ltnS4kKKh6dpL+OL15qjdJGJwvSuCww/F1WEiYrz3hc0voaJRDVlLSq6I47IwtMCnLEkVmMgIYLlS2RIGncrHeqZqEBLEN5ojNfqmi7XCI9vrMpKT59prv4m7QldMMHdpWlE0oyJWL73rRwz8mNf0OrUmyJmEEph0Uy+W6VTJBQ2uy9cZPZQbrvplujt7wQ0hwSL3iZrpuFdelJmjHiX46T9oKKy0S5zkytbqVxZ1s5TZxXVhISBOTwai42IIO40i5TnSkUnQy62JiBhQn3nM1eMLFVsrS6o+IjX+5yO4r2q6Ey/0qKDCw5sO6XHdwsRV0MZoYkcW6c4uT1N1WKnGGNzUxMe9hXa6rrR1lR1Wy9IZz9EZc1UEsVfQsF+d2/+QhUlO43CJZPVdaOyWL1UXHxMqEwvNEIRGtW0Zi4pKHmWTq0oSCJmBKa+eZoqMGwuqF9uzZrKi7Gq60dpW0UTFxYltMWjvPtXrpidqlFDIVxeq50tpVz4C1k+WTEmH1Aopi9Vxm7TQREeFipolcRM+3esmxcdOLYvVsPdllD5UROxRk7dITtJvpD6axq4UdgimOJByOFXmru+c09Bf4uvrYavUKdImWRu17ijbMXe2SI4OlUeJweOTgwQNttXoFbtp7KnRC4tyqhM+xEscjUzUJ6zg3j9qylWa1PYlqbGIBPe2DEH83ndSnU/oSPseK9nCRZNxoXK8eXRRTqbDdDGvtSfRCH08Hj+aUEHxi9JeEz3ESnSuaiMgk1Q1FVnczLLYn4RrLBp4OHo0JowGKzhyIU1pFGwD0mafExb3J2alRWJJhsdSBmwSbeDp4/9j+D2UiE1k9R82dk7q/psez2285O77YRnvEWpJhvmlfDlkJdZg+5eng0dBDmktn7xGvUgVntz2CgzvDa3rbCh59Y1WuhlxtPB08mkdMo2HtNdRaqmDR2Wf63BOiop4rzN1aAq8arrAM8nTwaPQrTVMv7hh/KdskzmWkJWgPm7lbm8F7jKu9p4NX3ItLpIommrOMOO86Jafq7FaCJwFxqMSZjGaNm7XCFprFJlEJnpRdJdriQ3v0HIzqSEVLcZ4ET8quEqNto8MGjyoozpPgSdlV4hRaUnT0CsR5VS01DUjwpOwq0SaVokl4GxxZrOdJ8KQcktmmxid+xBlqrEow7ovzJHhSdpXoVMlM0l3mDNHRx5qWCskSPCmHgJeVpPueM9Scq7alNikJnpRdRacFFfB0+p84Q4HWMlsJnpTDPn/OUEs0nFSR4EkwnAlea676qnMYEjwpp4DXxlotT4In5Ujw2qHFToInwXCsaFi30qGiN/xOrXVosXugS0WCJ+WYcopWd02CJ8GT4EnwSrYu7P7y7iwVjeZTCZ4Ez2kSTQJGjeZDJBd+SC4keFKOkzhfGx8ZuZ0z1FZmtRI8p4guxqHPflj//otkHU+C5zQtfC5P+ew7d+iQxRlqJXcuJHhOkTjU7VvTly5YbsFVVzYJSPAcqvzisU7/b87PM1xPojtFtkVJQJyQ0cZoznF+unEFoB+vomwElYA4TOJG7xGDBm3k/HTheqJYHcieKgmecyXO1Aa1aEWJRUcuf9WE0DK2gheUGpdw3lOhm5RuUmanSPCcI7FVhviuv6p4XM3WU2ZV8YJ2+AFxXJlco7nGc020UZO4aGoQ/fCZXAu4VjTx9z/XtUNHlhCuYdNSp9lNM9JmsNmZs9mCUQvYmilr2N6Fe9lH6z5ShvbIaVGOlxjYox0xknYs+ph1H5cr7EC3mI/XADWYEC66CtwI+Exco2wUgToGsD7PNYvrlRo1auzp8XRnNqh3KJuTNcdumpczT4FuyYQlbMOMDezQ4kPs7PqzylRQAk/Ox3OsxASB8ND+q/k698BBnzrW5iGbTwQth5qLL14YzDWIayRXIpeOy1AEEbCpXNkAcAbB17Nzlz/6dO/O8rJmsaUTltpFyyYtYyufX8nenPYm2zV/Fzu+/Dj7fMvn7NrBa+z3479L8BxcRhHDehr7+xuRWDSxllhYG0VbAUP1/NEzT2lxKAAM5xpWBEVwPcsVA2jJYk5t36rV6cF9+7FxulFs2+xtdtH2udsV4PYt3MeOvX5MGcp4adcl9uORH5UPRo6idZxOrD1299bu6BjqSKG7LtpzNVInFrZMfRdxHpnJx2kkLdpbOnF1Bs22Khjg9uIKg+VMq1e79oLo8HCWEDmCvbPsGHtv5XvF1omVJ9jJ1SeVhOLc5nPs4q6LirVTx3cSPMdo8eT5Cni9u3Z/BfGd2Cqrau2yFWu3ZpfHi2rhBzQChE8UUWRum6ngpWr2cK7kZwcNvpIUPZLtXridXdhxwS4i2C7vvsyu7rvKrh++rmSzt07cktbOCdlslk7/R6UKFciwdC8svivogpVHAF8lAPgoZmDUeAjVQnbjjyehJ7nfXl26bEhLSGRzxk5T7qOwh34++rNyvQABR5Pe6ZoBgk5aO8fpwOu7744lCw8/yNd1MDxjY5tnIFuArywA9AaE5fGDiqpKKuvZCGWafj7VfIyZiUl/8SeFXdx9QbFMxRWBRiLXKq6TktA5TjQ14IXs0XcIvFbNAyfwde2LvKBhQWNoC7tET33rogDxYSSsZxWY3wDEfkOjwsIOmQxGtmL6YgUSe4hAE5I3ODpniywxKuoMQqhutrhZm+6rtfN1oY9iV4Q6U0Mb1KuXzi3ebeUWnv1X5HWhHqSbx2/kl1BaNGv+HLLZDsgFCr0+1FkXJJexUCOkIHT4iCHhh+mPpwt35YJ6nrVLiBpxFpsMvdB/V2A262zwRLZcAU+DP2o9A3kmlJSRpLtJb+Ly3otyUT3P2k3m6zgEpbYmqoHbtt3e6ATwHriySmS4A0P6KLd1U3cDBaxycd1b4jr4hMioT1Cb7aNKKqoXdnOj08CzYPVqIOXuCKunS41PuEZvhoY3y8V1X+VfBa833G7k5zcWu1nBqNcWmlS4Cjz1zkh9xARUVH62fevW8+gNkQmnoqRcZPcsn4gzFWF9+u2EteuL02SP2Xo7t1PBM7N6FbGBnG/1uOJjhg07SW+KLt2VC+2+CUWyJp6uBk1SWbsAWLvKtlg7V4FnbvVErDfcp5pPdiYSjTObTsvFdiNR4ieabAObNJvO1ysasV0b9G/abO2cDp6VWO9xZLjUdBr7zNNdVtKbm5iRc4dG18tFd72ou2f6qIkKdBEDBhzi65SAbqXOmOxeu7CLkV0OnoWm07qo63Wl3Qwy4SMGh79HbzJv7GSZ5bpRFmuIib1cyds7ja9RJGLzlmgarl4Ua+dK8NRWT+xmtBEdzxW8vTPoTdKbpc5Wufiuk2gCyEhMuulbu/Y49FaGwks9jli9oq2xnUvBs7CbURvFx05INOL8GjR4XsR7NAhGQuB8iZFjysmxli0Xogt9CBKK5vBWVWyp27kTeMLqiZNt9XEvQne4XG27li0X0Zsek5p+5/z2cxIGJ+rqgW+UOJs+/369etPkJz1cbC+0t4mEokJRXKzLwTNrt6+IrTThcnujZd4wqHefv0n4nCuqo4p2p5Hhw05R4y6y2H5wsY3hYkWxuIwngmfucp9Al0MoCpTJQ0JDD4jiMpl/CYdjoRMZbHxkJI2ioGRCgxDoaexQ+D6si3UL8Cy43KqIGwKQqofhTaeNDA8/Lcos5AYkJI4pm1Al4W6PXfQXPMkzoXQyBFWHQIRERc5i3Q48C2c9qiNFD0RjIb3peK6M2IiIM8qUgEyTtHwOsHRiBIV+ZMzXHLpcirNxWrCnKq7zUWexJQG8Mmbxnh/qRD2QbCTSh0FPooj55O6G/RIJEdMZ4uKuVqtSbRyOow5HvN0WrWwiriv3sC7WrcCzEO9Vwpv0R7LRC2d0aX8wU7hd2c1SfFG3CT3EyviJZ0d8yR/uUchgn8WWWBCSCbE74V1c6NwKPCvJRi0UKdviyRsO+LLCevfZK+DbOG+NhOghJAZl381eh36IiQ8EXRS6TtqjvlpHlUyULS50bgeehUaCKqpMNwg7G5HC8j0THLw5R29UzmzQ7F3ZTmV7EiFmnZCG9O17yAy6fugaaooMtmpxkwm3B89CpitOp6nhG47AN6NtixZLaDtHZLwy7it8N0L01FEzJz285EEQ06mha4YKQzV7Q+e24FmZauALsx8EtxuBLZz0OrVqTaH4RO16ZXPB/aLPY89r2/OtnFET993jfn5zMAUsCZ6kL2qo5tDZ3HXi8eBZga8OAt226I4YilILTaQy9ezSZQs9xaKzRe503LNyoj5HGtq//995EkGZazoe3uHwJO3hXgV0FR52Z8KjwbMCX20kHK2xr0tjE2IxEi2bP8VzDSNjrogPmbqZS2tfH50GU8dyGYna39q1br0CU7tSMHRzKKoG7RDO+JpbOntD5xHgWYn5xDiMFuiUGICznRSnZNBgyJDg4B1ZOv0t8aFT2zYF1aXFrVKZSRxBJC9AVq5alWrPI54zoL1pEB7e1niY65glEg6BzmPAswBfZXQvN8RdCp0Qn0Rgi0dxvfyDnjx8YNh7Aj4Kqqm/jCxBSQWOZtWJvVZSXETk5/Xr1s3jn0cu9l21qNGFYpRcCzzEtfBQ5ycSjoLOo8Azg08UmR/F3mFTuIqecL0xKA1Q4DzK389vfmJU1FdiMcgS0J1bJaX8QpacLJzIVkXy0Oapp5ZhJHAWQhENXGtvJBHN8fDWUBWHyzoSOI8Ez8L2WgXEI2KIZEs8xaHI0hIQy1CNagwtBFkA9XR4ioE8dd+XYlcKIUTf3N3h1yMudmwXtA7zp3Ng/RNRKhmA/e/WiOfq4uGtiIfZKdB5JHgW4BOTqGri6Q1AdvYMYpholAvSEFSPadboiUXRQ8I/VgNI1oIW0d0TEbLStOMgNvTVLhUWbizeZzpi3pFotOiN+tyT6HushXiugiOTiBIFngo+ddxXCZ0tvirr1xn7jeGqOczpAkAe+8yJHDT4FGV76kWk0gO5LneZ5UKb+ASbGPkqRMkT/f30IKmAy0DyoEFnST8kYK1g5eqhCaOSyrU6FTqPBs8G69cAsV8b9JL1w0LEqgDMQQw0vnVg4HJaRHUmLOJBKsk4E0QBGp3uohYw88tjYiIiPu0a1HETJumPUVk4PYAbjuOi3RD7BsAbqK1cOWckESUWPDP4hPWriNivNtxKABZATLBXAyiuQxgFqzGeYiSCMCUu/rqlW4PIzZH1oZ0AypIpRiQVJVmhhIBeQxeT0M8guMVdr+Yii0yuNKRbt508U5/K/8Zx+HuzEULo8H4iAFx3hBtPImOtA2/gUitX4sAzc71q61cZwbMvFqA5ABQWMBwxYCKyvgxYwXwI+UK/+HTbtm8O6z/whCFW870zrsNKS0j8hWLQHp07b/Nv2PBl/ndMAGyjVe40GaWRkchUQwFcEIDzR/Lgg8/hvoKwK6ErUeBZif3KqQD0UQEYgG23LtgqCoN7isViGuG6slH/Gi1AJAgIBu6aVwzo2ftgeGjoO9oR0ZdIBIwtYJE7F68hyxoWEnI0qEWLNc0DApZ43b2OazxAG4OHIAewpSBR0qAWNxgxbDAeqOZmwFVxB7daKsCz4n7LYQGqwALWgQtuiiSkI6xFXyxmJJKRBMRNKVj4bK9712oJGMcJICFb7nkT3ysAG6uCzITfk4kwwIiHQcAWDuvWE4Xz1tjUfwwPliXgyrgLcCUevAIAFBawOmLA+siCmyMR6QQI++Bk1VDUwGIBorhWKwXxVQYKtAJKE6xkrtf9d7uJfxPfk4PXZcK6Csh0cP0abANGoCzUD7B1hrUORMNEA7yPR/G+HgDO3aArFeBZAdD8Hg8fWMGGKghbIUDvggXvgwLsEK97V2VFA8g4wKKFK9TBUqrvddNDOnxPIjprNIjTovBzwwF8P9Qiu8Iit0Hs9gTOo/hix6Ea3kd5TwCu1IFnAUCRhAg3XBmLWAMQihuNmmDBW3ndu1orGIeQesE9hwKWQXDV4bCU5goHuIPw/f3x+t6AuyvOrraHCw1EOPA4HgpflIqqq6ybN96HW7pUCV7BWbD6Mhn1pTCPYqEFiI8Bgqawik8ByDYI7tvDOol738z1NL7eARC3xetbAO6mcJ+N4EJ9UXvzwUNhFTZPAa7Ug2cDhCIeFCBWgaXxAYy1AUZ9QOIHYPwBZ2Ov++91a4x/98f3PQYrVh9ZaB0VZNUBfmXUJMtbg83TgJPgFQyg+Y1GAkRvMxgrA8iqsEjVve7d+2bp7jcffL06vr8qXl8ZP08NWTkVaCUCNgle8UEUMAogBZTqe9/M735T/7u3Cq5yqp+lhqxEgSbBsx+IlqAs41Xw3W+Wvs/izyzxn6UEymlwlhqoJHhSbqv/BweZwbmF4PgUAAAAAElFTkSuQmCC;" vertex="1" parent="1">
          <mxGeometry x="890" y="1638.9999999999998" width="78.44" height="70" as="geometry" />
        </mxCell>
        <mxCell id="5p-A5H8YYFQbPtiemds_-2" value="transporttrolley" style="text;html=1;strokeColor=none;fillColor=none;align=center;verticalAlign=middle;whiteSpace=wrap;rounded=0;" vertex="1" parent="1">
          <mxGeometry x="899.22" y="1708.9999999999998" width="60" height="30" as="geometry" />
        </mxCell>
        <mxCell id="5p-A5H8YYFQbPtiemds_-3" value="CONTROLLER" style="text;html=1;strokeColor=none;fillColor=none;align=center;verticalAlign=middle;whiteSpace=wrap;rounded=0;fontSize=21;fontColor=#FF0000;" vertex="1" parent="1">
          <mxGeometry x="314" y="1634" width="60" height="30" as="geometry" />
        </mxCell>
        <mxCell id="5p-A5H8YYFQbPtiemds_-4" value="" style="ellipse;whiteSpace=wrap;html=1;aspect=fixed;fillColor=#FF9999;" vertex="1" parent="1">
          <mxGeometry x="-80.98" y="1730.98" width="29.02" height="29.02" as="geometry" />
        </mxCell>
        <mxCell id="5p-A5H8YYFQbPtiemds_-5" value="wsminimal.js" style="text;html=1;strokeColor=none;fillColor=none;align=center;verticalAlign=middle;whiteSpace=wrap;rounded=0;" vertex="1" parent="1">
          <mxGeometry x="-18.990000000000013" y="1760" width="51" height="30" as="geometry" />
        </mxCell>
        <mxCell id="5p-A5H8YYFQbPtiemds_-6" value="" style="ellipse;whiteSpace=wrap;html=1;aspect=fixed;fillColor=#FF9999;" vertex="1" parent="1">
          <mxGeometry x="-9.010000000000005" y="1730.98" width="29.02" height="29.02" as="geometry" />
        </mxCell>
        <mxCell id="5p-A5H8YYFQbPtiemds_-7" value="ioutils.js" style="text;html=1;strokeColor=none;fillColor=none;align=center;verticalAlign=middle;whiteSpace=wrap;rounded=0;" vertex="1" parent="1">
          <mxGeometry x="-91.97" y="1760" width="51" height="34" as="geometry" />
        </mxCell>
        <mxCell id="5p-A5H8YYFQbPtiemds_-8" value="" style="ellipse;whiteSpace=wrap;html=1;aspect=fixed;fillColor=none;" vertex="1" parent="1">
          <mxGeometry x="309" y="1713" width="26" height="26" as="geometry" />
        </mxCell>
        <mxCell id="5p-A5H8YYFQbPtiemds_-10" value="WSConfiguration" style="text;html=1;strokeColor=none;fillColor=none;align=center;verticalAlign=middle;whiteSpace=wrap;rounded=0;" vertex="1" parent="1">
          <mxGeometry x="354" y="1710.2" width="60" height="30" as="geometry" />
        </mxCell>
        <mxCell id="5p-A5H8YYFQbPtiemds_-12" value="serviceaccessgui.html" style="text;html=1;strokeColor=none;fillColor=none;align=center;verticalAlign=middle;whiteSpace=wrap;rounded=0;" vertex="1" parent="1">
          <mxGeometry x="-20.000000000000007" y="1593.31" width="51" height="30" as="geometry" />
        </mxCell>
        <mxCell id="5p-A5H8YYFQbPtiemds_-14" value="" style="endArrow=classic;html=1;rounded=0;exitX=0.917;exitY=0.293;exitDx=0;exitDy=0;exitPerimeter=0;" edge="1" parent="1" source="nRvZe3EaVZyrfNKoyUzO-1">
          <mxGeometry width="50" height="50" relative="1" as="geometry">
            <mxPoint x="140" y="1649" as="sourcePoint" />
            <mxPoint x="256" y="1648.6299999999999" as="targetPoint" />
          </mxGeometry>
        </mxCell>
        <mxCell id="5p-A5H8YYFQbPtiemds_-16" value="http" style="text;html=1;strokeColor=none;fillColor=none;align=center;verticalAlign=middle;whiteSpace=wrap;rounded=0;fontStyle=3" vertex="1" parent="1">
          <mxGeometry x="145" y="1624" width="60" height="30" as="geometry" />
        </mxCell>
      </root>
    </mxGraphModel>
  </diagram>
</mxfile>
